<?xml version="1.0" ?>
<mxfile host="app.diagrams.net" modified="2023-10-10T12:00:00.000Z" agent="python-script" etag="abcd1234" version="16.0.0" type="device">
  <diagram id="diagram-id" name="Page-1">
    <mxGraphModel dx="1422" dy="794" grid="1" gridSize="10" guides="1" tooltips="1" connect="1" arrows="1" fold="1" page="1" pageScale="1" pageWidth="850" pageHeight="1100">
      <root>
        <mxCell id="0"/>
        <mxCell id="1" parent="0"/>
        <mxCell id="2" value="Google Cloud Storage" style="shape=image;image=data:image/jpeg;base64,/9j/4AAQSkZJRgABAgEASABIAAD/7QAsUGhvdG9zaG9wIDMuMAA4QklNA+0AAAAAABAASAAAAAEAAQBIAAAAAQAB/+E1ymh0dHA6Ly9ucy5hZG9iZS5jb20veGFwLzEuMC8APD94cGFja2V0IGJlZ2luPSLvu78iIGlkPSJXNU0wTXBDZWhpSHpyZVN6TlRjemtjOWQiPz4KPHg6eG1wbWV0YSB4bWxuczp4PSJhZG9iZTpuczptZXRhLyIgeDp4bXB0az0iQWRvYmUgWE1QIENvcmUgNS42LWMxNDUgNzkuMTYzNDk5LCAyMDE4LzA4LzEzLTE2OjQwOjIyICAgICAgICAiPgogICA8cmRmOlJERiB4bWxuczpyZGY9Imh0dHA6Ly93d3cudzMub3JnLzE5OTkvMDIvMjItcmRmLXN5bnRheC1ucyMiPgogICAgICA8cmRmOkRlc2NyaXB0aW9uIHJkZjphYm91dD0iIgogICAgICAgICAgICB4bWxuczpkYz0iaHR0cDovL3B1cmwub3JnL2RjL2VsZW1lbnRzLzEuMS8iCiAgICAgICAgICAgIHhtbG5zOnhtcD0iaHR0cDovL25zLmFkb2JlLmNvbS94YXAvMS4wLyIKICAgICAgICAgICAgeG1sbnM6eG1wR0ltZz0iaHR0cDovL25zLmFkb2JlLmNvbS94YXAvMS4wL2cvaW1nLyIKICAgICAgICAgICAgeG1sbnM6eG1wTU09Imh0dHA6Ly9ucy5hZG9iZS5jb20veGFwLzEuMC9tbS8iCiAgICAgICAgICAgIHhtbG5zOnN0UmVmPSJodHRwOi8vbnMuYWRvYmUuY29tL3hhcC8xLjAvc1R5cGUvUmVzb3VyY2VSZWYjIgogICAgICAgICAgICB4bWxuczpzdEV2dD0iaHR0cDovL25zLmFkb2JlLmNvbS94YXAvMS4wL3NUeXBlL1Jlc291cmNlRXZlbnQjIgogICAgICAgICAgICB4bWxuczppbGx1c3RyYXRvcj0iaHR0cDovL25zLmFkb2JlLmNvbS9pbGx1c3RyYXRvci8xLjAvIgogICAgICAgICAgICB4bWxuczpwZGY9Imh0dHA6Ly9ucy5hZG9iZS5jb20vcGRmLzEuMy8iPgogICAgICAgICA8ZGM6Zm9ybWF0PmltYWdlL2pwZWc8L2RjOmZvcm1hdD4KICAgICAgICAgPGRjOnRpdGxlPgogICAgICAgICAgICA8cmRmOkFsdD4KICAgICAgICAgICAgICAgPHJkZjpsaSB4bWw6bGFuZz0ieC1kZWZhdWx0Ij5Qcm9kdWN0SWNvbkNhcmRzPC9yZGY6bGk+CiAgICAgICAgICAgIDwvcmRmOkFsdD4KICAgICAgICAgPC9kYzp0aXRsZT4KICAgICAgICAgPHhtcDpDcmVhdG9yVG9vbD5BZG9iZSBJbGx1c3RyYXRvciBDQyAyMy4xIChNYWNpbnRvc2gpPC94bXA6Q3JlYXRvclRvb2w+CiAgICAgICAgIDx4bXA6Q3JlYXRlRGF0ZT4yMDE5LTEwLTIyVDExOjM0OjA5LTA1OjAwPC94bXA6Q3JlYXRlRGF0ZT4KICAgICAgICAgPHhtcDpNb2RpZnlEYXRlPjIwMTktMTAtMjJUMTY6MzQ6MDlaPC94bXA6TW9kaWZ5RGF0ZT4KICAgICAgICAgPHhtcDpNZXRhZGF0YURhdGU+MjAxOS0xMC0yMlQxMTozNDowOS0wNTowMDwveG1wOk1ldGFkYXRhRGF0ZT4KICAgICAgICAgPHhtcDpUaHVtYm5haWxzPgogICAgICAgICAgICA8cmRmOkFsdD4KICAgICAgICAgICAgICAgPHJkZjpsaSByZGY6cGFyc2VUeXBlPSJSZXNvdXJjZSI+CiAgICAgICAgICAgICAgICAgIDx4bXBHSW1nOndpZHRoPjEyPC94bXBHSW1nOndpZHRoPgogICAgICAgICAgICAgICAgICA8eG1wR0ltZzpoZWlnaHQ+MjU2PC94bXBHSW1nOmhlaWdodD4KICAgICAgICAgICAgICAgICAgPHhtcEdJbWc6Zm9ybWF0PkpQRUc8L3htcEdJbWc6Zm9ybWF0PgogICAgICAgICAgICAgICAgICA8eG1wR0ltZzppbWFnZT4vOWovNEFBUVNrWkpSZ0FCQWdFQVNBQklBQUQvN1FBc1VHaHZkRzl6YUc5d0lETXVNQUE0UWtsTkErMEFBQUFBQUJBQVNBQUFBQUVBJiN4QTtBUUJJQUFBQUFRQUIvK0lNV0VsRFExOVFVazlHU1V4RkFBRUJBQUFNU0V4cGJtOENFQUFBYlc1MGNsSkhRaUJZV1ZvZ0I4NEFBZ0FKJiN4QTtBQVlBTVFBQVlXTnpjRTFUUmxRQUFBQUFTVVZESUhOU1IwSUFBQUFBQUFBQUFBQUFBQUFBQVBiV0FBRUFBQUFBMHkxSVVDQWdBQUFBJiN4QTtBQUFBQUFBQUFBQUFBQUFBQUFBQUFBQUFBQUFBQUFBQUFBQUFBQUFBQUFBQUFBQUFBQUFBQUFBQUFBQVJZM0J5ZEFBQUFWQUFBQUF6JiN4QTtaR1Z6WXdBQUFZUUFBQUJzZDNSd2RBQUFBZkFBQUFBVVltdHdkQUFBQWdRQUFBQVVjbGhaV2dBQUFoZ0FBQUFVWjFoWldnQUFBaXdBJiN4QTtBQUFVWWxoWldnQUFBa0FBQUFBVVpHMXVaQUFBQWxRQUFBQndaRzFrWkFBQUFzUUFBQUNJZG5WbFpBQUFBMHdBQUFDR2RtbGxkd0FBJiN4QTtBOVFBQUFBa2JIVnRhUUFBQS9nQUFBQVViV1ZoY3dBQUJBd0FBQUFrZEdWamFBQUFCREFBQUFBTWNsUlNRd0FBQkR3QUFBZ01aMVJTJiN4QTtRd0FBQkR3QUFBZ01ZbFJTUXdBQUJEd0FBQWdNZEdWNGRBQUFBQUJEYjNCNWNtbG5hSFFnS0dNcElERTVPVGdnU0dWM2JHVjBkQzFRJiN4QTtZV05yWVhKa0lFTnZiWEJoYm5rQUFHUmxjMk1BQUFBQUFBQUFFbk5TUjBJZ1NVVkROakU1TmpZdE1pNHhBQUFBQUFBQUFBQUFBQUFTJiN4QTtjMUpIUWlCSlJVTTJNVGsyTmkweUxqRUFBQUFBQUFBQUFBQUFBQUFBQUFBQUFBQUFBQUFBQUFBQUFBQUFBQUFBQUFBQUFBQUFBQUFBJiN4QTtBQUFBQUFBQUFBQUFBRmhaV2lBQUFBQUFBQUR6VVFBQkFBQUFBUmJNV0ZsYUlBQUFBQUFBQUFBQUFBQUFBQUFBQUFCWVdWb2dBQUFBJiN4QTtBQUFBYjZJQUFEajFBQUFEa0ZoWldpQUFBQUFBQUFCaW1RQUF0NFVBQUJqYVdGbGFJQUFBQUFBQUFDU2dBQUFQaEFBQXRzOWtaWE5qJiN4QTtBQUFBQUFBQUFCWkpSVU1nYUhSMGNEb3ZMM2QzZHk1cFpXTXVZMmdBQUFBQUFBQUFBQUFBQUJaSlJVTWdhSFIwY0RvdkwzZDNkeTVwJiN4QTtaV011WTJnQUFBQUFBQUFBQUFBQUFBQUFBQUFBQUFBQUFBQUFBQUFBQUFBQUFBQUFBQUFBQUFBQUFBQUFBQUFBQUFBQVpHVnpZd0FBJiN4QTtBQUFBQUFBdVNVVkRJRFl4T1RZMkxUSXVNU0JFWldaaGRXeDBJRkpIUWlCamIyeHZkWElnYzNCaFkyVWdMU0J6VWtkQ0FBQUFBQUFBJiN4QTtBQUFBQUFBdVNVVkRJRFl4T1RZMkxUSXVNU0JFWldaaGRXeDBJRkpIUWlCamIyeHZkWElnYzNCaFkyVWdMU0J6VWtkQ0FBQUFBQUFBJiN4QTtBQUFBQUFBQUFBQUFBQUFBQUFBQUFHUmxjMk1BQUFBQUFBQUFMRkpsWm1WeVpXNWpaU0JXYVdWM2FXNW5JRU52Ym1ScGRHbHZiaUJwJiN4QTtiaUJKUlVNMk1UazJOaTB5TGpFQUFBQUFBQUFBQUFBQUFDeFNaV1psY21WdVkyVWdWbWxsZDJsdVp5QkRiMjVrYVhScGIyNGdhVzRnJiN4QTtTVVZETmpFNU5qWXRNaTR4QUFBQUFBQUFBQUFBQUFBQUFBQUFBQUFBQUFBQUFBQUFBQUIyYVdWM0FBQUFBQUFUcFA0QUZGOHVBQkRQJiN4QTtGQUFEN2N3QUJCTUxBQU5jbmdBQUFBRllXVm9nQUFBQUFBQk1DVllBVUFBQUFGY2Y1MjFsWVhNQUFBQUFBQUFBQVFBQUFBQUFBQUFBJiN4QTtBQUFBQUFBQUFBQUFBQUtQQUFBQUFuTnBaeUFBQUFBQVExSlVJR04xY25ZQUFBQUFBQUFFQUFBQUFBVUFDZ0FQQUJRQUdRQWVBQ01BJiN4QTtLQUF0QURJQU53QTdBRUFBUlFCS0FFOEFWQUJaQUY0QVl3Qm9BRzBBY2dCM0FId0FnUUNHQUlzQWtBQ1ZBSm9BbndDa0FLa0FyZ0N5JiN4QTtBTGNBdkFEQkFNWUF5d0RRQU5VQTJ3RGdBT1VBNndEd0FQWUErd0VCQVFjQkRRRVRBUmtCSHdFbEFTc0JNZ0U0QVQ0QlJRRk1BVklCJiN4QTtXUUZnQVdjQmJnRjFBWHdCZ3dHTEFaSUJtZ0doQWFrQnNRRzVBY0VCeVFIUkFka0I0UUhwQWZJQitnSURBZ3dDRkFJZEFpWUNMd0k0JiN4QTtBa0VDU3dKVUFsMENad0p4QW5vQ2hBS09BcGdDb2dLc0FyWUN3UUxMQXRVQzRBTHJBdlVEQUFNTEF4WURJUU10QXpnRFF3TlBBMW9EJiN4QTtaZ055QTM0RGlnT1dBNklEcmdPNkE4Y0Qwd1BnQSt3RCtRUUdCQk1FSUFRdEJEc0VTQVJWQkdNRWNRUitCSXdFbWdTb0JMWUV4QVRUJiN4QTtCT0VFOEFUK0JRMEZIQVVyQlRvRlNRVllCV2NGZHdXR0JaWUZwZ1cxQmNVRjFRWGxCZllHQmdZV0JpY0dOd1pJQmxrR2FnWjdCb3dHJiN4QTtuUWF2QnNBRzBRYmpCdlVIQndjWkJ5c0hQUWRQQjJFSGRBZUdCNWtIckFlL0I5SUg1UWY0Q0FzSUh3Z3lDRVlJV2dodUNJSUlsZ2lxJiN4QTtDTDRJMGdqbkNQc0pFQWtsQ1RvSlR3bGtDWGtKandta0Nib0p6d25sQ2ZzS0VRb25DajBLVkFwcUNvRUttQXF1Q3NVSzNBcnpDd3NMJiN4QTtJZ3M1QzFFTGFRdUFDNWdMc0F2SUMrRUwrUXdTRENvTVF3eGNESFVNamd5bkRNQU0yUXp6RFEwTkpnMUFEVm9OZEEyT0Rha053dzNlJiN4QTtEZmdPRXc0dURra09aQTUvRHBzT3RnN1NEdTRQQ1E4bEQwRVBYZzk2RDVZUHN3L1BEK3dRQ1JBbUVFTVFZUkIrRUpzUXVSRFhFUFVSJiN4QTtFeEV4RVU4UmJSR01FYW9SeVJIb0VnY1NKaEpGRW1RU2hCS2pFc01TNHhNREV5TVRReE5qRTRNVHBCUEZFK1VVQmhRbkZFa1VhaFNMJiN4QTtGSzBVemhUd0ZSSVZOQlZXRlhnVm14VzlGZUFXQXhZbUZra1diQmFQRnJJVzFoYjZGeDBYUVJkbEY0a1hyaGZTRi9jWUd4aEFHR1VZJiN4QTtpaGl2R05VWStoa2dHVVVaYXhtUkdiY1ozUm9FR2lvYVVScDNHcDRheFJyc0d4UWJPeHRqRzRvYnNodmFIQUljS2h4U0hIc2NveHpNJiN4QTtIUFVkSGgxSEhYQWRtUjNESGV3ZUZoNUFIbW9lbEI2K0h1a2ZFeDgrSDJrZmxCKy9IK29nRlNCQklHd2dtQ0RFSVBBaEhDRklJWFVoJiN4QTtvU0hPSWZzaUp5SlZJb0lpcnlMZEl3b2pPQ05tSTVRandpUHdKQjhrVFNSOEpLc2syaVVKSlRnbGFDV1hKY2NsOXlZbkpsY21oeWEzJiN4QTtKdWduR0NkSkozb25xeWZjS0Ewb1B5aHhLS0lvMUNrR0tUZ3BheW1kS2RBcUFpbzFLbWdxbXlyUEt3SXJOaXRwSzUwcjBTd0ZMRGtzJiN4QTtiaXlpTE5jdERDMUJMWFl0cXkzaExoWXVUQzZDTHJjdTdpOGtMMW92a1MvSEwvNHdOVEJzTUtRdzJ6RVNNVW94Z2pHNk1mSXlLakpqJiN4QTtNcHN5MURNTk0wWXpmek80TS9FMEt6UmxOSjQwMkRVVE5VMDFoelhDTmYwMk56WnlOcTQyNlRja04yQTNuRGZYT0JRNFVEaU1PTWc1JiN4QTtCVGxDT1g4NXZEbjVPalk2ZERxeU91ODdMVHRyTzZvNzZEd25QR1U4cER6alBTSTlZVDJoUGVBK0lENWdQcUErNEQ4aFAyRS9vai9pJiN4QTtRQ05BWkVDbVFPZEJLVUZxUWF4QjdrSXdRbkpDdFVMM1F6cERmVVBBUkFORVIwU0tSTTVGRWtWVlJacEYza1lpUm1kR3EwYndSelZIJiN4QTtlMGZBU0FWSVMwaVJTTmRKSFVsalNhbEo4RW8zU24xS3hFc01TMU5MbWt2aVRDcE1ja3k2VFFKTlNrMlRUZHhPSlU1dVRyZFBBRTlKJiN4QTtUNU5QM1ZBblVIRlF1MUVHVVZCUm0xSG1VakZTZkZMSFV4TlRYMU9xVS9aVVFsU1BWTnRWS0ZWMVZjSldEMVpjVnFsVzkxZEVWNUpYJiN4QTs0Rmd2V0gxWXkxa2FXV2xadUZvSFdsWmFwbHIxVzBWYmxWdmxYRFZjaGx6V1hTZGRlRjNKWGhwZWJGNjlYdzlmWVYrellBVmdWMkNxJiN4QTtZUHhoVDJHaVlmVmlTV0tjWXZCalEyT1hZK3RrUUdTVVpPbGxQV1dTWmVkbVBXYVNadWhuUFdlVForbG9QMmlXYU94cFEybWFhZkZxJiN4QTtTR3FmYXZkclQydW5hLzlzVjJ5dmJRaHRZRzI1YmhKdWEyN0VieDV2ZUcvUmNDdHdobkRnY1RweGxYSHdja3R5cG5NQmMxMXp1SFFVJiN4QTtkSEIwekhVb2RZVjE0WFkrZHB0MitIZFdkN040RVhodWVNeDVLbm1KZWVkNlJucWxld1I3WTN2Q2ZDRjhnWHpoZlVGOW9YNEJmbUorJiN4QTt3bjhqZjRSLzVZQkhnS2lCQ29GcmdjMkNNSUtTZ3ZTRFY0TzZoQjJFZ0lUamhVZUZxNFlPaG5LRzE0YzdoNStJQklocGlNNkpNNG1aJiN4QTtpZjZLWklyS2l6Q0xsb3Y4akdPTXlvMHhqWmlOLzQ1bWpzNlBObytla0FhUWJwRFdrVCtScUpJUmtucVM0NU5OazdhVUlKU0tsUFNWJiN4QTtYNVhKbGpTV241Y0tsM1dYNEpoTW1MaVpKSm1RbWZ5YWFKclZtMEticjV3Y25JbWM5NTFrbmRLZVFKNnVueDJmaTUvNm9HbWcyS0ZIJiN4QTtvYmFpSnFLV293YWpkcVBtcEZha3g2VTRwYW1tR3FhTHB2Mm5icWZncUZLb3hLazNxYW1xSEtxUHF3S3JkYXZwckZ5czBLMUVyYml1JiN4QTtMYTZocnhhdmk3QUFzSFd3NnJGZ3NkYXlTN0xDc3ppenJyUWx0SnkxRTdXS3RnRzJlYmJ3dDJpMzRMaFp1Tkc1U3JuQ3VqdTZ0YnN1JiN4QTt1NmU4SWJ5YnZSVzlqNzRLdm9TKy83OTZ2L1hBY01Ec3dXZkI0OEpmd3R2RFdNUFV4RkhFenNWTHhjakdSc2JEeDBISHY4Zzl5THpKJiN4QTtPc201eWpqS3Q4czJ5N2JNTmN5MXpUWE50YzQyenJiUE44KzQwRG5RdXRFODBiN1NQOUxCMDBUVHh0UkoxTXZWVHRYUjFsWFcyTmRjJiN4QTsxK0RZWk5qbzJXelo4ZHAyMnZ2YmdOd0YzSXJkRU4yVzNoemVvdDhwMzYvZ051Qzk0VVRoek9KVDR0dmpZK1ByNUhQay9PV0U1ZzNtJiN4QTtsdWNmNTZub011aTg2VWJwME9wYjZ1WHJjT3Y3N0lidEVlMmM3aWp1dE85QTc4endXUERsOFhMeC8vS004eG56cC9RMDlNTDFVUFhlJiN4QTs5bTMyKy9lSytCbjRxUGs0K2NmNlYvcm4rM2Y4Qi95WS9Tbjl1djVML3R6L2JmLy8vKzRBRGtGa2IySmxBR1RBQUFBQUFmL2JBSVFBJiN4QTtCZ1FFQkFVRUJnVUZCZ2tHQlFZSkN3Z0dCZ2dMREFvS0N3b0tEQkFNREF3TURBd1FEQTRQRUE4T0RCTVRGQlFURXh3Ykd4c2NIeDhmJiN4QTtIeDhmSHg4Zkh3RUhCd2NOREEwWUVCQVlHaFVSRlJvZkh4OGZIeDhmSHg4Zkh4OGZIeDhmSHg4Zkh4OGZIeDhmSHg4Zkh4OGZIeDhmJiN4QTtIeDhmSHg4Zkh4OGZIeDhmSHg4Zi84QUFFUWdCQUFBTUF3RVJBQUlSQVFNUkFmL0VBYUlBQUFBSEFRRUJBUUVBQUFBQUFBQUFBQVFGJiN4QTtBd0lHQVFBSENBa0tDd0VBQWdJREFRRUJBUUVBQUFBQUFBQUFBUUFDQXdRRkJnY0lDUW9MRUFBQ0FRTURBZ1FDQmdjREJBSUdBbk1CJiN4QTtBZ01SQkFBRklSSXhRVkVHRTJFaWNZRVVNcEdoQnhXeFFpUEJVdEhoTXhaaThDUnlndkVsUXpSVGtxS3lZM1BDTlVRbms2T3pOaGRVJiN4QTtaSFREMHVJSUpvTUpDaGdaaEpSRlJxUzBWdE5WS0JyeTQvUEUxT1QwWlhXRmxhVzF4ZFhsOVdaMmhwYW10c2JXNXZZM1IxZG5kNGVYJiN4QTtwN2ZIMStmM09FaFlhSGlJbUtpNHlOam8rQ2s1U1ZscGVZbVpxYm5KMmVuNUtqcEtXbXA2aXBxcXVzcmE2dm9SQUFJQ0FRSURCUVVFJiN4QTtCUVlFQ0FNRGJRRUFBaEVEQkNFU01VRUZVUk5oSWdaeGdaRXlvYkh3Rk1IUjRTTkNGVkppY3ZFekpEUkRnaGFTVXlXaVk3TENCM1BTJiN4QTtOZUpFZ3hkVWt3Z0pDaGdaSmpaRkdpZGtkRlUzOHFPend5Z3AwK1B6aEpTa3RNVFU1UFJsZFlXVnBiWEYxZVgxUmxabWRvYVdwcmJHJiN4QTsxdWIyUjFkbmQ0ZVhwN2ZIMStmM09FaFlhSGlJbUtpNHlOam8rRGxKV1dsNWlabXB1Y25aNmZrcU9rcGFhbnFLbXFxNnl0cnErdi9hJiN4QTtBQXdEQVFBQ0VRTVJBRDhBN2hwV20yTWtNSXVyV0dSU3BwSVZoQkI1TWQvWEJrMzhPUDRaYm5OeS9zN3ZMWnJ4aW8vajlMSXF4L1ZmJiN4QTt0THc5ZWxlVVZQN3J4NDhQd3lwc1kzb3NkM0pGYk5KNlhKV2RqUE9RcktSSXpkNUdZZXhvZkhMOVJYSHQzRDd2ZzFZYjRkMlQrcCs1JiN4QTs1ZXN2OS84QTNucmJmM1g4L0grR1VOckY3Q1lmdVRHczV1bVZncGdhTldLaG02RGkzWWR2MTF5M1A5WHk3Kzd6YThmSmtmS2I5RzE0JiN4QTtUZXR6K3p5ZjF1WG8rUEg3VmZiajlHVk5pUTZINjdDM2pqdkRFaExzWWs1RmpSMkpJV05kdzNjaGg5K1hhajYvbDM5M20xNHZwWkhRJiN4QTsralRtOWZYKzF3bTVmM1g4dkwxUHh5bHNTUFFodkhTM1dSSFZ3SkRGSkt1enQ3TEgyNjFybHVZZXI1ZmN3eDhrODRmdWVQb3IvZjhBJiN4QTsyUFIyL3V1dkRsL0hLbWFTYVJaek8xdVdSeXlxMVY5TXVoQUxEZDNkVUorWXJsbVg2bUdQa25mb042UHArbHY2OWZUNFJmNzYvbDVjJiN4QTtQeHl0bXhmUnJEVEZXT0l5WEFWdVRjT1RyVGMvdHpQdDhqOUdYWjVYTCt6OUd6WGpHMzl2NldTVXR2cXYvRlhyL3dETHYxOUwva1hsJiN4QTtMWXgvU1lyaFV0eW5vRkVkajZzZ2pEQW1ZazBNaExyU3Rlbnk3RExzNXVYd0gzTmVJVkg1c2w5Vi9SNSt1bkwxL3dDOTlST1A5MzA1JiN4QTtjT1AvQUF1VXRqRzlMa3RsdUxablFyUDhkQjZxcUtGbnAwOVNYb2YyVC9FWmJtK3I1ZmQ4R0dQa3lQbXZvOHUzci83OWwvMzEvUFRuJiN4QTsrR1ZNMk42UE5mUEZHSVpONHkxYlVPeUU4V05maGpqZnJUcUd5L1VDcGZBZC93Q2xyeEhaa05aL3FsZUo5YjFhOEt6OWZTNmNxZXBUJiN4QTs2TW9iR082WkpPeVc0Z2xoQk5UOVhHNWFqR3RlRVo2MDNvY3V6aXBmTDhidGVJN01oNHkvVS9zTDZ2cTE5UGhMeDVlbDBwOXVudlQ2JiN4QTtNcGJHTjZROXdZb0pmcWF6VmR3SkFaSFgrOGJhaW5nZVBUZkw5VEdwMTVEN21yQ2JqODJVK2svbzhQUVRsNi85MTZhY2Y3dnJ4NThmJiN4QTsrR3lodFl0bzBVRW5vTlBjVFZxMUVVQlJSWGJoeU1wQy9aVWNneTlmWWpMczljVzNsM2QzazE0cnI4ZnBaRnh0L3FsT1o5UDZ4MS8wJiN4QTthdGZTK1hwZnh5bHNZL3BDenlSUk9pd3hNcGNDV1ZJeXdLdXc2eUZaUHczNjk4dXovVjhCM2QzazE0dVRJK1NmVnE4bHA2LzJ1VVZQJiN4QTs3dng0OFB3eWxzWTFwY0pqaGhrYTBobVNqTUdXUlkzREZ5ZC9VWnVueXk3UEs1TmVJVkZrUDFxYjZoNjlCNm5yZlk5ZGEvM1hUMUtjJiN4QTthNVMyTWUwTVdVazlxZlJsV2I5NXhWWlFCOExQdVBTRHYyL1pQejc1ZHFCVXZsMzkzbTE0dnAvSDZHVDhmM0gySlA3L0FPejZseHkvJiN4QTt1djV1UHFmaGxMWXhmU3RSTnZheHNzOGFyUi85SExTb09YcU5VajBscFhiK2I1NzVkcVByK1hmM2ViWGkrbGtQcTNmNlA1OEQ5WTlmJiN4QTs3SCtrL3dDKy9HbnE5UGFtVXRqSHROQXViZUdSb1M4RGM2ekpIY09maGRoMGlLb2R4NDdaZG5qVXE5MzNOZUkzRmsvcHY5WDQrbkh5JiN4QTs5ZjdIb2ZEL0FIWCsrK2Y0OHNwYkdQNkdWSmlJWXVyODlqRVhVMVlzZmprWlZGR3FOeDB5N09QVjh2eHMxNCtTZjhVK3JVNHJUMS9zJiN4QTs4WXFmM2ZoeTRmamxMWXhYU29vcDdlTUkwc2JrTXdWaHhBUHFIcVpKVSs0L3F5N1A5WHk3dTd5MmE4WDAvajlMSktyK2p1ZzVldFN0JiN4QTtMZmp6OUxyeDVlblN2YmxYS1d4STdHQzdNVUtENnN3cVFKcEVqSEg0MlBTUnVkUGw5R1haemN2bDl6WGpGQmtQcVhuMUxsOWFoK3MrJiN4QTt0VDZ4eUhwMTlQOEExZncvSEtXeGpHa1hNTnVJSG82eWtzcXh4eVJSMVV5TWVOQVhhamV4KzQ1ZnFQcitBNys3emE4WDBzbzljZlUvJiN4QTtXNE4vZTh2VDlXVGwvZFZweXB5cjdkTW9iR1BhYkpESENpTGZpemlIS2lxNEI1QnlQc3BIeDdlTmZIZXVYWnllTGZ5Ny93QkxYaXF0JiN4QTt2eDhtUTFiNm5YMUdyNnY5Nys5NWYzWDJ2NXY0WlMySkRva3NjeXdmNldpeHNYcEVxYzJkaElhaWlvdlgyUDhBWExzOGFsWGtQdWE4JiN4QTtSc01nOU5mUTQ5dlgvd0I5Uy83Ni9rcnkvSEtXeGp1a1JNMXVodTdWdlVUa1ZlSlpKVlBGMjZsV2pYYW4wNWRxQU9MYnkrNzR0ZUsrJiN4QTtIZGtucFA2UEQwRTVldjhBM1hwcHgvdSt2SG54L3dDR3lsc1lycGRyYlhFY1FXZDQxQmQzU3V4QmxZbWtqdkdLNzlLZmhsMmY2dmdPJiN4QTs3dThtdkZ5WkY2ZHA5UTlLcmVoNnZDdktIbC9kVSsxWGpYM3JYS1d4alduMllsU0thNFIzQUwwRWJyRXdQcU1mOTJ5Y2h2djArV1hhJiN4QTtnK3I0RHU3dkpyeGZUODJVOHY4QVE2ZXMxUFY0ZXI2cWNxZWxUKzhwU3Z2MXlsc1k1cHI4NExlZUNPV01xSk9MYzdkWEJNakUvd0I1JiN4QTt5WWZhT1hhZ1ZMbmZMN212RWZTeWJuKzU1ZXN2OS84QWI5YmIrNjZjK1A4QURLV3hpdWwvVXlrS1RXcjNzcks0V05XUVZITmpzRXFkJiN4QTtnT3pmamwyZjZ2bDM5M20xNCtUS1BTaitxZWw2SjlMMWVIbzhwdnMrbFNuMmVkS2RxVXlsc1NQUXB4RkZGSDlaUVJNZUlVR1Q0V0xQJiN4QTtzcXhFQmlTUEg4YTVkbityNWQvZDV0ZUw2VS80bjBhYzNyNi8ydUUzTCs3L0FKZVhxZmpsTFl4dlJJWVpJWUZFYlR4T1NWdU9Nc2xXJiN4QTtWMkZLb1ZTbGZmTDlSZkZ1SzVkSzZOZUw2ZWRzajlQOXp4OUZmNy8rNzlIYis2L2s1Znh5aHNTaTFpU0NlS0ZUeUJRVkVrU3ZXcExuJiN4QTs5NFpPRmQvQ3ROc2xLVm0wQVVtbkZQcTFPSzA5ZjdQR0tuOTM0Y3VINDVGTC85az08L3htcEdJbWc6aW1hZ2U+CiAgICAgICAgICAgICAgIDwvcmRmOmxpPgogICAgICAgICAgICA8L3JkZjpBbHQ+CiAgICAgICAgIDwveG1wOlRodW1ibmFpbHM+CiAgICAgICAgIDx4bXBNTTpPcmlnaW5hbERvY3VtZW50SUQ+dXVpZDo5RTNFNUM5QThDODFEQjExODczNERCNThGRERFNEJBNzwveG1wTU06T3JpZ2luYWxEb2N1bWVudElEPgogICAgICAgICA8eG1wTU06RG9jdW1lbnRJRD54bXAuZGlkOjVjZjZhYjY1LWQ5YjEtNGI3NC04NThkLTVmMWYyZWI3YTU4MzwveG1wTU06RG9jdW1lbnRJRD4KICAgICAgICAgPHhtcE1NOkluc3RhbmNlSUQ+eG1wLmlpZDo1Y2Y2YWI2NS1kOWIxLTRiNzQtODU4ZC01ZjFmMmViN2E1ODM8L3htcE1NOkluc3RhbmNlSUQ+CiAgICAgICAgIDx4bXBNTTpSZW5kaXRpb25DbGFzcz5wcm9vZjpwZGY8L3htcE1NOlJlbmRpdGlvbkNsYXNzPgogICAgICAgICA8eG1wTU06RGVyaXZlZEZyb20gcmRmOnBhcnNlVHlwZT0iUmVzb3VyY2UiPgogICAgICAgICAgICA8c3RSZWY6aW5zdGFuY2VJRD54bXAuaWlkOjFkNTAzMWI2LTc0ZmQtNDU5ZC1hNjExLWI5YzNjOWQwNGUxZDwvc3RSZWY6aW5zdGFuY2VJRD4KICAgICAgICAgICAgPHN0UmVmOmRvY3VtZW50SUQ+eG1wLmRpZDoxZDUwMzFiNi03NGZkLTQ1OWQtYTYxMS1iOWMzYzlkMDRlMWQ8L3N0UmVmOmRvY3VtZW50SUQ+CiAgICAgICAgICAgIDxzdFJlZjpvcmlnaW5hbERvY3VtZW50SUQ+dXVpZDo5RTNFNUM5QThDODFEQjExODczNERCNThGRERFNEJBNzwvc3RSZWY6b3JpZ2luYWxEb2N1bWVudElEPgogICAgICAgICAgICA8c3RSZWY6cmVuZGl0aW9uQ2xhc3M+cHJvb2Y6cGRmPC9zdFJlZjpyZW5kaXRpb25DbGFzcz4KICAgICAgICAgPC94bXBNTTpEZXJpdmVkRnJvbT4KICAgICAgICAgPHhtcE1NOkhpc3Rvcnk+CiAgICAgICAgICAgIDxyZGY6U2VxPgogICAgICAgICAgICAgICA8cmRmOmxpIHJkZjpwYXJzZVR5cGU9IlJlc291cmNlIj4KICAgICAgICAgICAgICAgICAgPHN0RXZ0OmFjdGlvbj5zYXZlZDwvc3RFdnQ6YWN0aW9uPgogICAgICAgICAgICAgICAgICA8c3RFdnQ6aW5zdGFuY2VJRD54bXAuaWlkOjE5MmExNzA3LTBhZDMtNGY5OC1hNjcwLWU4M2JjODRkMzFkNjwvc3RFdnQ6aW5zdGFuY2VJRD4KICAgICAgICAgICAgICAgICAgPHN0RXZ0OndoZW4+MjAxOS0xMC0xNVQxMjo1NTo1MC0wNTowMDwvc3RFdnQ6d2hlbj4KICAgICAgICAgICAgICAgICAgPHN0RXZ0OnNvZnR3YXJlQWdlbnQ+QWRvYmUgSWxsdXN0cmF0b3IgQ0MgMjMuMSAoTWFjaW50b3NoKTwvc3RFdnQ6c29mdHdhcmVBZ2VudD4KICAgICAgICAgICAgICAgICAgPHN0RXZ0OmNoYW5nZWQ+Lzwvc3RFdnQ6Y2hhbmdlZD4KICAgICAgICAgICAgICAgPC9yZGY6bGk+CiAgICAgICAgICAgICAgIDxyZGY6bGkgcmRmOnBhcnNlVHlwZT0iUmVzb3VyY2UiPgogICAgICAgICAgICAgICAgICA8c3RFdnQ6YWN0aW9uPnNhdmVkPC9zdEV2dDphY3Rpb24+CiAgICAgICAgICAgICAgICAgIDxzdEV2dDppbnN0YW5jZUlEPnhtcC5paWQ6NWNmNmFiNjUtZDliMS00Yjc0LTg1OGQtNWYxZjJlYjdhNTgzPC9zdEV2dDppbnN0YW5jZUlEPgogICAgICAgICAgICAgICAgICA8c3RFdnQ6d2hlbj4yMDE5LTEwLTIyVDExOjM0OjA5LTA1OjAwPC9zdEV2dDp3aGVuPgogICAgICAgICAgICAgICAgICA8c3RFdnQ6c29mdHdhcmVBZ2VudD5BZG9iZSBJbGx1c3RyYXRvciBDQyAyMy4xIChNYWNpbnRvc2gpPC9zdEV2dDpzb2Z0d2FyZUFnZW50PgogICAgICAgICAgICAgICAgICA8c3RFdnQ6Y2hhbmdlZD4vPC9zdEV2dDpjaGFuZ2VkPgogICAgICAgICAgICAgICA8L3JkZjpsaT4KICAgICAgICAgICAgPC9yZGY6U2VxPgogICAgICAgICA8L3htcE1NOkhpc3Rvcnk+CiAgICAgICAgIDxpbGx1c3RyYXRvcjpTdGFydHVwUHJvZmlsZT5CYXNpYyBSR0I8L2lsbHVzdHJhdG9yOlN0YXJ0dXBQcm9maWxlPgogICAgICAgICA8cGRmOlByb2R1Y2VyPkFkb2JlIFBERiBsaWJyYXJ5IDE1LjAwPC9wZGY6UHJvZHVjZXI+CiAgICAgIDwvcmRmOkRlc2NyaXB0aW9uPgogICA8L3JkZjpSREY+CjwveDp4bXBtZXRhPgogICAgICAgICAgICAgICAgICAgICAgICAgICAgICAgICAgICAgICAgICAgICAgICAgICAgICAgICAgICAgICAgICAgICAgICAgICAgICAgICAgICAgICAgICAgICAgICAgICAgCiAgICAgICAgICAgICAgICAgICAgICAgICAgICAgICAgICAgICAgICAgICAgICAgICAgICAgICAgICAgICAgICAgICAgICAgICAgICAgICAgICAgICAgICAgICAgICAgICAgICAKICAgICAgICAgICAgICAgICAgICAgICAgICAgICAgICAgICAgICAgICAgICAgICAgICAgICAgICAgICAgICAgICAgICAgICAgICAgICAgICAgICAgICAgICAgICAgICAgICAgIAogICAgICAgICAgICAgICAgICAgICAgICAgICAgICAgICAgICAgICAgICAgICAgICAgICAgICAgICAgICAgICAgICAgICAgICAgICAgICAgICAgICAgICAgICAgICAgICAgICAgCiAgICAgICAgICAgICAgICAgICAgICAgICAgICAgICAgICAgICAgICAgICAgICAgICAgICAgICAgICAgICAgICAgICAgICAgICAgICAgICAgICAgICAgICAgICAgICAgICAgICAKICAgICAgICAgICAgICAgICAgICAgICAgICAgICAgICAgICAgICAgICAgICAgICAgICAgICAgICAgICAgICAgICAgICAgICAgICAgICAgICAgICAgICAgICAgICAgICAgICAgIAogICAgICAgICAgICAgICAgICAgICAgICAgICAgICAgICAgICAgICAgICAgICAgICAgICAgICAgICAgICAgICAgICAgICAgICAgICAgICAgICAgICAgICAgICAgICAgICAgICAgCiAgICAgICAgICAgICAgICAgICAgICAgICAgICAgICAgICAgICAgICAgICAgICAgICAgICAgICAgICAgICAgICAgICAgICAgICAgICAgICAgICAgICAgICAgICAgICAgICAgICAKICAgICAgICAgICAgICAgICAgICAgICAgICAgICAgICAgICAgICAgICAgICAgICAgICAgICAgICAgICAgICAgICAgICAgICAgICAgICAgICAgICAgICAgICAgICAgICAgICAgIAogICAgICAgICAgICAgICAgICAgICAgICAgICAgICAgICAgICAgICAgICAgICAgICAgICAgICAgICAgICAgICAgICAgICAgICAgICAgICAgICAgICAgICAgICAgICAgICAgICAgCiAgICAgICAgICAgICAgICAgICAgICAgICAgICAgICAgICAgICAgICAgICAgICAgICAgICAgICAgICAgICAgICAgICAgICAgICAgICAgICAgICAgICAgICAgICAgICAgICAgICAKICAgICAgICAgICAgICAgICAgICAgICAgICAgICAgICAgICAgICAgICAgICAgICAgICAgICAgICAgICAgICAgICAgICAgICAgICAgICAgICAgICAgICAgICAgICAgICAgICAgIAogICAgICAgICAgICAgICAgICAgICAgICAgICAgICAgICAgICAgICAgICAgICAgICAgICAgICAgICAgICAgICAgICAgICAgICAgICAgICAgICAgICAgICAgICAgICAgICAgICAgCiAgICAgICAgICAgICAgICAgICAgICAgICAgICAgICAgICAgICAgICAgICAgICAgICAgICAgICAgICAgICAgICAgICAgICAgICAgICAgICAgICAgICAgICAgICAgICAgICAgICAKICAgICAgICAgICAgICAgICAgICAgICAgICAgICAgICAgICAgICAgICAgICAgICAgICAgICAgICAgICAgICAgICAgICAgICAgICAgICAgICAgICAgICAgICAgICAgICAgICAgIAogICAgICAgICAgICAgICAgICAgICAgICAgICAgICAgICAgICAgICAgICAgICAgICAgICAgICAgICAgICAgICAgICAgICAgICAgICAgICAgICAgICAgICAgICAgICAgICAgICAgCiAgICAgICAgICAgICAgICAgICAgICAgICAgICAgICAgICAgICAgICAgICAgICAgICAgICAgICAgICAgICAgICAgICAgICAgICAgICAgICAgICAgICAgICAgICAgICAgICAgICAKICAgICAgICAgICAgICAgICAgICAgICAgICAgICAgICAgICAgICAgICAgICAgICAgICAgICAgICAgICAgICAgICAgICAgICAgICAgICAgICAgICAgICAgICAgICAgICAgICAgIAogICAgICAgICAgICAgICAgICAgICAgICAgICAgICAgICAgICAgICAgICAgICAgICAgICAgICAgICAgICAgICAgICAgICAgICAgICAgICAgICAgICAgICAgICAgICAgICAgICAgCiAgICAgICAgICAgICAgICAgICAgICAgICAgICAgICAgICAgICAgICAgICAgICAgICAgICAgICAgICAgICAgICAgICAgICAgICAgICAgICAgICAgICAgICAgICAgICAgICAgICAKICAgICAgICAgICAgICAgICAgICAgICAgICAgCjw/eHBhY2tldCBlbmQ9InciPz7/4gxYSUNDX1BST0ZJTEUAAQEAAAxITGlubwIQAABtbnRyUkdCIFhZWiAHzgACAAkABgAxAABhY3NwTVNGVAAAAABJRUMgc1JHQgAAAAAAAAAAAAAAAAAA9tYAAQAAAADTLUhQICAAAAAAAAAAAAAAAAAAAAAAAAAAAAAAAAAAAAAAAAAAAAAAAAAAAAAAAAAAAAAAABFjcHJ0AAABUAAAADNkZXNjAAABhAAAAGx3dHB0AAAB8AAAABRia3B0AAACBAAAABRyWFlaAAACGAAAABRnWFlaAAACLAAAABRiWFlaAAACQAAAABRkbW5kAAACVAAAAHBkbWRkAAACxAAAAIh2dWVkAAADTAAAAIZ2aWV3AAAD1AAAACRsdW1pAAAD+AAAABRtZWFzAAAEDAAAACR0ZWNoAAAEMAAAAAxyVFJDAAAEPAAACAxnVFJDAAAEPAAACAxiVFJDAAAEPAAACAx0ZXh0AAAAAENvcHlyaWdodCAoYykgMTk5OCBIZXdsZXR0LVBhY2thcmQgQ29tcGFueQAAZGVzYwAAAAAAAAASc1JHQiBJRUM2MTk2Ni0yLjEAAAAAAAAAAAAAABJzUkdCIElFQzYxOTY2LTIuMQAAAAAAAAAAAAAAAAAAAAAAAAAAAAAAAAAAAAAAAAAAAAAAAAAAAAAAAAAAAAAAAAAAWFlaIAAAAAAAAPNRAAEAAAABFsxYWVogAAAAAAAAAAAAAAAAAAAAAFhZWiAAAAAAAABvogAAOPUAAAOQWFlaIAAAAAAAAGKZAAC3hQAAGNpYWVogAAAAAAAAJKAAAA+EAAC2z2Rlc2MAAAAAAAAAFklFQyBodHRwOi8vd3d3LmllYy5jaAAAAAAAAAAAAAAAFklFQyBodHRwOi8vd3d3LmllYy5jaAAAAAAAAAAAAAAAAAAAAAAAAAAAAAAAAAAAAAAAAAAAAAAAAAAAAAAAAAAAAABkZXNjAAAAAAAAAC5JRUMgNjE5NjYtMi4xIERlZmF1bHQgUkdCIGNvbG91ciBzcGFjZSAtIHNSR0IAAAAAAAAAAAAAAC5JRUMgNjE5NjYtMi4xIERlZmF1bHQgUkdCIGNvbG91ciBzcGFjZSAtIHNSR0IAAAAAAAAAAAAAAAAAAAAAAAAAAAAAZGVzYwAAAAAAAAAsUmVmZXJlbmNlIFZpZXdpbmcgQ29uZGl0aW9uIGluIElFQzYxOTY2LTIuMQAAAAAAAAAAAAAALFJlZmVyZW5jZSBWaWV3aW5nIENvbmRpdGlvbiBpbiBJRUM2MTk2Ni0yLjEAAAAAAAAAAAAAAAAAAAAAAAAAAAAAAAAAAHZpZXcAAAAAABOk/gAUXy4AEM8UAAPtzAAEEwsAA1yeAAAAAVhZWiAAAAAAAEwJVgBQAAAAVx/nbWVhcwAAAAAAAAABAAAAAAAAAAAAAAAAAAAAAAAAAo8AAAACc2lnIAAAAABDUlQgY3VydgAAAAAAAAQAAAAABQAKAA8AFAAZAB4AIwAoAC0AMgA3ADsAQABFAEoATwBUAFkAXgBjAGgAbQByAHcAfACBAIYAiwCQAJUAmgCfAKQAqQCuALIAtwC8AMEAxgDLANAA1QDbAOAA5QDrAPAA9gD7AQEBBwENARMBGQEfASUBKwEyATgBPgFFAUwBUgFZAWABZwFuAXUBfAGDAYsBkgGaAaEBqQGxAbkBwQHJAdEB2QHhAekB8gH6AgMCDAIUAh0CJgIvAjgCQQJLAlQCXQJnAnECegKEAo4CmAKiAqwCtgLBAssC1QLgAusC9QMAAwsDFgMhAy0DOANDA08DWgNmA3IDfgOKA5YDogOuA7oDxwPTA+AD7AP5BAYEEwQgBC0EOwRIBFUEYwRxBH4EjASaBKgEtgTEBNME4QTwBP4FDQUcBSsFOgVJBVgFZwV3BYYFlgWmBbUFxQXVBeUF9gYGBhYGJwY3BkgGWQZqBnsGjAadBq8GwAbRBuMG9QcHBxkHKwc9B08HYQd0B4YHmQesB78H0gflB/gICwgfCDIIRghaCG4IggiWCKoIvgjSCOcI+wkQCSUJOglPCWQJeQmPCaQJugnPCeUJ+woRCicKPQpUCmoKgQqYCq4KxQrcCvMLCwsiCzkLUQtpC4ALmAuwC8gL4Qv5DBIMKgxDDFwMdQyODKcMwAzZDPMNDQ0mDUANWg10DY4NqQ3DDd4N+A4TDi4OSQ5kDn8Omw62DtIO7g8JDyUPQQ9eD3oPlg+zD88P7BAJECYQQxBhEH4QmxC5ENcQ9RETETERTxFtEYwRqhHJEegSBxImEkUSZBKEEqMSwxLjEwMTIxNDE2MTgxOkE8UT5RQGFCcUSRRqFIsUrRTOFPAVEhU0FVYVeBWbFb0V4BYDFiYWSRZsFo8WshbWFvoXHRdBF2UXiReuF9IX9xgbGEAYZRiKGK8Y1Rj6GSAZRRlrGZEZtxndGgQaKhpRGncanhrFGuwbFBs7G2MbihuyG9ocAhwqHFIcexyjHMwc9R0eHUcdcB2ZHcMd7B4WHkAeah6UHr4e6R8THz4faR+UH78f6iAVIEEgbCCYIMQg8CEcIUghdSGhIc4h+yInIlUigiKvIt0jCiM4I2YjlCPCI/AkHyRNJHwkqyTaJQklOCVoJZclxyX3JicmVyaHJrcm6CcYJ0kneierJ9woDSg/KHEooijUKQYpOClrKZ0p0CoCKjUqaCqbKs8rAis2K2krnSvRLAUsOSxuLKIs1y0MLUEtdi2rLeEuFi5MLoIuty7uLyQvWi+RL8cv/jA1MGwwpDDbMRIxSjGCMbox8jIqMmMymzLUMw0zRjN/M7gz8TQrNGU0njTYNRM1TTWHNcI1/TY3NnI2rjbpNyQ3YDecN9c4FDhQOIw4yDkFOUI5fzm8Ofk6Njp0OrI67zstO2s7qjvoPCc8ZTykPOM9Ij1hPaE94D4gPmA+oD7gPyE/YT+iP+JAI0BkQKZA50EpQWpBrEHuQjBCckK1QvdDOkN9Q8BEA0RHRIpEzkUSRVVFmkXeRiJGZ0arRvBHNUd7R8BIBUhLSJFI10kdSWNJqUnwSjdKfUrESwxLU0uaS+JMKkxyTLpNAk1KTZNN3E4lTm5Ot08AT0lPk0/dUCdQcVC7UQZRUFGbUeZSMVJ8UsdTE1NfU6pT9lRCVI9U21UoVXVVwlYPVlxWqVb3V0RXklfgWC9YfVjLWRpZaVm4WgdaVlqmWvVbRVuVW+VcNVyGXNZdJ114XcleGl5sXr1fD19hX7NgBWBXYKpg/GFPYaJh9WJJYpxi8GNDY5dj62RAZJRk6WU9ZZJl52Y9ZpJm6Gc9Z5Nn6Wg/aJZo7GlDaZpp8WpIap9q92tPa6dr/2xXbK9tCG1gbbluEm5rbsRvHm94b9FwK3CGcOBxOnGVcfByS3KmcwFzXXO4dBR0cHTMdSh1hXXhdj52m3b4d1Z3s3gReG54zHkqeYl553pGeqV7BHtje8J8IXyBfOF9QX2hfgF+Yn7CfyN/hH/lgEeAqIEKgWuBzYIwgpKC9INXg7qEHYSAhOOFR4Wrhg6GcobXhzuHn4gEiGmIzokziZmJ/opkisqLMIuWi/yMY4zKjTGNmI3/jmaOzo82j56QBpBukNaRP5GokhGSepLjk02TtpQglIqU9JVflcmWNJaflwqXdZfgmEyYuJkkmZCZ/JpomtWbQpuvnByciZz3nWSd0p5Anq6fHZ+Ln/qgaaDYoUehtqImopajBqN2o+akVqTHpTilqaYapoum/adup+CoUqjEqTepqaocqo+rAqt1q+msXKzQrUStuK4trqGvFq+LsACwdbDqsWCx1rJLssKzOLOutCW0nLUTtYq2AbZ5tvC3aLfguFm40blKucK6O7q1uy67p7whvJu9Fb2Pvgq+hL7/v3q/9cBwwOzBZ8Hjwl/C28NYw9TEUcTOxUvFyMZGxsPHQce/yD3IvMk6ybnKOMq3yzbLtsw1zLXNNc21zjbOts83z7jQOdC60TzRvtI/0sHTRNPG1EnUy9VO1dHWVdbY11zX4Nhk2OjZbNnx2nba+9uA3AXcit0Q3ZbeHN6i3ynfr+A24L3hROHM4lPi2+Nj4+vkc+T85YTmDeaW5x/nqegy6LzpRunQ6lvq5etw6/vshu0R7ZzuKO6070DvzPBY8OXxcvH/8ozzGfOn9DT0wvVQ9d72bfb794r4Gfio+Tj5x/pX+uf7d/wH/Jj9Kf26/kv+3P9t////7gAOQWRvYmUAZMAAAAAB/9sAhAABAQEBAQEBAQEBAQEBAQEBAQEBAQEBAQEBAQEBAQEBAQEBAQEBAQEBAQEBAgICAgICAgICAgIDAwMDAwMDAwMDAQEBAQEBAQIBAQICAgECAgMDAwMDAwMDAwMDAwMDAwMDAwMDAwMDAwMDAwMDAwMDAwMDAwMDAwMDAwMDAwMDAwP/wAARCACRAooDAREAAhEBAxEB/8QA1QABAAMAAwEBAQEAAAAAAAAAAAcICQQGCgUDAQIBAQABBQEBAQAAAAAAAAAAAAAIBAUGBwkDAgEQAAAGAgACBQYICQcJCQAAAAABAgMEBQYHEQgS1RdXlyETFBZWCdQVlbY3dxjZMUEi0rPTVJR1UWFxMiO1NpHRUpMkNHaWGYFCY3S0JTVlOREBAAECAwIHCgsFBQcFAAAAAAECAxEEBdEGITESkpNUF7FSU3MUFTUWNgdBUWFxgZGyE7N0CKEy0rR1IkKCNFVicqJD05QYIzOjJGT/2gAMAwEAAhEDEQA/APafpLSWmLbTGorS01FrCys7LWGA2FjY2GA4pMn2E+ZilTImTZsyRUuSJUuVIcU4444pS1rUalGZmZgJP7AtE9yupfDjDupgDsC0T3K6l8OMO6mAOwLRPcrqXw4w7qYA7AtE9yupfDjDupgDsC0T3K6l8OMO6mAOwLRPcrqXw4w7qYA7AtE9yupfDjDupgDsC0T3K6l8OMO6mAOwLRPcrqXw4w7qYA7AtE9yupfDjDupgDsC0T3K6l8OMO6mAOwLRPcrqXw4w7qYA7AtE9yupfDjDupgDsC0T3K6l8OMO6mAOwLRPcrqXw4w7qYA7AtE9yupfDjDupgDsC0T3K6l8OMO6mAOwLRPcrqXw4w7qYA7AtE9yupfDjDupgDsC0T3K6l8OMO6mAOwLRPcrqXw4w7qYA7AtE9yupfDjDupgDsC0T3K6l8OMO6mAOwLRPcrqXw4w7qYA7AtE9yupfDjDupgDsC0T3K6l8OMO6mAOwLRPcrqXw4w7qYA7AtE9yupfDjDupgDsC0T3K6l8OMO6mAOwLRPcrqXw4w7qYA7AtE9yupfDjDupgDsC0T3K6l8OMO6mAOwLRPcrqXw4w7qYA7AtE9yupfDjDupgDsC0T3K6l8OMO6mAOwLRPcrqXw4w7qYA7AtE9yupfDjDupgDsC0T3K6l8OMO6mAOwLRPcrqXw4w7qYA7AtE9yupfDjDupgDsC0T3K6l8OMO6mAOwLRPcrqXw4w7qYA7AtE9yupfDjDupgDsC0T3K6l8OMO6mAOwLRPcrqXw4w7qYA7AtE9yupfDjDupgDsC0T3K6l8OMO6mAOwLRPcrqXw4w7qYA7AtE9yupfDjDupgDsC0T3K6l8OMO6mAOwLRPcrqXw4w7qYA7AtE9yupfDjDupgDsC0T3K6l8OMO6mAOwLRPcrqXw4w7qYA7AtE9yupfDjDupgDsC0T3K6l8OMO6mAOwLRPcrqXw4w7qYA7AtE9yupfDjDupgDsC0T3K6l8OMO6mAOwLRPcrqXw4w7qYA7AtE9yupfDjDupgDsC0T3K6l8OMO6mAOwLRPcrqXw4w7qYA7AtE9yupfDjDupgDsC0T3K6l8OMO6mAOwLRPcrqXw4w7qYA7AtE9yupfDjDupgDsC0T3K6l8OMO6mAOwLRPcrqXw4w7qYA7AtE9yupfDjDupgDsC0T3K6l8OMO6mAOwLRPcrqXw4w7qYA7AtE9yupfDjDupgDsC0T3K6l8OMO6mAOwLRPcrqXw4w7qYA7AtE9yupfDjDupgDsC0T3K6l8OMO6mAOwLRPcrqXw4w7qYA7AtE9yupfDjDupgDsC0T3K6l8OMO6mAZieoOCexWJf/p36g/4cp/8CexX+5/4S/8Arf8Ac/8AwwGnegvoJ0r9UuuPmdTAJaAAAAAAAAAAAAAAAAAAAAAAAAAAAAAAAAAAAAAAAAAAAAAAAAAAAAAAAAAAAAAAAAAAAAAAAAAAAAAAAAAAAAAAAAAAAAAAAAAAAAAAAAAAGS/3tADQ7QX0E6V+qXXHzOpgEtAAAAAAAAAAAAAAAAAAAAAAAAAAAAAAAAAAAAAAAAAAAAAAAAAAAAAAAAAAAAAAAAAAAAAAAAAAAAAAAAAAAAAAAAAAAAAAAAAAAAAAAAAADJf72gBodoL6CdK/VLrj5nUwCWgAAAAAAAAAAAAAAAAAAAAAAAAAAAAAAAAAAAAAAAAAAAAAAAAAAAAAAAAAAAAAAAAAAAAAAAAAAAAAAAAAAAAAAAAAAAAAAAAAAAAAAAAABkv97QA0O0F9BOlfql1x8zqYBLQCK96PPRtI7jkR3XWJDGq9hPMPsuKaeZeaxK3W0606g0rbdbWkjSojIyMuJDLNw6KLu/Oi27kRVbq1bKRMTGMTE5i3ExMTwTExwTErHvPVVRu1qNdEzFcZG/MTHBMTFqvCYn43k39dcy9rcm+XrX4WOt3mPRep5Xorf8KCXnLUfD3ufVtaa6hynJ3NaYcteR3q1qp2zUtdvYKUo/OveU1HIMzMRf3x0rS6d587FOWy8RF6f+XR8UfI3Pu/nc7OjZeZvXZn7vv6vjn5Ukes2Se0F38rT/hAxrzXpnV7HR0bF48sznhbnOq2nrNkntBd/K0/4QHmvTOr2Ojo2Hlmc8Lc51W09Zsk9oLv5Wn/AAgPNemdXsdHRsPLM54W5zqtp6zZJ7QXfytP+EB5r0zq9jo6Nh5ZnPC3OdVtPWbJPaC7+Vp/wgPNemdXsdHRsPLM54W5zqtp6zZJ7QXfytP+EB5r0zq9jo6Nh5ZnPC3OdVtPWbJPaC7+Vp/wgPNemdXsdHRsPLM54W5zqtp6zZJ7QXfytP8AhAea9M6vY6OjYeWZzwtznVbT1myT2gu/laf8IDzXpnV7HR0bDyzOeFuc6rawG3llmU9su1C9Zcg8mwMsSX/vNj5CTdzSSRf7T5CIi4F/MOg24mkaT6l6T/8AVy/o7L/8ujwVP+yi1vLns76w57/1rv8Am7v9+rv5+VvT7lNVk/q7cU60sLCfInZZjLrap82VLNqO3W27DSGkyHXEtJWptSzNJEaiUXEzIi4QC/W7GWt71aNYylu3bt28pfieRTTTjM125mZwiMeOI4eLDg45Sh/TlN6rRdQuX6q6q6r9uf7UzOEcmuIwxng+P5W14hCkcAAAAAAAAAAAAAAAAAAAAAAAAAAAAAAAAAAAAAAAAAAAAAAAAAAAAAAAAAAAAAAAAAAAAAAAAAAAAAAAAAAAAAMl/vaAGh2gvoJ0r9UuuPmdTAJaARPvv6DN0fVPsX5n3Ay73f8At5on9Xyf8xbWHen2Y1H8hmPwq3kVHYBAdp9p76MsM/g7X6V4Ra3y9qM746e5Dde7/oXLeLjuylqHUW1ihTtfWWM5tC/NrchwpMlCF8CV0FLZaWlK+ioj4H5eBjEb2cymXqinMXbduqYxiKqqaZw+PhmF+t5e/ejG1RXVEfFEz3Icv1YyT2evPkmf8HHj5z03rFjpKNr08izngbvNq2Hqxkns9efJM/4OHnPTesWOko2nkWc8Dd5tWw9WMk9nrz5Jn/Bw856b1ix0lG08izngbvNq2PkvsPxnXI8ll2O+0rousvtradbV/ouNuElaFeX8BkKyi5Rdoi5aqiq3PFMTjE/NMcCnqpqoqmiuJiqOOJ4JfkPp8tIKnld1gqrrlS27yXKXCirkyfjVTHn31soW64TLTRNtJUsz4JLj0S8nE/wiNeb96e9EZq5FmbFFqK6oiPu8cIiZwjGZxng+H4W4LG5OizYom5F2qvkxjPKwxnDh4I4nGyPli1nGoLqVAbu4k2LVzpUWQdoqQlqRGjOPtKWw60aHWzW2RKSfAzSZ8DI+Bl66b70d57uoWLWYmxXYru001RyMMYqqiJwmJxieHgn4/gnifGc3L0ajK3K7UXKblNFUxPKxwmIxjgnjZ0CR7UTAXdjS3917QZaT0nHti5U02kvwqW5fTEIT/wBqjHQbceum3uRpVdXBTGm2Jn5otUotbx0zVvHnaaeOc3dj/jl6LvdARG6/X+24LXDzcS9w2MkyLh0iZprRvpH/ADqNPE/xmZjm/wDrGvVZjeHSL9X71djM1fXcolLb3AURa0rP244qbtmPqoqbDCGyQQAAAAAAAAAAAAAAAAAAAAAAAAAAAAAAAAAAAAAAAAAAAAAAAAAAAAAAAAAAAAAAAAAAAAAAAAAAAAAAAAAAAAAyX+9oAaHaC+gnSv1S64+Z1MAloBE++/oM3R9U+xfmfcDLvd/7eaJ/V8n/ADFtYd6fZjUfyGY/CreRUdgEB2n2nvoywz+DtfpXhFrfL2ozvjp7kN17v+hct4uO7K7uld51OraC1p7CisbVywtzskPQ5EZlDaDhRYvmlJeI1GvpRzPiXk4GNG777iZverULWcy9+3apt2eRMVU1TMzyqqseD52yd3N5rGiZW5l7tquua7nKxiYj4IjDh+ZM32wcb9j7z9+gf5hhnY5qXXbHMrZF2gZPq93nUn2wcb9j7z9+gf5g7HNS67Y5lZ2gZPq93nUn2wcb9j7z9+gf5g7HNS67Y5lZ2gZPq93nUqaZ9kjGYZjkGTRozsNi5nrmNRX1ocdZSpttHQcW3+QpX5H4hufQNNr0fRsvpl2qK7lm3FM1RwRPDPDGPC15qmcp1DULudopmmm5XjETxw6iLwt7ays/+Nr/APyMT9A2IR5r/M3PGVd2Uj7P/s0f7sdxwsm/w3kH8Etv/QSB76X6Ty/j7f24eWc/yd3xdX2ZYwCaqOrDPNK/4w5jNjdJPSbhbBzGwc8nHo+jXczzCvwcC4Sltid2iZjyf3babh+9Xp2Xoj/Fapx/4YlGjUrX3u9uc+KnN3avqrnD9uD0F+6Q/wAG7n/4mxP+6rYc8f1e+mtF/K3/AMS2lZ7hfR2o+OtfZqa9iHjfwAAAAAAAAAAAAAAAAAAAAAAAAAAAAAAAAAAAAAAAAAAAAAAAAAAAAAAAAAAAAAAAAAAAAAAAAAAAAAAAAAAAAAyX+9oAaHaC+gnSv1S64+Z1MAloBE++/oM3R9U+xfmfcDLvd/7eaJ/V8n/MW1h3p9mNR/IZj8Kt5FR2AQHafae+jLDP4O1+leEWt8vajO+OnuQ3Xu/6Fy3i47spKGMrwAAAAAACSoe4tn18SNBiZteNRYjLceM16QlzzTDKSQ02S3W1uGltCSIuJnwIuAxm9ubuvmL1V+9kbE3a6pmZwwxmeGZ4JiOGV5t7wa1atxat5m7FFMYRGPFEcUcL/Fht7ZlpClV0/NLuRCmsORpTByEtpfjup6LrK1NNtr826gzSoiPgpJmR+QzH1l9z92MrfozOXyVim/RVE0zhjhMcUxjMxjHHHxTwvy7r+s37dVm7mbk26owmMeOJ444PjRwMkWdjbd1/R27ui0WnyvbGymCyo/IfRZuprz/D+VK1OoLj/Kn+kTRyOYx3P0TKR8Gm2Kp+m1TEdyfrR6zVrDXtRvT8OcuxH0VzM92Pqbo+6Q/wbuf/AImxP+6rYQO/V76a0X8rf/EtpNe4X0dqPjrX2amvYh438AAAAAIJ3tzMaP5aqBjItzZ/U4hHnE+VPWLTKs8jv3Y5IJ1qjxyqYm3FiTbjqEuOoZ9HYNxJvONpPpAKYU/vfuTuwtIMO1mbPxCps5BMQMuynXVlHxiUlSyS1Jbk1Uq3svRHUGTnTOKXQbPivo8D4Be3I94avxrUFlviRlcC21VWY6eVO5bjRqySDKoiWls5tcVOUtywJLiuiaGiUtKiNJkRpMiDuOE5hRbCwzEc/wAWkuzcZzjGKDMMcmPRn4T0uiyaqiXVRJdhykNSYjr9fNbUppxKXGzPoqIjIyAdnAAAAAAEKbg5g9X6Jla8h7IuZtQ/tLMoOBYamJTWlsU/JbFxhqLDkKrY0gq9la5KOLz3QaTx8p+QBNYCv28Oanl85b2YLm6to4/hEizYKXXVD7dpd5JPhHKKF6fDxbGq+5yOTXplcUKkIimyk0L4qLoL4BytH8zmheZGun2elNmUOdIquidrXxUWVRkFU24+/GYkWmL5FAqMkroct6M4TDz0RDT/AETNtSi8oCdwAAAAAAAAAAAAAAAAAAAAAAAAAAAAAAAAAAAAAAAAAAAAAAAAAAAAAAAAAAAAABkv97QA0O0F9BOlfql1x8zqYBLQDq+b4wzm2F5fhkiU7Aj5di9/jD85ltLz0Nm+qpdU7KaaWpKHXY6JZrSkzIlGXAzF10LVK9D1vJ61boi5cyeatX4pmcIqm1cpuRTMxwxEzThMxxYqLUslTqWnZjTq6ppozFiu3NUcMxFdM0zMR8Mxjiys/wCkhhvfPk3/ACnVdbCV3/l7rX+i5Xp7n/TaO7BdO/1G90VP8Sy2I8juMYpjVPjqM7vZqKiGmImWurr2FPkla1dM2SedJsz6f4OkY1jrHv01TVtTvalVkMvRN6vlcnl1zh8mOEY/UzLIe7TJZHJ28nGau1Rbpwx5NMY/RjLsf2Psb9sbv9wgfnC29sep9Tsc6tWdn+T6xc5tJ9j7G/bG7/cIH5wdsep9Tsc6s7P8n1i5zaT7H2N+2N3+4QPzg7Y9T6nY51Z2f5PrFzm0n2Psb9sbv9wgfnB2x6n1Oxzqzs/yfWLnNpPsfY37Y3f7hA/ODtj1PqdjnVnZ/k+sXObSfY+xv2xu/wBwgfnB2x6n1Oxzqzs/yfWLnNpPsfY37Y3f7hA/ODtj1PqdjnVnZ/k+sXObSfY+xv2xu/3CB+cHbHqfU7HOrOz/ACfWLnNpPsfY37Y3f7hA/ODtj1PqdjnVnZ/k+sXObSqrce6dwu1vL+6Tt/JYqr+/ur96OnFqt0mXrmyk2LjPnTtGzdJg5HQJRpIzSkvIX4BtjJ/q31vKZDL5GdHytcZfL27UT9/XGMW6KaInDkThjhjhjPDLBsx7idOv5m7mY1C9TN27XXMfd0zhNdU1YY8rhwxwXB5WOVin5XafLqmpy6yy1OW2VZYvv2NZFrDhnWRZMZtppuNJlE6TpSjMzMy4cCIiGnPet71s57085k85nMnayc5O1XREUV1V8rl1U1TMzVTThhyWwNx9x8vuTl8xYsZivMRmK6apmqmKcOTExhGEzjjitWNTs5AAAAfNubaHQ09te2K1N19LWzractCemtEOuiuzJS0I4l01JYZUZFxLiYDG7kC1RX82t9mvPxzDVMHOMmzLMLui0xiORsovMX1jhGLWL0WN8S1lgT0A7CNZ+djR3FM9OOuI5KSo5Et1aQ2DybE8YzTH7LFMux6mybGbiG7AtKC9rYlpUT4TzamXI0qBMadjOtKbUZcDT5PxcAGe3MzonWnLp7uvmJ1rqikeocTjYXld0iHJsp9tJXYXdpFly3Xp1k/IlOkhPQZbI1fkMtIT5TIzMJF1fu3XnLzyA8vu1dn3CqjFce5cNHE56Oz6XaWtjK1vjLNbSUkAltnPt7OQZIab6SEJ8rji22kOOJCtbfvDOauwpi2dS+7u2bM0t6OqyaupGZtRs3m4+lBvlkUbD04m7YqirhKJ9CG2n47jRGpMo0K84kLYUXOzq3OOVfN+ajXUewyegwPGsiuL3DprjNFk1Zd4zATPscTuSNNlHrbMmXG1IdT6Qw406h1tS0KIwE06B21H3vprXm4ItG9jcbYGOx8hYopE9Fm/WNSHX20RnZ7cWE3JcImeJqJpBcT4cPJxMIt1fzUQNmcy2+OXGPhkyomaMg49MmZW9dsy42ResEWvlNNxqhFaw7X+jJncFGuQ70jR5C8vkCuezfeHZDL2vlOlOUrl8ybmdzDAXlRdgZBW3rGL4Hi1izIcjSan4+frrCPYT2JTDkdRuOQmjfbcJlcjzThEFBObbmpnb0zblFwDYuo8u0JurX3NNrezyPXGWrcsmZ2O3ljAYrspxXJW62tiXlMqXDUy6rzTZturQlBvJ6S0h6OAHnmuV8v+sveJ8xF57wjESsIWfysee5c8t2Hi8zLdTliLDL0GTFfgFHt6d1yJCXWREPvxXY1c9HlHIVGW50lBfnXnKNyvZTvDWfNryrZtjOF1eNQL6ryWj0S5jS8C2Emxjxo0aruYVQ89RY8iAychFhDZhIkPvGwszjSYhOKCivNbtLmOP3hvK1aK5WOjkeE2O163UOLduGCK7b8fJu2hpyX47Kv9B1r06pKZvoVol18ul5nj0y4gNSsv5smNH8u8beHNJr+VpTInp8yoPU1Vl1BtC/mXarKyYx+mob7H01tHdT72ogpnnwNlqEypZPLT5pagFR3/AHhnNXVUy9nX3u7tm1+lm4/xlIumszafzevx8kE+vIpmHrxNmxbitQkqfcQ60xHaaPpLlEhJuKC71TzV62zHliyzml1w6/mOG4xrrN88XTqWmnuvS8Ex+yu7bEbVDqJiaa8adrTjuGaX2kmtLrZvMqQtYUSr/eh7J2pS1Vtyy8nGwt0t19NXW2yZsS+fhUGKWk2Mc9eEU9zFxSeWTZLGgONKf8202tl1Rtojv/1yCze4OcfMcX3BZ6E0Zyy7L39s3HqSqyHJz+Mq7VmvaWruyS5VLVsPLYMqsluS2kPEhaGSiuPsrYafceakojh+OnedyRlG3YPL5v3SWXctO6b2tnW2IUGRX1RmuHZvFr1SnJLGJbAoo0Gst7BmDEW8pCWEscWnGkvLdSlKw4nM7z2QdKbDpNEao1VlPMPzBX1em3LXWHyDgxcbp3mjdj2OV3TVdcuV6nWOEkmExjJEMvPSHozbjC3QrxmHvSsz0Xjdynmd5Sc91NnxQIthgVS3k0O4w3ZJHf1Fdc1lZm0amchVN7QU9uc92ObcxC2oy0rcYcdYbWF89s80ettHaTpN2bIXYQK7I6/HTx/FaRlN3lWTZLk1Wmzq8OxiCaoCLW5kIJzgpao7KW2luuKbbSoyCrVtzy8x+F0Tuytle762ri2l4ifT7PK6rZ+DZTsCmoCUpxy4u9PsQa3IaZMOE049LTKlMtRCSXnXUpPpkF/NZ7JwzcGBYtszXt0xkGG5jVNW9FasJcb89HWtxh+PJjvJQ/CsK+Yy5HlR3UpdjyWltOJStCiIO9AAAAAAAAAAAAAAAAAAAAAAAAAAAAAAAAAAAAAAAAAAAAAADJf72gBodoL6CdK/VLrj5nUwCWgHwsoyGuxHGsiyy3N4qnGKK2yG0OM15+QVdSwJFlNOOz0keeeKNGV0E8S6SuBcSFfpWnZnWNTy2kZPk+V5q/bs0cqcI5d2uKKcZ+COVVGM/BClzubs6fk72fzGP3Fi1XcqwjGeTRTNU4R8M4ROEKE/9T/li/0thf8AKbHXA39/4t+9H4tO/wC4n/ptW9tW5f8A+voo/jTfjvODpvJqStv66TkaYNpGTKjJk0TjUgm1KUkidbRIdSlXFJ+QlGMG1H3Ob6aXnrun5mjLTftVcmrk3YmMfkmYjuMlynvA3ezuWozVmb33VcYxjRhP08Mvtfak1R+13nyK9+tFF2V7295Y6SNip9dtC767zJ2n2pNUftd58ivfrQ7K97e8sdJGw9dtC767zJ2n2pNUftd58ivfrQ7K97e8sdJGw9dtC767zJ2n2pNUftd58ivfrQ7K97e8sdJGw9dtC767zJ2n2pNUftd58ivfrQ7K97e8sdJGw9dtC767zJ2n2pNUftd58ivfrQ7K97e8sdJGw9dtC767zJ2n2pNUftd58ivfrQ7K97e8sdJGw9dtC767zJ2n2pNUftd58ivfrQ7K97e8sdJGw9dtC767zJ2n2pNUftd58ivfrQ7K97e8sdJGw9dtC767zJ2qiZX73XlSw/Jr/FbODtd+xxy3sKWc9BxCodhuS62S5EkKiuSMqjPOMG60fRNTaDMvwkQ3DpP6PvezrOl5fVsrXpNOWzNmi7TFWYuRVFNdMVRyoixVEThPDETMfKwLPe/vcbIZy7kb1Oem7ZuVUVTTaowxpmYnDG7E4Yx8MQtLyxc2+rebOnyu81dEy+NBw+yrqq1VllNEqFuS7OK/LYKD6Ha2rchKGY5+c4qQpBqT5OCiMaq96Puh3r90ecymR3qrydV/OWq7lv7i5VcwpoqimeVyrduYxmeDgmJwnh4Gbbl7+aJv3l7+Z0SnMU2svXTTV97RFHDVEzHJwqqx4I4eLDg+NaAasZqAAAA6/llH6zYrk2N+f9G9YcfuaP0no9L0f42rpMDz/R8vS816R0uH4+ADLz3SefIrtJ5Lyt5aZUm2+WzO81x7I8SmeaZnppbrK7W9auoCDJt2wqyyC0mxlvESugaWjUZNvx+kGsYCivPRlmL5fyP80EzFMjo8liVWHZRjlpJorSFas11/SWMSJcUs5yC++iJa1kkug+w4aXWzMukkuJcQzs5gE1kjR/uZIGeHH7HJc3QfaC3ZrJNA5LRrrW7VAm86aTYKAqtkWyXlOKShMZT3S/JNRkG/oDztVUeEh3321frphfZexjct9qPWNMroWM1ao87dzH4s9GSpho49k1ON5DBkhphDfnCIktcA1Y93g609yTct62nG3UlriA0am1pWknWJs9l5szSZkTjLzakKL8KVJMj8pAKYctU+RO94x7ySVi0hmZZs4ri8OrWwtLiCv6uogVxxVH0XEk9EuoimXEmR9FxCiMvJwAd79zU3jh8oCpVepl3MJe0s8Xst51ZuXKsqTLiFDTeLe4y/Syxg4C0k4fHg4av6ylcQ6R71djCy2ZyFSn0Qi2GrmQxpiscT5hNi5hacgxdy9Q8RGUl2E1eLrja6RG2ha3OjwNauIbMAKU4Du3l550rjeGj8n14xaWGmszlYvk+AbexvHZU2wbgurrizKmpH5NwpmtTdxn2Y8pJolR+jHdV5hb7aCDOfmY0nhHu+9+cuO5OVm5ssBnbd25T65zjSDV5ZWeNZri1nLjKuJUCrnyZlg1XxH5iWVsqXIjwps2G5DRHNokqCfua//wDTP3en8N2p/clkA4/PmmBI51/dxw9gHH7K3M7zl0m7NaCon8+bLFvVpFmhxJRXJB3HxaiKl81EfnHUoIiU70g13UklEaVESkqI0qSoiMlEZcDIyPyGRkAwA5eEVUfQfvloeCG4WoI1pzDJ18iN5o8fbd7PNit26aFbJebVCTVtVSWvKZ+hJjGZmZmZho37tjHabG+SLl/ZpoEeCm2xBzIrNTLaEOT7m9t7KfYz5biUpXIkOuu9ElLNSktIQ2R9FCSIK/p3ZzY82fMTvXUnLrsXEOXTVXLpkicJyjZVjgFXszPcozVuTZV82DBxrKJLeOtUjdhQzEINKWHW2W0um88b6WY4Vq5gsc5hcC5w/d7Y5vLfeEbyc7ZXpmJX1VruBrDYcSFNtcSjZCnJKLGpkzHCx+cpxmNFW2tK3/RF9IjPzvALE8iyID/PB7yOZkpIXslnZOMw61c3pqsWtb+kZOmnRAW6hCirnYMSr86lHFJJbi8fISDMO4e+EYxR3kZz93IUwjuI2Va5cwVUkkHITlC8xqmZvxcaiNSZasKct+l0eBmx5zj5OICp/PBX5ncbR91zUVuwEaqpp8GOzjew5+LVGbUeLbLXWYAmis5+LZBJjY/az2nzhohlMWgmjdccbPihZALqTeWPn0mw5cOf7yViTBlxn402PK5NNJuRpER9pbUlmQ25eG2th1lakrJXkNJmR+QBK3Ity4xuV3REbW1btaLuOll5Rd5dR5dX0jFFWJrb5itSdbXRouT5bGkRW50J+R59EvouLkq/ILhxUFxwAAAAAAAAAAAAAAAAAAAAAAAAAAAAAAAAAAAAAAAAAAAAABkv97QA0O0F9BOlfql1x8zqYBLQCJ99/QZuj6p9i/M+4GXe7/280T+r5P8AmLaw70+zGo/kMx+FW8io7AIDtPtPfRlhn8Ha/SvCLW+XtRnfHT3Ibr3f9C5bxcd2UlDGV4AAAAAAB9dnH76S02/HpLeQw6kltPM1sx1pxB/gW24hlSFpP+UjMhSV6hkLdc27l+zTXE8MTXTEx88TKopymarpiqi1cmmeKYpmY7j+P0F7FZXIlUttGYaLpOvv10xlltPEi6S3HGUoQXE+HEzC3qGQu1xbtX7NVyeKIrpmZ+aInEryuat0zXXbuRRHHM0zEfXg+SKtTsAd5fTNtX6wct/vyaOhG4nsVpP9Oy/4VKLO8vtDnvzd37dT0Je5Zr/i7VG1G1J6LsjIcUnPcfIZql1lu8jpF+JSGFISZfzDnd+trMeU726TVH7tOWv0x/hrtxP7cZ+lK39Olr7nQ89E8c3rUz9NNc9zBtMISpGAAAAACh/MxyIYjvTM6rcuA55lfL/zBUUdEWBtjXp9CRbRmWvMxYuX07EyqVkDMdgiZJaZcZ5yL/s7y3WEoaQEDTuTz3hWbxCw7YnvC32cBeadh2L2DasoMdzKfWmg2TineUrWN2zbs6OZpdccsJHQNRmaXvKRhYCByEarw3lR2Jyt6snTcQi7JpJULIthXUQssyS2vZaYrbuS3sVE3Ho9jISzFS2iNHcgxmkeRtKfyjUHfb/lF11n3KrhnKrs9x/LMcxDXWBYSxlMCM3QXTNzgONV+P1mb0DTr103Q2/TgqeQytyY0Tby47xvsrcS4FNGuSDnvq6M9V0fvDblnT5tKq2X52t66XsmBjymfR0VsfKlzl5L52LEQlhtbV3GQREakIbL+zAXc0Tylag0DpOw0ZjFQ9cYzk0K5Yz+yyBbcq62BMySvVVX8/I5LDcdtw5tar0ZDTaUNMRkpQkuPSUoKI4V7vLmv0u1a610LzzXWB6CtbOdLjY/Y6/qMhzHGYVo+9InRMftJrik1s5brhrVKrZFQTr7i3zZS4aumFjeVXkKxvlR23tLY2J7AuMkp9k4viFH6vZDWPSL6Fb0UOEvJMquc0fyCYvI7TM8jbl2T6E18JuM5MNtvihCeIRpn3u/9kYltjLNy8l3MPY8ud1sWa7ZbBwafjdfl+urq3kOuvv3UCisWpVXBkKkPvOk1IgzfMuyHfRnIzSvMgOkS/dcZPnGTa+23uTmdyXYm9cU2ZhmbWuY2uIk9jqsTw+c9aM61xDFImUU1fitfYWbpPvTkpeSTqCU1Da6bpOBr8Azp5oPdz4NvvPY+6tfbFzPl33uw0wxI2VrtbyDuURo6YsaXd1cC1xyxduYkVpthuZEsoTy46Sbe88SGfNB1bQfuysZ1ztKl3lvHdWxuaHbOLrYfxXINhvTkVVHOhqcKstkVtvkOYXE+zpmfN+hHIs3I0V5Hn0Mk6llTITzzV8osTmPn6yzbHNjXmnNxabuZdzrvZVFTwMiOtOxOGqfAuMdsJNexeV7rle0tLapLRJPppV023XW1hw8z5PGd28vDGl+ZbZttuDMotxOyWDuevxei15klHkip81+ktsaoKVdhTUhU9ZKKEthJuMymCWaiSpZGgKtSOSDnvuKNWq8g94bcytPra+K5T8TW9dH2TZY8bJx3q2XlSZyclU7NiLWw6t67koUR9JaHS/swFy6DlF11gPKrmfKrrBx/E8cy/XWe4S/lM+M3f3T1zn2NWGP2eb37TT1K3fW/TnJeWyhyG0bbKI7JsMobS2Ej8vWo+wbSmt9PesHrV2e41Fx31i+KviP439Gcec9M+KPjK49A6fnuHm/Sn+HD+sYCrWwuRrJUbky7fHLLzF5Xyz57sg4StlxIuFY7s/BcxkQY81lFtIwvJptbAYvVuS/OekLcfbbcU8tppt191wwjmP7tCZN3JqHmDznmQzPZO4MBz6ozLMMpyzFIZw8tqqI4L1VhOI47U5FWU2scchz25chCGW7IicmH+TwR+WHxOY3SWs9xc26pXL5zHyeX3nlwzCoVhkTVfST51dmmGrgwSrWMgiTE19TdTI1XJiks2HbDhAQ2mTDWllpbIUt94Py3bMxXl6yHZfNnzT2u8ttSLPF8S0PgVLjlVhGIV+QWeW465k9nBxmiRDZvrx/BK2a2pxqBG8z0/7Q31qaUgNmdhcsevuYTl6xDTe5aaapisxzEHY86pmNwMlw/LaOhYr0XeOWpszGYdtAN19ritp9h1pxbbjbjalJMKzTeRjmZvsbLWGWe8P2rcaZXDeppuNQ9XYZU7Gs8cdiyIiqi13KVxOye29IYkqbkuS2JCJTP9mtvhw6IXv05p7X+htd47q3WVG1QYljUZTMSMS1SJk2U+tT8+3tpzheesLe0lLU6+8v+stXBJJQlKEhJwAAAAAAAAAAAAAAAAAAAAAAAAAAAAAAAAAAAAAAAAAAAAAAyX+9oAaHaC+gnSv1S64+Z1MAloBE++/oM3R9U+xfmfcDLvd/7eaJ/V8n/MW1h3p9mNR/IZj8Kt5FR2AQHafae+jLDP4O1+leEWt8vajO+OnuQ3Xu/wChct4uO7K3urNGWu0qexuIF7X1TdfZHWrZmRpLy3FlFjyvOpUyZJJHRkEXA/LxIae3q37ym6uct5PMWLl2q5a5cTTNMREcqacOH5mf6Juzf1vL15i1doopor5OExM/BE/B86TvsfZJ7Y0n7hP/ADhi/bHpnU7/ADqF67P851i3zaj7H2Se2NJ+4T/zg7Y9M6nf51B2f5zrFvm1H2Psk9saT9wn/nB2x6Z1O/zqDs/znWLfNqVizDG38Pya5xmTJamP00xUN2UwhbbTykoQvptoc/LSkyX+MbR0fUqNY0uzqdqmaLd6jlRTPDMfJOHAwvUMnVp+duZKuqKqrdWGMcUuti5KJtVUNoaqqxppCG226+E2222kkIbQiM2lCEISRJShKS4EReQiEJM5VVXm7tVUzNU3KpmZ45nlTwykdYiKbFFNMYUxRHccHKm0O4xkbbqEONrordK21pJaFpVXyCNKkqI0qSZfhIxUaTVVTqmWqpmYqjMW8Jjj/fh5Z6IqyV6mqMYm1V9mWMYmmjswR25BVZ752NXp48Zey8nYUZf91C8gmE4v+htvio/5iHQDc+/GV3B03MT/AHNLsT9MWacI+meBF7Xrc3t585aj+9nLkf8AyS9FfujUpRhe5UISSUIyTEkpSRcCSlNTbElJF+IiIhzg/V/M1a3otU8Mzlsx+JbS19wkRGnajEcX31r7NTX0Q7b/AAAAAAAAAAAAAAAAAAAAAAAAAAAAAAAAAFO+Zvke0pzSzaLJcvTk+HbFxdhcbHtna4t2sbzWDENS3Wq+TOdg2ESzr2JDiltIfZU7H844TDjPnXDUEW6i92dpHXOfU+082y7a/MBnuNPtSsWtd15cnKYGMzI6jVFn1dS1BhNPzo6uittU1cttl5tt1lDTqErINFgAAAAAAAAAAAAAAAAAAAAAAAAAAAAAAAAAAAAAAAAAAAAAAAAABkv97QA0O0F9BOlfql1x8zqYBLQCJ99/QZuj6p9i/M+4GXe7/wBvNE/q+T/mLaw70+zGo/kMx+FW8io7AIDtPtPfRlhn8Ha/SvCLW+XtRnfHT3Ibr3f9C5bxcd2U943sHNMQivwsayKwp4kmR6U+xDW2lDsjzaGfOqJbaz6fm20l/QQwDUt3tE1i7Tf1PLW712mnkxNUTjEYzOHH8cyynJ6tqOn0Tbyd6u3bqnGYj4Z4sXYu23a/tzd/61n9QLd6j7pdQsfVO1V+smu9Zufs2Hbbtf25u/8AWs/qA9R90uoWPqnaesmu9Zufs2Hbbtf25u/9az+oD1H3S6hY+qdp6ya71m5+zYju1tbC7sJdtbS3Z1jOdN+XLfMjdfdMiSbjhpJJGoySX4hkWVyuXyOXoymUoi3lrcYU0xxRHxQtN+/dzN2q/fqmq9VOMzPHMuAKh4tVqfeGqnKmsWvM6uMtUCJ048r0hmSwsmEEtl9pTPFDraiMjLylxLyGZeURQzu4u9lObuxTkrtVP3lWE04TExjOExOPDEt5ZfeXQ6rFEzmKKZ5McE4xMcHFMYcbh5Pu3Vp43fJYzGrlvuU9iyxFiefekyH3ojrTLLLZMl0luOLIvKZJLjxMyIjMe2l7j71RqWXm5krtFuL1EzVVhEREVRMzM48URHz/ABcLzzu8mieR3YpzFFVU26oiIxmZmYmIiIwZaiVLSLEnJK/0rmE2zNUni3W5tmK0nw4kUiTeTo7RH+IuLJuH/SX+Scem5j7r3d6RYj967kctH0U2qZn9vJRvzlrl71Z+5PFRmbv1zXVHcxb6+6Q/wbuf/ibE/wC6rYc/P1e+mtF/K3/xLaUvuF9Haj4619mpr2IeN/AAAAAAAAAAAAAAAAAAAAAAAAAAAAAAAAAAAAAAAAAAAAAAAAAAAAAAAAAAAAAAAAAAAAAAAAAAAAAAAAAAAAADJf72gBodoL6CdK/VLrj5nUwCWgET77+gzdH1T7F+Z9wMu93/ALeaJ/V8n/MW1h3p9mNR/IZj8Kt5FR2AQHafae+jLDP4O1+leEWt8vajO+OnuQ3Xu/6Fy3i47spKGMrwAAAAAAAAAADILI670XZG2Zqk8HLLZeYrSfDhxjxrycw0X8vkeJ0/6D/yzF03M/e7taRYif7NrS8vH01WqZn9nJaBztrkaxn7k8decu/VFdUR+3Ft57pD/Bu5/wDibE/7qthBr9XvprRfyt/8S2kn7hfR2o+OtfZqa9iHjfwAAAAAAAAAAAAAAAAAAAAAAAAAAAAAAAAAAAAAAAAAAAAAAAAAAAAAAAAAAAAAAAAAAAAAAAAAAAAAAAAAAAAAyX+9oAaHaC+gnSv1S64+Z1MAloB+MmNHmR5EOZHZlxJbLsaVFktNvx5Md9tTT8eQw6lTTzLzSjStCiNKkmZGXAfdq7csXKb1mqqi9RVFVNVMzE0zE4xMTHDExPDExwxL5roouUTbuRFVuqJiYmMYmJ4JiYngmJjjh0Psj1T3Y69/5Lxvq0X/ANb97P8AVNR/7m9/GtfmDQupZTobf8L78bDsRhR2osPFsciRWE9BmNGo6xiOygjMyQ0y1FQ22kjP8BERC33dZ1e/cm7ezWZru1TjNVV2uZmflmasZVVGn5C3RFFuxZpojiiKKYiPmiIfv6sY37PUfyTA+Djz856l1i/0le19+RZPwNrm07D1Yxv2eo/kmB8HDznqXWL/AEle08iyfgbXNp2Hqxjfs9R/JMD4OHnPUusX+kr2nkWT8Da5tOw9WMb9nqP5JgfBw856l1i/0le08iyfgbXNp2Hqxjfs9R/JMD4OHnPUusX+kr2nkWT8Da5tOw9WMb9nqP5JgfBw856l1i/0le08iyfgbXNp2Hqxjfs9R/JMD4OHnPUusX+kr2nkWT8Da5tOw9WMb9nqP5JgfBw856l1i/0le08iyfgbXNp2Hqxjfs9R/JMD4OHnPUusX+kr2nkWT8Da5tOx117VOrpDz0iRrbAX5Eh1x+Q+9h2POvPvvLU68886uuUt111xRqUpRmalGZn5RcqN7N6bdFNu3qeoU26YiIiMxeiIiIwiIiK8IiI4IiOCIUdWhaJXVNdeTys1zOMzNq3MzM8czPJ4Zl2GixbGcXakMYzjtFjrMtxDspmiqK+oakutpNCHJDdfHjoecQgzIjURmReQW7P6rqmq1U16nmcxma6Iwpm7cruTTE8cRNczhE/Iq8rkclkqZpyVm1ZpqnGYoopoiZ+XkxGL7ooFUAAAAAAAAAAAAAAAAAAAAAAAAAAAAAAAAAAAAAAAAAAAAAAAAAAAAAAAAAAAAAAAAAAAAAAAAAAAAAAAAAAAAAMl/vaAGh2gvoJ0r9UuuPmdTAJaAAAAAAAAAAAAAAAAAAAAAAAAAAAAAAAAAAAAAAAAAAAAAAAAAAAAAAAAAAAAAAAAAAAAAAAAAAAAAAAAAAAAAAAAAAAAAAAAAAAAAAAAAAGS/wB7QA0O0F9BOlfql1x8zqYBLQAAAAAAAAAAAAAAAAAAAAAAAAAAAAAAAAAAAAAAAAAAAAAAAAAAAAAAAAAAAAAAAAAAAAAAAAAAAAAAAAAAAAAAAAAAAAAAAAAAAAAAAAAAyX+9oAaHaC+gnSv1S64+Z1MAloAAAAAAAAAAAAAAAAAAAAAAAAAAAAAAAAAAAAAAAAAAAAAAAAAAAAAAAAAAAAAAAAAAAAAAAAAAAAAAAAAAAAAAAAAAAAAAAAAAAAAAAAAAZL/e0AMlwAAAAAAAAAAAAAAAAAAAAAAAAAAAAAAAAAAAAAAAAAAAAAAAAAAAAAAAAAAAAAAAAAAAAAAAAAAAAAAAAAAAAAAAAAAAAAAAAAAAAAAAAAAAAH//2Q==;" vertex="1" parent="1">
          <mxGeometry x="400" y="200" width="120" height="80" as="geometry" relative="0"/>
        </mxCell>
        <mxCell id="3" value="Angular Dashboard" style="shape=image;image=data:image/jpeg;base64,/9j/4AAQSkZJRgABAgEASABIAAD/7QAsUGhvdG9zaG9wIDMuMAA4QklNA+0AAAAAABAASAAAAAEAAQBIAAAAAQAB/+E1ymh0dHA6Ly9ucy5hZG9iZS5jb20veGFwLzEuMC8APD94cGFja2V0IGJlZ2luPSLvu78iIGlkPSJXNU0wTXBDZWhpSHpyZVN6TlRjemtjOWQiPz4KPHg6eG1wbWV0YSB4bWxuczp4PSJhZG9iZTpuczptZXRhLyIgeDp4bXB0az0iQWRvYmUgWE1QIENvcmUgNS42LWMxNDUgNzkuMTYzNDk5LCAyMDE4LzA4LzEzLTE2OjQwOjIyICAgICAgICAiPgogICA8cmRmOlJERiB4bWxuczpyZGY9Imh0dHA6Ly93d3cudzMub3JnLzE5OTkvMDIvMjItcmRmLXN5bnRheC1ucyMiPgogICAgICA8cmRmOkRlc2NyaXB0aW9uIHJkZjphYm91dD0iIgogICAgICAgICAgICB4bWxuczpkYz0iaHR0cDovL3B1cmwub3JnL2RjL2VsZW1lbnRzLzEuMS8iCiAgICAgICAgICAgIHhtbG5zOnhtcD0iaHR0cDovL25zLmFkb2JlLmNvbS94YXAvMS4wLyIKICAgICAgICAgICAgeG1sbnM6eG1wR0ltZz0iaHR0cDovL25zLmFkb2JlLmNvbS94YXAvMS4wL2cvaW1nLyIKICAgICAgICAgICAgeG1sbnM6eG1wTU09Imh0dHA6Ly9ucy5hZG9iZS5jb20veGFwLzEuMC9tbS8iCiAgICAgICAgICAgIHhtbG5zOnN0UmVmPSJodHRwOi8vbnMuYWRvYmUuY29tL3hhcC8xLjAvc1R5cGUvUmVzb3VyY2VSZWYjIgogICAgICAgICAgICB4bWxuczpzdEV2dD0iaHR0cDovL25zLmFkb2JlLmNvbS94YXAvMS4wL3NUeXBlL1Jlc291cmNlRXZlbnQjIgogICAgICAgICAgICB4bWxuczppbGx1c3RyYXRvcj0iaHR0cDovL25zLmFkb2JlLmNvbS9pbGx1c3RyYXRvci8xLjAvIgogICAgICAgICAgICB4bWxuczpwZGY9Imh0dHA6Ly9ucy5hZG9iZS5jb20vcGRmLzEuMy8iPgogICAgICAgICA8ZGM6Zm9ybWF0PmltYWdlL2pwZWc8L2RjOmZvcm1hdD4KICAgICAgICAgPGRjOnRpdGxlPgogICAgICAgICAgICA8cmRmOkFsdD4KICAgICAgICAgICAgICAgPHJkZjpsaSB4bWw6bGFuZz0ieC1kZWZhdWx0Ij5Qcm9kdWN0SWNvbkNhcmRzPC9yZGY6bGk+CiAgICAgICAgICAgIDwvcmRmOkFsdD4KICAgICAgICAgPC9kYzp0aXRsZT4KICAgICAgICAgPHhtcDpDcmVhdG9yVG9vbD5BZG9iZSBJbGx1c3RyYXRvciBDQyAyMy4xIChNYWNpbnRvc2gpPC94bXA6Q3JlYXRvclRvb2w+CiAgICAgICAgIDx4bXA6Q3JlYXRlRGF0ZT4yMDE5LTEwLTIyVDExOjM0OjA3LTA1OjAwPC94bXA6Q3JlYXRlRGF0ZT4KICAgICAgICAgPHhtcDpNb2RpZnlEYXRlPjIwMTktMTAtMjJUMTY6MzQ6MDdaPC94bXA6TW9kaWZ5RGF0ZT4KICAgICAgICAgPHhtcDpNZXRhZGF0YURhdGU+MjAxOS0xMC0yMlQxMTozNDowNy0wNTowMDwveG1wOk1ldGFkYXRhRGF0ZT4KICAgICAgICAgPHhtcDpUaHVtYm5haWxzPgogICAgICAgICAgICA8cmRmOkFsdD4KICAgICAgICAgICAgICAgPHJkZjpsaSByZGY6cGFyc2VUeXBlPSJSZXNvdXJjZSI+CiAgICAgICAgICAgICAgICAgIDx4bXBHSW1nOndpZHRoPjEyPC94bXBHSW1nOndpZHRoPgogICAgICAgICAgICAgICAgICA8eG1wR0ltZzpoZWlnaHQ+MjU2PC94bXBHSW1nOmhlaWdodD4KICAgICAgICAgICAgICAgICAgPHhtcEdJbWc6Zm9ybWF0PkpQRUc8L3htcEdJbWc6Zm9ybWF0PgogICAgICAgICAgICAgICAgICA8eG1wR0ltZzppbWFnZT4vOWovNEFBUVNrWkpSZ0FCQWdFQVNBQklBQUQvN1FBc1VHaHZkRzl6YUc5d0lETXVNQUE0UWtsTkErMEFBQUFBQUJBQVNBQUFBQUVBJiN4QTtBUUJJQUFBQUFRQUIvK0lNV0VsRFExOVFVazlHU1V4RkFBRUJBQUFNU0V4cGJtOENFQUFBYlc1MGNsSkhRaUJZV1ZvZ0I4NEFBZ0FKJiN4QTtBQVlBTVFBQVlXTnpjRTFUUmxRQUFBQUFTVVZESUhOU1IwSUFBQUFBQUFBQUFBQUFBQUFBQVBiV0FBRUFBQUFBMHkxSVVDQWdBQUFBJiN4QTtBQUFBQUFBQUFBQUFBQUFBQUFBQUFBQUFBQUFBQUFBQUFBQUFBQUFBQUFBQUFBQUFBQUFBQUFBQUFBQVJZM0J5ZEFBQUFWQUFBQUF6JiN4QTtaR1Z6WXdBQUFZUUFBQUJzZDNSd2RBQUFBZkFBQUFBVVltdHdkQUFBQWdRQUFBQVVjbGhaV2dBQUFoZ0FBQUFVWjFoWldnQUFBaXdBJiN4QTtBQUFVWWxoWldnQUFBa0FBQUFBVVpHMXVaQUFBQWxRQUFBQndaRzFrWkFBQUFzUUFBQUNJZG5WbFpBQUFBMHdBQUFDR2RtbGxkd0FBJiN4QTtBOVFBQUFBa2JIVnRhUUFBQS9nQUFBQVViV1ZoY3dBQUJBd0FBQUFrZEdWamFBQUFCREFBQUFBTWNsUlNRd0FBQkR3QUFBZ01aMVJTJiN4QTtRd0FBQkR3QUFBZ01ZbFJTUXdBQUJEd0FBQWdNZEdWNGRBQUFBQUJEYjNCNWNtbG5hSFFnS0dNcElERTVPVGdnU0dWM2JHVjBkQzFRJiN4QTtZV05yWVhKa0lFTnZiWEJoYm5rQUFHUmxjMk1BQUFBQUFBQUFFbk5TUjBJZ1NVVkROakU1TmpZdE1pNHhBQUFBQUFBQUFBQUFBQUFTJiN4QTtjMUpIUWlCSlJVTTJNVGsyTmkweUxqRUFBQUFBQUFBQUFBQUFBQUFBQUFBQUFBQUFBQUFBQUFBQUFBQUFBQUFBQUFBQUFBQUFBQUFBJiN4QTtBQUFBQUFBQUFBQUFBRmhaV2lBQUFBQUFBQUR6VVFBQkFBQUFBUmJNV0ZsYUlBQUFBQUFBQUFBQUFBQUFBQUFBQUFCWVdWb2dBQUFBJiN4QTtBQUFBYjZJQUFEajFBQUFEa0ZoWldpQUFBQUFBQUFCaW1RQUF0NFVBQUJqYVdGbGFJQUFBQUFBQUFDU2dBQUFQaEFBQXRzOWtaWE5qJiN4QTtBQUFBQUFBQUFCWkpSVU1nYUhSMGNEb3ZMM2QzZHk1cFpXTXVZMmdBQUFBQUFBQUFBQUFBQUJaSlJVTWdhSFIwY0RvdkwzZDNkeTVwJiN4QTtaV011WTJnQUFBQUFBQUFBQUFBQUFBQUFBQUFBQUFBQUFBQUFBQUFBQUFBQUFBQUFBQUFBQUFBQUFBQUFBQUFBQUFBQVpHVnpZd0FBJiN4QTtBQUFBQUFBdVNVVkRJRFl4T1RZMkxUSXVNU0JFWldaaGRXeDBJRkpIUWlCamIyeHZkWElnYzNCaFkyVWdMU0J6VWtkQ0FBQUFBQUFBJiN4QTtBQUFBQUFBdVNVVkRJRFl4T1RZMkxUSXVNU0JFWldaaGRXeDBJRkpIUWlCamIyeHZkWElnYzNCaFkyVWdMU0J6VWtkQ0FBQUFBQUFBJiN4QTtBQUFBQUFBQUFBQUFBQUFBQUFBQUFHUmxjMk1BQUFBQUFBQUFMRkpsWm1WeVpXNWpaU0JXYVdWM2FXNW5JRU52Ym1ScGRHbHZiaUJwJiN4QTtiaUJKUlVNMk1UazJOaTB5TGpFQUFBQUFBQUFBQUFBQUFDeFNaV1psY21WdVkyVWdWbWxsZDJsdVp5QkRiMjVrYVhScGIyNGdhVzRnJiN4QTtTVVZETmpFNU5qWXRNaTR4QUFBQUFBQUFBQUFBQUFBQUFBQUFBQUFBQUFBQUFBQUFBQUIyYVdWM0FBQUFBQUFUcFA0QUZGOHVBQkRQJiN4QTtGQUFEN2N3QUJCTUxBQU5jbmdBQUFBRllXVm9nQUFBQUFBQk1DVllBVUFBQUFGY2Y1MjFsWVhNQUFBQUFBQUFBQVFBQUFBQUFBQUFBJiN4QTtBQUFBQUFBQUFBQUFBQUtQQUFBQUFuTnBaeUFBQUFBQVExSlVJR04xY25ZQUFBQUFBQUFFQUFBQUFBVUFDZ0FQQUJRQUdRQWVBQ01BJiN4QTtLQUF0QURJQU53QTdBRUFBUlFCS0FFOEFWQUJaQUY0QVl3Qm9BRzBBY2dCM0FId0FnUUNHQUlzQWtBQ1ZBSm9BbndDa0FLa0FyZ0N5JiN4QTtBTGNBdkFEQkFNWUF5d0RRQU5VQTJ3RGdBT1VBNndEd0FQWUErd0VCQVFjQkRRRVRBUmtCSHdFbEFTc0JNZ0U0QVQ0QlJRRk1BVklCJiN4QTtXUUZnQVdjQmJnRjFBWHdCZ3dHTEFaSUJtZ0doQWFrQnNRRzVBY0VCeVFIUkFka0I0UUhwQWZJQitnSURBZ3dDRkFJZEFpWUNMd0k0JiN4QTtBa0VDU3dKVUFsMENad0p4QW5vQ2hBS09BcGdDb2dLc0FyWUN3UUxMQXRVQzRBTHJBdlVEQUFNTEF4WURJUU10QXpnRFF3TlBBMW9EJiN4QTtaZ055QTM0RGlnT1dBNklEcmdPNkE4Y0Qwd1BnQSt3RCtRUUdCQk1FSUFRdEJEc0VTQVJWQkdNRWNRUitCSXdFbWdTb0JMWUV4QVRUJiN4QTtCT0VFOEFUK0JRMEZIQVVyQlRvRlNRVllCV2NGZHdXR0JaWUZwZ1cxQmNVRjFRWGxCZllHQmdZV0JpY0dOd1pJQmxrR2FnWjdCb3dHJiN4QTtuUWF2QnNBRzBRYmpCdlVIQndjWkJ5c0hQUWRQQjJFSGRBZUdCNWtIckFlL0I5SUg1UWY0Q0FzSUh3Z3lDRVlJV2dodUNJSUlsZ2lxJiN4QTtDTDRJMGdqbkNQc0pFQWtsQ1RvSlR3bGtDWGtKandta0Nib0p6d25sQ2ZzS0VRb25DajBLVkFwcUNvRUttQXF1Q3NVSzNBcnpDd3NMJiN4QTtJZ3M1QzFFTGFRdUFDNWdMc0F2SUMrRUwrUXdTRENvTVF3eGNESFVNamd5bkRNQU0yUXp6RFEwTkpnMUFEVm9OZEEyT0Rha053dzNlJiN4QTtEZmdPRXc0dURra09aQTUvRHBzT3RnN1NEdTRQQ1E4bEQwRVBYZzk2RDVZUHN3L1BEK3dRQ1JBbUVFTVFZUkIrRUpzUXVSRFhFUFVSJiN4QTtFeEV4RVU4UmJSR01FYW9SeVJIb0VnY1NKaEpGRW1RU2hCS2pFc01TNHhNREV5TVRReE5qRTRNVHBCUEZFK1VVQmhRbkZFa1VhaFNMJiN4QTtGSzBVemhUd0ZSSVZOQlZXRlhnVm14VzlGZUFXQXhZbUZra1diQmFQRnJJVzFoYjZGeDBYUVJkbEY0a1hyaGZTRi9jWUd4aEFHR1VZJiN4QTtpaGl2R05VWStoa2dHVVVaYXhtUkdiY1ozUm9FR2lvYVVScDNHcDRheFJyc0d4UWJPeHRqRzRvYnNodmFIQUljS2h4U0hIc2NveHpNJiN4QTtIUFVkSGgxSEhYQWRtUjNESGV3ZUZoNUFIbW9lbEI2K0h1a2ZFeDgrSDJrZmxCKy9IK29nRlNCQklHd2dtQ0RFSVBBaEhDRklJWFVoJiN4QTtvU0hPSWZzaUp5SlZJb0lpcnlMZEl3b2pPQ05tSTVRandpUHdKQjhrVFNSOEpLc2syaVVKSlRnbGFDV1hKY2NsOXlZbkpsY21oeWEzJiN4QTtKdWduR0NkSkozb25xeWZjS0Ewb1B5aHhLS0lvMUNrR0tUZ3BheW1kS2RBcUFpbzFLbWdxbXlyUEt3SXJOaXRwSzUwcjBTd0ZMRGtzJiN4QTtiaXlpTE5jdERDMUJMWFl0cXkzaExoWXVUQzZDTHJjdTdpOGtMMW92a1MvSEwvNHdOVEJzTUtRdzJ6RVNNVW94Z2pHNk1mSXlLakpqJiN4QTtNcHN5MURNTk0wWXpmek80TS9FMEt6UmxOSjQwMkRVVE5VMDFoelhDTmYwMk56WnlOcTQyNlRja04yQTNuRGZYT0JRNFVEaU1PTWc1JiN4QTtCVGxDT1g4NXZEbjVPalk2ZERxeU91ODdMVHRyTzZvNzZEd25QR1U4cER6alBTSTlZVDJoUGVBK0lENWdQcUErNEQ4aFAyRS9vai9pJiN4QTtRQ05BWkVDbVFPZEJLVUZxUWF4QjdrSXdRbkpDdFVMM1F6cERmVVBBUkFORVIwU0tSTTVGRWtWVlJacEYza1lpUm1kR3EwYndSelZIJiN4QTtlMGZBU0FWSVMwaVJTTmRKSFVsalNhbEo4RW8zU24xS3hFc01TMU5MbWt2aVRDcE1ja3k2VFFKTlNrMlRUZHhPSlU1dVRyZFBBRTlKJiN4QTtUNU5QM1ZBblVIRlF1MUVHVVZCUm0xSG1VakZTZkZMSFV4TlRYMU9xVS9aVVFsU1BWTnRWS0ZWMVZjSldEMVpjVnFsVzkxZEVWNUpYJiN4QTs0Rmd2V0gxWXkxa2FXV2xadUZvSFdsWmFwbHIxVzBWYmxWdmxYRFZjaGx6V1hTZGRlRjNKWGhwZWJGNjlYdzlmWVYrellBVmdWMkNxJiN4QTtZUHhoVDJHaVlmVmlTV0tjWXZCalEyT1hZK3RrUUdTVVpPbGxQV1dTWmVkbVBXYVNadWhuUFdlVForbG9QMmlXYU94cFEybWFhZkZxJiN4QTtTR3FmYXZkclQydW5hLzlzVjJ5dmJRaHRZRzI1YmhKdWEyN0VieDV2ZUcvUmNDdHdobkRnY1RweGxYSHdja3R5cG5NQmMxMXp1SFFVJiN4QTtkSEIwekhVb2RZVjE0WFkrZHB0MitIZFdkN040RVhodWVNeDVLbm1KZWVkNlJucWxld1I3WTN2Q2ZDRjhnWHpoZlVGOW9YNEJmbUorJiN4QTt3bjhqZjRSLzVZQkhnS2lCQ29GcmdjMkNNSUtTZ3ZTRFY0TzZoQjJFZ0lUamhVZUZxNFlPaG5LRzE0YzdoNStJQklocGlNNkpNNG1aJiN4QTtpZjZLWklyS2l6Q0xsb3Y4akdPTXlvMHhqWmlOLzQ1bWpzNlBObytla0FhUWJwRFdrVCtScUpJUmtucVM0NU5OazdhVUlKU0tsUFNWJiN4QTtYNVhKbGpTV241Y0tsM1dYNEpoTW1MaVpKSm1RbWZ5YWFKclZtMEticjV3Y25JbWM5NTFrbmRLZVFKNnVueDJmaTUvNm9HbWcyS0ZIJiN4QTtvYmFpSnFLV293YWpkcVBtcEZha3g2VTRwYW1tR3FhTHB2Mm5icWZncUZLb3hLazNxYW1xSEtxUHF3S3JkYXZwckZ5czBLMUVyYml1JiN4QTtMYTZocnhhdmk3QUFzSFd3NnJGZ3NkYXlTN0xDc3ppenJyUWx0SnkxRTdXS3RnRzJlYmJ3dDJpMzRMaFp1Tkc1U3JuQ3VqdTZ0YnN1JiN4QTt1NmU4SWJ5YnZSVzlqNzRLdm9TKy83OTZ2L1hBY01Ec3dXZkI0OEpmd3R2RFdNUFV4RkhFenNWTHhjakdSc2JEeDBISHY4Zzl5THpKJiN4QTtPc201eWpqS3Q4czJ5N2JNTmN5MXpUWE50YzQyenJiUE44KzQwRG5RdXRFODBiN1NQOUxCMDBUVHh0UkoxTXZWVHRYUjFsWFcyTmRjJiN4QTsxK0RZWk5qbzJXelo4ZHAyMnZ2YmdOd0YzSXJkRU4yVzNoemVvdDhwMzYvZ051Qzk0VVRoek9KVDR0dmpZK1ByNUhQay9PV0U1ZzNtJiN4QTtsdWNmNTZub011aTg2VWJwME9wYjZ1WHJjT3Y3N0lidEVlMmM3aWp1dE85QTc4endXUERsOFhMeC8vS004eG56cC9RMDlNTDFVUFhlJiN4QTs5bTMyKy9lSytCbjRxUGs0K2NmNlYvcm4rM2Y4Qi95WS9Tbjl1djVML3R6L2JmLy8vKzRBRGtGa2IySmxBR1RBQUFBQUFmL2JBSVFBJiN4QTtCZ1FFQkFVRUJnVUZCZ2tHQlFZSkN3Z0dCZ2dMREFvS0N3b0tEQkFNREF3TURBd1FEQTRQRUE4T0RCTVRGQlFURXh3Ykd4c2NIeDhmJiN4QTtIeDhmSHg4Zkh3RUhCd2NOREEwWUVCQVlHaFVSRlJvZkh4OGZIeDhmSHg4Zkh4OGZIeDhmSHg4Zkh4OGZIeDhmSHg4Zkh4OGZIeDhmJiN4QTtIeDhmSHg4Zkh4OGZIeDhmSHg4Zi84QUFFUWdCQUFBTUF3RVJBQUlSQVFNUkFmL0VBYUlBQUFBSEFRRUJBUUVBQUFBQUFBQUFBQVFGJiN4QTtBd0lHQVFBSENBa0tDd0VBQWdJREFRRUJBUUVBQUFBQUFBQUFBUUFDQXdRRkJnY0lDUW9MRUFBQ0FRTURBZ1FDQmdjREJBSUdBbk1CJiN4QTtBZ01SQkFBRklSSXhRVkVHRTJFaWNZRVVNcEdoQnhXeFFpUEJVdEhoTXhaaThDUnlndkVsUXpSVGtxS3lZM1BDTlVRbms2T3pOaGRVJiN4QTtaSFREMHVJSUpvTUpDaGdaaEpSRlJxUzBWdE5WS0JyeTQvUEUxT1QwWlhXRmxhVzF4ZFhsOVdaMmhwYW10c2JXNXZZM1IxZG5kNGVYJiN4QTtwN2ZIMStmM09FaFlhSGlJbUtpNHlOam8rQ2s1U1ZscGVZbVpxYm5KMmVuNUtqcEtXbXA2aXBxcXVzcmE2dm9SQUFJQ0FRSURCUVVFJiN4QTtCUVlFQ0FNRGJRRUFBaEVEQkNFU01VRUZVUk5oSWdaeGdaRXlvYkh3Rk1IUjRTTkNGVkppY3ZFekpEUkRnaGFTVXlXaVk3TENCM1BTJiN4QTtOZUpFZ3hkVWt3Z0pDaGdaSmpaRkdpZGtkRlUzOHFPend5Z3AwK1B6aEpTa3RNVFU1UFJsZFlXVnBiWEYxZVgxUmxabWRvYVdwcmJHJiN4QTsxdWIyUjFkbmQ0ZVhwN2ZIMStmM09FaFlhSGlJbUtpNHlOam8rRGxKV1dsNWlabXB1Y25aNmZrcU9rcGFhbnFLbXFxNnl0cnErdi9hJiN4QTtBQXdEQVFBQ0VRTVJBRDhBN2hwV20yTWtNSXVyV0dSU3BwSVZoQkI1TWQvWEJrMzhPUDRaYm5OeS9zN3ZMWnJ4aW8vajlMSXF4L1ZmJiN4QTt0THc5ZWxlVVZQN3J4NDhQd3lwc1kzb3NkM0pGYk5KNlhKV2RqUE9RcktSSXpkNUdZZXhvZkhMOVJYSHQzRDd2ZzFZYjRkMlQrcCs1JiN4QTs1ZXN2OS84QTNucmJmM1g4L0grR1VOckY3Q1lmdVRHczV1bVZncGdhTldLaG02RGkzWWR2MTF5M1A5WHk3Kzd6YThmSmtmS2I5RzE0JiN4QTtUZXR6K3p5ZjF1WG8rUEg3VmZiajlHVk5pUTZINjdDM2pqdkRFaExzWWs1RmpSMkpJV05kdzNjaGg5K1hhajYvbDM5M20xNHZwWkhRJiN4QTsralRtOWZYKzF3bTVmM1g4dkwxUHh5bHNTUFFodkhTM1dSSFZ3SkRGSkt1enQ3TEgyNjFybHVZZXI1ZmN3eDhrODRmdWVQb3IvZjhBJiN4QTsyUFIyL3V1dkRsL0hLbWFTYVJaek8xdVdSeXlxMVY5TXVoQUxEZDNkVUorWXJsbVg2bUdQa25mb042UHArbHY2OWZUNFJmNzYvbDVjJiN4QTtQeHl0bXhmUnJEVEZXT0l5WEFWdVRjT1RyVGMvdHpQdDhqOUdYWjVYTCt6OUd6WGpHMzl2NldTVXR2cXYvRlhyL3dETHYxOUwva1hsJiN4QTtMWXgvU1lyaFV0eW5vRkVkajZzZ2pEQW1ZazBNaExyU3Rlbnk3RExzNXVYd0gzTmVJVkg1c2w5Vi9SNSt1bkwxL3dDOTlST1A5MzA1JiN4QTtjT1AvQUF1VXRqRzlMa3RsdUxablFyUDhkQjZxcUtGbnAwOVNYb2YyVC9FWmJtK3I1ZmQ4R0dQa3lQbXZvOHUzci83OWwvMzEvUFRuJiN4QTsrR1ZNMk42UE5mUEZHSVpONHkxYlVPeUU4V05maGpqZnJUcUd5L1VDcGZBZC93Q2xyeEhaa05aL3FsZUo5YjFhOEt6OWZTNmNxZXBUJiN4QTs2TW9iR082WkpPeVc0Z2xoQk5UOVhHNWFqR3RlRVo2MDNvY3V6aXBmTDhidGVJN01oNHkvVS9zTDZ2cTE5UGhMeDVlbDBwOXVudlQ2JiN4QTtNcGJHTjZROXdZb0pmcWF6VmR3SkFaSFgrOGJhaW5nZVBUZkw5VEdwMTVEN21yQ2JqODJVK2svbzhQUVRsNi85MTZhY2Y3dnJ4NThmJiN4QTsrR3lodFl0bzBVRW5vTlBjVFZxMUVVQlJSWGJoeU1wQy9aVWNneTlmWWpMczljVzNsM2QzazE0cnI4ZnBaRnh0L3FsT1o5UDZ4MS8wJiN4QTthdGZTK1hwZnh5bHNZL3BDenlSUk9pd3hNcGNDV1ZJeXdLdXc2eUZaUHczNjk4dXovVjhCM2QzazE0dVRJK1NmVnE4bHA2LzJ1VVZQJiN4QTs3dng0OFB3eWxzWTFwY0pqaGhrYTBobVNqTUdXUlkzREZ5ZC9VWnVueXk3UEs1TmVJVkZrUDFxYjZoNjlCNm5yZlk5ZGEvM1hUMUtjJiN4QTthNVMyTWUwTVdVazlxZlJsV2I5NXhWWlFCOExQdVBTRHYyL1pQejc1ZHFCVXZsMzkzbTE0dnAvSDZHVDhmM0gySlA3L0FPejZseHkvJiN4QTt1djV1UHFmaGxMWXhmU3RSTnZheHNzOGFyUi85SExTb09YcU5VajBscFhiK2I1NzVkcVByK1hmM2ViWGkrbGtQcTNmNlA1OEQ5WTlmJiN4QTs3SCtrL3dDKy9HbnE5UGFtVXRqSHROQXViZUdSb1M4RGM2ekpIY09maGRoMGlLb2R4NDdaZG5qVXE5MzNOZUkzRmsvcHY5WDQrbkh5JiN4QTs5ZjdIb2ZEL0FIWCsrK2Y0OHNwYkdQNkdWSmlJWXVyODlqRVhVMVlzZmprWlZGR3FOeDB5N09QVjh2eHMxNCtTZjhVK3JVNHJUMS9zJiN4QTs4WXFmM2ZoeTRmamxMWXhYU29vcDdlTUkwc2JrTXdWaHhBUHFIcVpKVSs0L3F5N1A5WHk3dTd5MmE4WDAvajlMSktyK2p1ZzVldFN0JiN4QTtMZmp6OUxyeDVlblN2YmxYS1d4STdHQzdNVUtENnN3cVFKcEVqSEg0MlBTUnVkUGw5R1haemN2bDl6WGpGQmtQcVhuMUxsOWFoK3MrJiN4QTt0VDZ4eUhwMTlQOEExZncvSEtXeGpHa1hNTnVJSG82eWtzcXh4eVJSMVV5TWVOQVhhamV4KzQ1ZnFQcitBNys3emE4WDBzbzljZlUvJiN4QTtXNE4vZTh2VDlXVGwvZFZweXB5cjdkTW9iR1BhYkpESENpTGZpemlIS2lxNEI1QnlQc3BIeDdlTmZIZXVYWnllTGZ5Ny93QkxYaXF0JiN4QTt2eDhtUTFiNm5YMUdyNnY5Nys5NWYzWDJ2NXY0WlMySkRva3NjeXdmNldpeHNYcEVxYzJkaElhaWlvdlgyUDhBWExzOGFsWGtQdWE4JiN4QTtSc01nOU5mUTQ5dlgvd0I5Uy83Ni9rcnkvSEtXeGp1a1JNMXVodTdWdlVUa1ZlSlpKVlBGMjZsV2pYYW4wNWRxQU9MYnkrNzR0ZUsrJiN4QTtIZGtucFA2UEQwRTVldjhBM1hwcHgvdSt2SG54L3dDR3lsc1lycGRyYlhFY1FXZDQxQmQzU3V4QmxZbWtqdkdLNzlLZmhsMmY2dmdPJiN4QTs3dThtdkZ5WkY2ZHA5UTlLcmVoNnZDdktIbC9kVSsxWGpYM3JYS1d4alduMllsU0thNFIzQUwwRWJyRXdQcU1mOTJ5Y2h2djArV1hhJiN4QTtnK3I0RHU3dkpyeGZUODJVOHY4QVE2ZXMxUFY0ZXI2cWNxZWxUKzhwU3Z2MXlsc1k1cHI4NExlZUNPV01xSk9MYzdkWEJNakUvd0I1JiN4QTt5WWZhT1hhZ1ZMbmZMN212RWZTeWJuKzU1ZXN2OS84QWI5YmIrNjZjK1A4QURLV3hpdWwvVXlrS1RXcjNzcks0V05XUVZITmpzRXFkJiN4QTtnT3pmamwyZjZ2bDM5M20xNCtUS1BTaitxZWw2SjlMMWVIbzhwdnMrbFNuMmVkS2RxVXlsc1NQUXB4RkZGSDlaUVJNZUlVR1Q0V0xQJiN4QTtzcXhFQmlTUEg4YTVkbityNWQvZDV0ZUw2VS80bjBhYzNyNi8ydUUzTCs3L0FKZVhxZmpsTFl4dlJJWVpJWUZFYlR4T1NWdU9Nc2xXJiN4QTtWMkZLb1ZTbGZmTDlSZkZ1SzVkSzZOZUw2ZWRzajlQOXp4OUZmNy8rNzlIYis2L2s1Znh5aHNTaTFpU0NlS0ZUeUJRVkVrU3ZXcExuJiN4QTs5NFpPRmQvQ3ROc2xLVm0wQVVtbkZQcTFPSzA5ZjdQR0tuOTM0Y3VINDVGTC85az08L3htcEdJbWc6aW1hZ2U+CiAgICAgICAgICAgICAgIDwvcmRmOmxpPgogICAgICAgICAgICA8L3JkZjpBbHQ+CiAgICAgICAgIDwveG1wOlRodW1ibmFpbHM+CiAgICAgICAgIDx4bXBNTTpPcmlnaW5hbERvY3VtZW50SUQ+dXVpZDo5RTNFNUM5QThDODFEQjExODczNERCNThGRERFNEJBNzwveG1wTU06T3JpZ2luYWxEb2N1bWVudElEPgogICAgICAgICA8eG1wTU06RG9jdW1lbnRJRD54bXAuZGlkOmQ4ZTg0MmUyLWRkODMtNDE4ZS1iZTFiLTI5NDhlOWVmZmRiMzwveG1wTU06RG9jdW1lbnRJRD4KICAgICAgICAgPHhtcE1NOkluc3RhbmNlSUQ+eG1wLmlpZDpkOGU4NDJlMi1kZDgzLTQxOGUtYmUxYi0yOTQ4ZTllZmZkYjM8L3htcE1NOkluc3RhbmNlSUQ+CiAgICAgICAgIDx4bXBNTTpSZW5kaXRpb25DbGFzcz5wcm9vZjpwZGY8L3htcE1NOlJlbmRpdGlvbkNsYXNzPgogICAgICAgICA8eG1wTU06RGVyaXZlZEZyb20gcmRmOnBhcnNlVHlwZT0iUmVzb3VyY2UiPgogICAgICAgICAgICA8c3RSZWY6aW5zdGFuY2VJRD54bXAuaWlkOjA2YzllOGIyLTQ1M2MtNDc3MS1hYTg5LTgwMGI4NWIyYmFkZDwvc3RSZWY6aW5zdGFuY2VJRD4KICAgICAgICAgICAgPHN0UmVmOmRvY3VtZW50SUQ+eG1wLmRpZDowNmM5ZThiMi00NTNjLTQ3NzEtYWE4OS04MDBiODViMmJhZGQ8L3N0UmVmOmRvY3VtZW50SUQ+CiAgICAgICAgICAgIDxzdFJlZjpvcmlnaW5hbERvY3VtZW50SUQ+dXVpZDo5RTNFNUM5QThDODFEQjExODczNERCNThGRERFNEJBNzwvc3RSZWY6b3JpZ2luYWxEb2N1bWVudElEPgogICAgICAgICAgICA8c3RSZWY6cmVuZGl0aW9uQ2xhc3M+cHJvb2Y6cGRmPC9zdFJlZjpyZW5kaXRpb25DbGFzcz4KICAgICAgICAgPC94bXBNTTpEZXJpdmVkRnJvbT4KICAgICAgICAgPHhtcE1NOkhpc3Rvcnk+CiAgICAgICAgICAgIDxyZGY6U2VxPgogICAgICAgICAgICAgICA8cmRmOmxpIHJkZjpwYXJzZVR5cGU9IlJlc291cmNlIj4KICAgICAgICAgICAgICAgICAgPHN0RXZ0OmFjdGlvbj5zYXZlZDwvc3RFdnQ6YWN0aW9uPgogICAgICAgICAgICAgICAgICA8c3RFdnQ6aW5zdGFuY2VJRD54bXAuaWlkOjE5MmExNzA3LTBhZDMtNGY5OC1hNjcwLWU4M2JjODRkMzFkNjwvc3RFdnQ6aW5zdGFuY2VJRD4KICAgICAgICAgICAgICAgICAgPHN0RXZ0OndoZW4+MjAxOS0xMC0xNVQxMjo1NTo1MC0wNTowMDwvc3RFdnQ6d2hlbj4KICAgICAgICAgICAgICAgICAgPHN0RXZ0OnNvZnR3YXJlQWdlbnQ+QWRvYmUgSWxsdXN0cmF0b3IgQ0MgMjMuMSAoTWFjaW50b3NoKTwvc3RFdnQ6c29mdHdhcmVBZ2VudD4KICAgICAgICAgICAgICAgICAgPHN0RXZ0OmNoYW5nZWQ+Lzwvc3RFdnQ6Y2hhbmdlZD4KICAgICAgICAgICAgICAgPC9yZGY6bGk+CiAgICAgICAgICAgICAgIDxyZGY6bGkgcmRmOnBhcnNlVHlwZT0iUmVzb3VyY2UiPgogICAgICAgICAgICAgICAgICA8c3RFdnQ6YWN0aW9uPnNhdmVkPC9zdEV2dDphY3Rpb24+CiAgICAgICAgICAgICAgICAgIDxzdEV2dDppbnN0YW5jZUlEPnhtcC5paWQ6ZDhlODQyZTItZGQ4My00MThlLWJlMWItMjk0OGU5ZWZmZGIzPC9zdEV2dDppbnN0YW5jZUlEPgogICAgICAgICAgICAgICAgICA8c3RFdnQ6d2hlbj4yMDE5LTEwLTIyVDExOjM0OjA3LTA1OjAwPC9zdEV2dDp3aGVuPgogICAgICAgICAgICAgICAgICA8c3RFdnQ6c29mdHdhcmVBZ2VudD5BZG9iZSBJbGx1c3RyYXRvciBDQyAyMy4xIChNYWNpbnRvc2gpPC9zdEV2dDpzb2Z0d2FyZUFnZW50PgogICAgICAgICAgICAgICAgICA8c3RFdnQ6Y2hhbmdlZD4vPC9zdEV2dDpjaGFuZ2VkPgogICAgICAgICAgICAgICA8L3JkZjpsaT4KICAgICAgICAgICAgPC9yZGY6U2VxPgogICAgICAgICA8L3htcE1NOkhpc3Rvcnk+CiAgICAgICAgIDxpbGx1c3RyYXRvcjpTdGFydHVwUHJvZmlsZT5CYXNpYyBSR0I8L2lsbHVzdHJhdG9yOlN0YXJ0dXBQcm9maWxlPgogICAgICAgICA8cGRmOlByb2R1Y2VyPkFkb2JlIFBERiBsaWJyYXJ5IDE1LjAwPC9wZGY6UHJvZHVjZXI+CiAgICAgIDwvcmRmOkRlc2NyaXB0aW9uPgogICA8L3JkZjpSREY+CjwveDp4bXBtZXRhPgogICAgICAgICAgICAgICAgICAgICAgICAgICAgICAgICAgICAgICAgICAgICAgICAgICAgICAgICAgICAgICAgICAgICAgICAgICAgICAgICAgICAgICAgICAgICAgICAgICAgCiAgICAgICAgICAgICAgICAgICAgICAgICAgICAgICAgICAgICAgICAgICAgICAgICAgICAgICAgICAgICAgICAgICAgICAgICAgICAgICAgICAgICAgICAgICAgICAgICAgICAKICAgICAgICAgICAgICAgICAgICAgICAgICAgICAgICAgICAgICAgICAgICAgICAgICAgICAgICAgICAgICAgICAgICAgICAgICAgICAgICAgICAgICAgICAgICAgICAgICAgIAogICAgICAgICAgICAgICAgICAgICAgICAgICAgICAgICAgICAgICAgICAgICAgICAgICAgICAgICAgICAgICAgICAgICAgICAgICAgICAgICAgICAgICAgICAgICAgICAgICAgCiAgICAgICAgICAgICAgICAgICAgICAgICAgICAgICAgICAgICAgICAgICAgICAgICAgICAgICAgICAgICAgICAgICAgICAgICAgICAgICAgICAgICAgICAgICAgICAgICAgICAKICAgICAgICAgICAgICAgICAgICAgICAgICAgICAgICAgICAgICAgICAgICAgICAgICAgICAgICAgICAgICAgICAgICAgICAgICAgICAgICAgICAgICAgICAgICAgICAgICAgIAogICAgICAgICAgICAgICAgICAgICAgICAgICAgICAgICAgICAgICAgICAgICAgICAgICAgICAgICAgICAgICAgICAgICAgICAgICAgICAgICAgICAgICAgICAgICAgICAgICAgCiAgICAgICAgICAgICAgICAgICAgICAgICAgICAgICAgICAgICAgICAgICAgICAgICAgICAgICAgICAgICAgICAgICAgICAgICAgICAgICAgICAgICAgICAgICAgICAgICAgICAKICAgICAgICAgICAgICAgICAgICAgICAgICAgICAgICAgICAgICAgICAgICAgICAgICAgICAgICAgICAgICAgICAgICAgICAgICAgICAgICAgICAgICAgICAgICAgICAgICAgIAogICAgICAgICAgICAgICAgICAgICAgICAgICAgICAgICAgICAgICAgICAgICAgICAgICAgICAgICAgICAgICAgICAgICAgICAgICAgICAgICAgICAgICAgICAgICAgICAgICAgCiAgICAgICAgICAgICAgICAgICAgICAgICAgICAgICAgICAgICAgICAgICAgICAgICAgICAgICAgICAgICAgICAgICAgICAgICAgICAgICAgICAgICAgICAgICAgICAgICAgICAKICAgICAgICAgICAgICAgICAgICAgICAgICAgICAgICAgICAgICAgICAgICAgICAgICAgICAgICAgICAgICAgICAgICAgICAgICAgICAgICAgICAgICAgICAgICAgICAgICAgIAogICAgICAgICAgICAgICAgICAgICAgICAgICAgICAgICAgICAgICAgICAgICAgICAgICAgICAgICAgICAgICAgICAgICAgICAgICAgICAgICAgICAgICAgICAgICAgICAgICAgCiAgICAgICAgICAgICAgICAgICAgICAgICAgICAgICAgICAgICAgICAgICAgICAgICAgICAgICAgICAgICAgICAgICAgICAgICAgICAgICAgICAgICAgICAgICAgICAgICAgICAKICAgICAgICAgICAgICAgICAgICAgICAgICAgICAgICAgICAgICAgICAgICAgICAgICAgICAgICAgICAgICAgICAgICAgICAgICAgICAgICAgICAgICAgICAgICAgICAgICAgIAogICAgICAgICAgICAgICAgICAgICAgICAgICAgICAgICAgICAgICAgICAgICAgICAgICAgICAgICAgICAgICAgICAgICAgICAgICAgICAgICAgICAgICAgICAgICAgICAgICAgCiAgICAgICAgICAgICAgICAgICAgICAgICAgICAgICAgICAgICAgICAgICAgICAgICAgICAgICAgICAgICAgICAgICAgICAgICAgICAgICAgICAgICAgICAgICAgICAgICAgICAKICAgICAgICAgICAgICAgICAgICAgICAgICAgICAgICAgICAgICAgICAgICAgICAgICAgICAgICAgICAgICAgICAgICAgICAgICAgICAgICAgICAgICAgICAgICAgICAgICAgIAogICAgICAgICAgICAgICAgICAgICAgICAgICAgICAgICAgICAgICAgICAgICAgICAgICAgICAgICAgICAgICAgICAgICAgICAgICAgICAgICAgICAgICAgICAgICAgICAgICAgCiAgICAgICAgICAgICAgICAgICAgICAgICAgICAgICAgICAgICAgICAgICAgICAgICAgICAgICAgICAgICAgICAgICAgICAgICAgICAgICAgICAgICAgICAgICAgICAgICAgICAKICAgICAgICAgICAgICAgICAgICAgICAgICAgCjw/eHBhY2tldCBlbmQ9InciPz7/4gxYSUNDX1BST0ZJTEUAAQEAAAxITGlubwIQAABtbnRyUkdCIFhZWiAHzgACAAkABgAxAABhY3NwTVNGVAAAAABJRUMgc1JHQgAAAAAAAAAAAAAAAAAA9tYAAQAAAADTLUhQICAAAAAAAAAAAAAAAAAAAAAAAAAAAAAAAAAAAAAAAAAAAAAAAAAAAAAAAAAAAAAAABFjcHJ0AAABUAAAADNkZXNjAAABhAAAAGx3dHB0AAAB8AAAABRia3B0AAACBAAAABRyWFlaAAACGAAAABRnWFlaAAACLAAAABRiWFlaAAACQAAAABRkbW5kAAACVAAAAHBkbWRkAAACxAAAAIh2dWVkAAADTAAAAIZ2aWV3AAAD1AAAACRsdW1pAAAD+AAAABRtZWFzAAAEDAAAACR0ZWNoAAAEMAAAAAxyVFJDAAAEPAAACAxnVFJDAAAEPAAACAxiVFJDAAAEPAAACAx0ZXh0AAAAAENvcHlyaWdodCAoYykgMTk5OCBIZXdsZXR0LVBhY2thcmQgQ29tcGFueQAAZGVzYwAAAAAAAAASc1JHQiBJRUM2MTk2Ni0yLjEAAAAAAAAAAAAAABJzUkdCIElFQzYxOTY2LTIuMQAAAAAAAAAAAAAAAAAAAAAAAAAAAAAAAAAAAAAAAAAAAAAAAAAAAAAAAAAAAAAAAAAAWFlaIAAAAAAAAPNRAAEAAAABFsxYWVogAAAAAAAAAAAAAAAAAAAAAFhZWiAAAAAAAABvogAAOPUAAAOQWFlaIAAAAAAAAGKZAAC3hQAAGNpYWVogAAAAAAAAJKAAAA+EAAC2z2Rlc2MAAAAAAAAAFklFQyBodHRwOi8vd3d3LmllYy5jaAAAAAAAAAAAAAAAFklFQyBodHRwOi8vd3d3LmllYy5jaAAAAAAAAAAAAAAAAAAAAAAAAAAAAAAAAAAAAAAAAAAAAAAAAAAAAAAAAAAAAABkZXNjAAAAAAAAAC5JRUMgNjE5NjYtMi4xIERlZmF1bHQgUkdCIGNvbG91ciBzcGFjZSAtIHNSR0IAAAAAAAAAAAAAAC5JRUMgNjE5NjYtMi4xIERlZmF1bHQgUkdCIGNvbG91ciBzcGFjZSAtIHNSR0IAAAAAAAAAAAAAAAAAAAAAAAAAAAAAZGVzYwAAAAAAAAAsUmVmZXJlbmNlIFZpZXdpbmcgQ29uZGl0aW9uIGluIElFQzYxOTY2LTIuMQAAAAAAAAAAAAAALFJlZmVyZW5jZSBWaWV3aW5nIENvbmRpdGlvbiBpbiBJRUM2MTk2Ni0yLjEAAAAAAAAAAAAAAAAAAAAAAAAAAAAAAAAAAHZpZXcAAAAAABOk/gAUXy4AEM8UAAPtzAAEEwsAA1yeAAAAAVhZWiAAAAAAAEwJVgBQAAAAVx/nbWVhcwAAAAAAAAABAAAAAAAAAAAAAAAAAAAAAAAAAo8AAAACc2lnIAAAAABDUlQgY3VydgAAAAAAAAQAAAAABQAKAA8AFAAZAB4AIwAoAC0AMgA3ADsAQABFAEoATwBUAFkAXgBjAGgAbQByAHcAfACBAIYAiwCQAJUAmgCfAKQAqQCuALIAtwC8AMEAxgDLANAA1QDbAOAA5QDrAPAA9gD7AQEBBwENARMBGQEfASUBKwEyATgBPgFFAUwBUgFZAWABZwFuAXUBfAGDAYsBkgGaAaEBqQGxAbkBwQHJAdEB2QHhAekB8gH6AgMCDAIUAh0CJgIvAjgCQQJLAlQCXQJnAnECegKEAo4CmAKiAqwCtgLBAssC1QLgAusC9QMAAwsDFgMhAy0DOANDA08DWgNmA3IDfgOKA5YDogOuA7oDxwPTA+AD7AP5BAYEEwQgBC0EOwRIBFUEYwRxBH4EjASaBKgEtgTEBNME4QTwBP4FDQUcBSsFOgVJBVgFZwV3BYYFlgWmBbUFxQXVBeUF9gYGBhYGJwY3BkgGWQZqBnsGjAadBq8GwAbRBuMG9QcHBxkHKwc9B08HYQd0B4YHmQesB78H0gflB/gICwgfCDIIRghaCG4IggiWCKoIvgjSCOcI+wkQCSUJOglPCWQJeQmPCaQJugnPCeUJ+woRCicKPQpUCmoKgQqYCq4KxQrcCvMLCwsiCzkLUQtpC4ALmAuwC8gL4Qv5DBIMKgxDDFwMdQyODKcMwAzZDPMNDQ0mDUANWg10DY4NqQ3DDd4N+A4TDi4OSQ5kDn8Omw62DtIO7g8JDyUPQQ9eD3oPlg+zD88P7BAJECYQQxBhEH4QmxC5ENcQ9RETETERTxFtEYwRqhHJEegSBxImEkUSZBKEEqMSwxLjEwMTIxNDE2MTgxOkE8UT5RQGFCcUSRRqFIsUrRTOFPAVEhU0FVYVeBWbFb0V4BYDFiYWSRZsFo8WshbWFvoXHRdBF2UXiReuF9IX9xgbGEAYZRiKGK8Y1Rj6GSAZRRlrGZEZtxndGgQaKhpRGncanhrFGuwbFBs7G2MbihuyG9ocAhwqHFIcexyjHMwc9R0eHUcdcB2ZHcMd7B4WHkAeah6UHr4e6R8THz4faR+UH78f6iAVIEEgbCCYIMQg8CEcIUghdSGhIc4h+yInIlUigiKvIt0jCiM4I2YjlCPCI/AkHyRNJHwkqyTaJQklOCVoJZclxyX3JicmVyaHJrcm6CcYJ0kneierJ9woDSg/KHEooijUKQYpOClrKZ0p0CoCKjUqaCqbKs8rAis2K2krnSvRLAUsOSxuLKIs1y0MLUEtdi2rLeEuFi5MLoIuty7uLyQvWi+RL8cv/jA1MGwwpDDbMRIxSjGCMbox8jIqMmMymzLUMw0zRjN/M7gz8TQrNGU0njTYNRM1TTWHNcI1/TY3NnI2rjbpNyQ3YDecN9c4FDhQOIw4yDkFOUI5fzm8Ofk6Njp0OrI67zstO2s7qjvoPCc8ZTykPOM9Ij1hPaE94D4gPmA+oD7gPyE/YT+iP+JAI0BkQKZA50EpQWpBrEHuQjBCckK1QvdDOkN9Q8BEA0RHRIpEzkUSRVVFmkXeRiJGZ0arRvBHNUd7R8BIBUhLSJFI10kdSWNJqUnwSjdKfUrESwxLU0uaS+JMKkxyTLpNAk1KTZNN3E4lTm5Ot08AT0lPk0/dUCdQcVC7UQZRUFGbUeZSMVJ8UsdTE1NfU6pT9lRCVI9U21UoVXVVwlYPVlxWqVb3V0RXklfgWC9YfVjLWRpZaVm4WgdaVlqmWvVbRVuVW+VcNVyGXNZdJ114XcleGl5sXr1fD19hX7NgBWBXYKpg/GFPYaJh9WJJYpxi8GNDY5dj62RAZJRk6WU9ZZJl52Y9ZpJm6Gc9Z5Nn6Wg/aJZo7GlDaZpp8WpIap9q92tPa6dr/2xXbK9tCG1gbbluEm5rbsRvHm94b9FwK3CGcOBxOnGVcfByS3KmcwFzXXO4dBR0cHTMdSh1hXXhdj52m3b4d1Z3s3gReG54zHkqeYl553pGeqV7BHtje8J8IXyBfOF9QX2hfgF+Yn7CfyN/hH/lgEeAqIEKgWuBzYIwgpKC9INXg7qEHYSAhOOFR4Wrhg6GcobXhzuHn4gEiGmIzokziZmJ/opkisqLMIuWi/yMY4zKjTGNmI3/jmaOzo82j56QBpBukNaRP5GokhGSepLjk02TtpQglIqU9JVflcmWNJaflwqXdZfgmEyYuJkkmZCZ/JpomtWbQpuvnByciZz3nWSd0p5Anq6fHZ+Ln/qgaaDYoUehtqImopajBqN2o+akVqTHpTilqaYapoum/adup+CoUqjEqTepqaocqo+rAqt1q+msXKzQrUStuK4trqGvFq+LsACwdbDqsWCx1rJLssKzOLOutCW0nLUTtYq2AbZ5tvC3aLfguFm40blKucK6O7q1uy67p7whvJu9Fb2Pvgq+hL7/v3q/9cBwwOzBZ8Hjwl/C28NYw9TEUcTOxUvFyMZGxsPHQce/yD3IvMk6ybnKOMq3yzbLtsw1zLXNNc21zjbOts83z7jQOdC60TzRvtI/0sHTRNPG1EnUy9VO1dHWVdbY11zX4Nhk2OjZbNnx2nba+9uA3AXcit0Q3ZbeHN6i3ynfr+A24L3hROHM4lPi2+Nj4+vkc+T85YTmDeaW5x/nqegy6LzpRunQ6lvq5etw6/vshu0R7ZzuKO6070DvzPBY8OXxcvH/8ozzGfOn9DT0wvVQ9d72bfb794r4Gfio+Tj5x/pX+uf7d/wH/Jj9Kf26/kv+3P9t////7gAOQWRvYmUAZMAAAAAB/9sAhAABAQEBAQEBAQEBAQEBAQEBAQEBAQEBAQEBAQEBAQEBAQEBAQEBAQEBAQEBAgICAgICAgICAgIDAwMDAwMDAwMDAQEBAQEBAQIBAQICAgECAgMDAwMDAwMDAwMDAwMDAwMDAwMDAwMDAwMDAwMDAwMDAwMDAwMDAwMDAwMDAwMDAwP/wAARCACRAooDAREAAhEBAxEB/8QAvQABAAMAAwEBAQEAAAAAAAAAAAcICQQGCgUBAgMBAQACAgMBAQAAAAAAAAAAAAAGBwUIAwQJAgEQAAAGAgADBgQFAgIIBAcAAAABAgMEBQYHERIIIRPVF1eXFBUWCTG2N3fZQSJRI2FxMkJSMzYYJDRWOYFj1GWWt4gRAQACAQMBBQQEDAQEBwEAAAABAgMRBAUGITFBEgdRYXETgZGhIrEyQlJicoIjFBUWCNGiwpOSM5RV8MFTc6MkNBf/2gAMAwEAAhEDEQA/APafpLSWmLbTGorS01FrCys7LWGA2FjY2GA4pMn2E+ZilTImTZsyRUuSJUuVIcU4444pS1rUalGZmZgJP8gtE+iupfbjDvBgDyC0T6K6l9uMO8GAPILRPorqX24w7wYA8gtE+iupfbjDvBgDyC0T6K6l9uMO8GAPILRPorqX24w7wYA8gtE+iupfbjDvBgDyC0T6K6l9uMO8GAPILRPorqX24w7wYA8gtE+iupfbjDvBgDyC0T6K6l9uMO8GAPILRPorqX24w7wYA8gtE+iupfbjDvBgDyC0T6K6l9uMO8GAPILRPorqX24w7wYA8gtE+iupfbjDvBgDyC0T6K6l9uMO8GAPILRPorqX24w7wYA8gtE+iupfbjDvBgDyC0T6K6l9uMO8GAPILRPorqX24w7wYA8gtE+iupfbjDvBgDyC0T6K6l9uMO8GAPILRPorqX24w7wYA8gtE+iupfbjDvBgDyC0T6K6l9uMO8GAPILRPorqX24w7wYA8gtE+iupfbjDvBgDyC0T6K6l9uMO8GAPILRPorqX24w7wYA8gtE+iupfbjDvBgDyC0T6K6l9uMO8GAPILRPorqX24w7wYA8gtE+iupfbjDvBgDyC0T6K6l9uMO8GAPILRPorqX24w7wYA8gtE+iupfbjDvBgDyC0T6K6l9uMO8GAPILRPorqX24w7wYA8gtE+iupfbjDvBgDyC0T6K6l9uMO8GAPILRPorqX24w7wYA8gtE+iupfbjDvBgDyC0T6K6l9uMO8GAPILRPorqX24w7wYA8gtE+iupfbjDvBgDyC0T6K6l9uMO8GAPILRPorqX24w7wYA8gtE+iupfbjDvBgDyC0T6K6l9uMO8GAPILRPorqX24w7wYA8gtE+iupfbjDvBgDyC0T6K6l9uMO8GAPILRPorqX24w7wYA8gtE+iupfbjDvBgDyC0T6K6l9uMO8GAPILRPorqX24w7wYA8gtE+iupfbjDvBgDyC0T6K6l9uMO8GAPILRPorqX24w7wYA8gtE+iupfbjDvBgDyC0T6K6l9uMO8GAPILRPorqX24w7wYA8gtE+iupfbjDvBgDyC0T6K6l9uMO8GAPILRPorqX24w7wYA8gtE+iupfbjDvBgDyC0T6K6l9uMO8GAPILRPorqX24w7wYA8gtE+iupfbjDvBgDyC0T6K6l9uMO8GAPILRPorqX24w7wYA8gtE+iupfbjDvBgDyC0T6K6l9uMO8GAPILRPorqX24w7wYA8gtE+iupfbjDvBgDyC0T6K6l9uMO8GAPILRPorqX24w7wYA8gtE+iupfbjDvBgDyC0T6K6l9uMO8GAZifQOCf+isS/8Ac7+gf+nKf/oT/wBFf+T/AOkv/tv/AJP/AOWA070F+hOlf2l1x+TqYBLQAAAAAAAAAAAAAAAAAAAAAAAAAAAAAAAAAAAAAAAAAAAAAAAAAAAAAAAAAAAAAAAAAAAAAAAAAAAAAAAAAAAAAAAAAAAAAAAAAAAAAAAAAAyX/loAaHaC/QnSv7S64/J1MAloAAAAAAAAAAAAAAAAAAAAAAAAAAAAAAAAAAAAAAAAAAAAAAAAAAAAAAAAAAAAAAAAAAAAAAAAAAAAAAAAAAAAAAAAAAAAAAAAAAAAAAAAAAZL/wAtADQ7QX6E6V/aXXH5OpgEtAAAAAAAAAKD9f8A1J5X0+a7xdrXtlEqs7ze/kxYFhJg19ouuoaWGUi7nxa+zYlwXpRTJ0FlJvMutpQ8o+HNyjYD+3v0z4n1E6j3V+osV8vA7Hb1telbXpF8uW2mKlr0mtor5a5bT5bVmZrHbpqqz1V6x33SfEYK8TeuPlNzlmK2mtbeWlI1vaK2iazOtqR2xMaTPjo6t9vbqpzLftNnGL7QuIlznGIyK+2g2rVbWU8i4xq276M4TtfTRINb3tHZRiQt1tlrmRMZIyNRKUeV/uJ9KOF9P97seV6Ww3w8FvK3x2xze+SMebHpaNL5LWvplpbWKza2k47zExExEdL0n645Hqrb7nZc3krk5PbzW1bRWtJvjtrHbWkVrrS0aTMRHZevjrLSEa1LgAAAAAAAAAAAAAAAAAAAAAAAAAAAAAAAAAAAAAAAAAAAAAAAAAAAAAAAAAAAAAAAAAAAAAAAAAAAAAAAAAAAAAAAAAAAAAGS/wDLQA0O0F+hOlf2l1x+TqYBLQAAAAAAAADzi/ct2X9cdRszGYj5OVWsaGtxVom1mphy5mI+fX0giNR8r7b1k1Cd4EX90Lhw7OJ+k39snTH8i9Nqcnmrpu+U3F88698Y6/usUfCYpbJXv7Mv0RqD6ycz/M+r7bLHOuDZYq4o9nnn795+OtopP6iKOiPaxaj6j8BuZUj4eiyWYrA8kUakoaKqypxiHHkSHFKSluLWXqIUx1XbwRHPsEt9cek/6v8ATXkNlir5t/tafxWHxn5mCJtMRHja+KcmOse28MF6bc5/IOsNruMk6bXNb5GT9XLpETPurfyXn3VepEeVjdsAAAAAAAAAAAAAAAAAAAAAAAAAAAAAAAAAAAAAAAAAAAAAAAAAAAAAAAAAAAAAAAAAAAAAAAAAAAAAAAAAAAAAAAAAAAAAZL/y0ANDtBfoTpX9pdcfk6mAS0AAAAAAACIs23jrrBHXodncHYWzBqS5T0jabGc04ku1qSonGoUN4uz+x55tfbx4cBMOD6F6j56tc21w/L2lu7JlnyVmPbHZNrR761mPewHJdS8Rxlpx5snnzx+RT71vhPdET7pmJVYk9ROBQrKwn47pLGGpVnLlTrK2kt00KytJc53v5suw+BoHnH5cx9KXHXXJDinFlxVxMiMWri9Oefz7bHt+R5zdTixUrWmOs5LUpWsaVrTzZYiK1jWK1ilYiO72IRfq7i8ea+Xacbhi97TNrT5ItabTrM28tJ1mZ7ZmbTrPe4UrqCwS+5Y2WaKwy5gf7Jtymaax7tJmSjNMayxt5l3ipBf28yO0uPHsHPi9POf4/XLxHPb3BuPbWclNf2qZomPHt0lx36r4vdfc3/GbfJi98Ut9lscxP2LN4d1Fa1y5xqIuyexuydUlCIeRIahtOuGRdjFk08/XGSlnyoJx1pxZ8OCOJ8BV/M+nHU3D1nNXFXc7aO2bYZm0xHvpMRf3zpW0R7Uz4/q7ht/MY5vOHNPhk0jX4WiZr8NZiZ9idiMjLiXaR9pGX4GQgaTgAAAAAAAAAAAAAAAAAAAAAAAAAAAAAAAAAAAAAAAAAAAAAAAAAAAAAAAAAAAAAAAAAAAAAAAAAAAAAAAAAAAAAAAAAAAMl/5aAGh2gv0J0r+0uuPydTAJaAAAAAfilJQlSlKJKUkalKUZElKSLialGfAiIiLtMfsRMzpHbMkzERrPcoHu7qJnW0qbieAzlwqVha4tlkMRZol260mpt5itkIPmjVfHs71Bk4/w7FE2fBewPQ3pzg2mKnL9QY4vvbRFqYbRrXHHfE3j8q/6M9lPGJt+LVnUvVuXPe2w4q0128dlskd9vbFZ8K++O23h93vqfX11jbzWa+rhTLKwlL5GIcGO9LlPrPt4NsMoW64f9T4F+AtrcbnbbPDbcbq9MW3pHba0xWsR75nSIQTFhzbjJGLBW18tu6KxMzP0R2p5pOmDalwyh+REp8fS4klIRd2Zpe5TIzI1sVca1dZUf/CskqIz7SLtEB33ql0ps7zTHfNuJjxxU7PryWxxPxjWPZKUbbornNxXzXrjxRP59u36qxaY+nSXLtOlbaVcwp6L9OXakp5vh6u2ebfVw48Up+bwKlk1cC4/7fb/AKxw7X1X6V3GSKZf4nBEz33xxMf/AB3yT9jkz9D83ir5qfJyT7K2nX/PWsfagW8x+7xqe5WX9VOqJ7XaqLPjuR3FIMzJLrXOkkvMr4f2rQakKL8DMT/Y8hseT28brj8uPNt5/KpMTGvsnTumPGJ0mPGEW3O03Ozyzh3WO2PLHhaNPpj2x747E7aa37cYHKiUeRyJNthji0tcjnNInUBKMklIrlmZuuQm/wAXIpmaeHE2iSriS4F1p6f7Pn8V9/xta4eaiNdY7K5fdfwi0+F+/wALaxpNZR071TuOLvXbbyZycdPZ7bU99fHT21+muk9k6RwZ0OzhRbGvkNS4M6O1KiSmFktmRHfQTjTrai7DQtCiMhrVnwZtrmvttxWaZ8dpras9kxMTpMT8JXBiyY82OuXFMWxWiJiY7pie6XKHE+wAAAAAAAAAAAAAAAAAAAAAAAAAAAAAAAAAAAAAAAAAAAAAAAAAAAAAAAAAAAAAAAAAAAAAAAAAAAAAAAAAAAAAAAABkv8Ay0ANDtBfoTpX9pdcfk6mAS0AAAAAq51QbFfxfGI2J1T6mbXLESEzHmnOV2JQsGhuUkuB8yVWri+5I/wNpLpfjwMWn6W9N05TlLcvu667TaTHliY7LZZ7a/7cR5v1pp4aoT1ry9tlso2GCdM+eJ1mO+KR3/8AF3fDzKE4pjFtmWQVuN0jPfWFm+TLfNzEyw2kjckS5K0pUbcaKwlTi1cDMkp7CM+BHf8Ay3KbThePy8lvreXb4q6z7Znuitfba06REe2fYq3Y7LPyO7ps9tGuW86e6I8Zn3RHbLU/W2rcZ1nVIh1EdEi0eaQVrfSGkfMLF4iSayJXFZxYSVl/lx0K5El2nzLNS1ap9S9Vcn1Pu5zby012tZn5eKJ+5SP9VtO+8xrPhpGkRd/D8JsuGwRjwRE55j715j71p/8AKPZWOyPfOsz2HIc3xDE+QskySnp3HCSpqPNnMty3UKM0k41DJSpTjXEuBqSg0l/UxjuO4PmOX1njdtmzVjvmtZmsT7Jt+LE+7XV293yXH7DT+MzY8cz3RMxrPwjv09+jiUGxcFyiR8HQZXSWczifLCYnNJmuESedSmYjxtyXkJSXapCVEX9THLyHTnPcVj+dyG0z4sP501nyx8bRrEfCZh8bXl+M31/l7XPjvk9kWjX6Intn6IdJzW50vneWq0Tk2RY7L2I/jb+XQsTTOZRlldTIfbifPq8iJTkRaXlEZIM+Z5pKlKbWySxneE2XWvAcR/XvGbbc06cruY29tx5Z/h75NJt8q/haNPHuraYiLVvNWN5LcdO8pv8A+mN5mw25acM5Yxax82tNdPPX2dvh4xrrE11Z3bL17a61yeTj9ir4hg0FLqbJLZttWda6paWpCUcy+6eQtCkOt8T5HEnwM0mlSti+meotp1NxdeR20eXJr5clNdZpeO+NfGJ1iaz4xMd06xFS8zxOfht7O0zdte+tvC1Z7p90+Ex4T7Y0mbPdKOxXlrm64tHzW2hp61xpTh9rfKs3LWsSfbxQrn+JbTwLl4PGZ9qSKr/VnpykVp1Jta6WmYx5tPHwx3+zyTPjrT2SmnQvL2mbcRnns0m2P/VX/VH7S7oo1ZIAAAAAAAAA6XsTYeG6nwnJNjbCu2cbwzEa5drkF2/GnTUQIKHG2e8TCq4s6ymPOPPIbbZjsuvOuLSlCVKMiAfF0/uXWm+8Erdl6lyhjL8Kt5NlDhXDVfcVDhy6ic/W2EaVU5BX1N1XvsSo6uCZEdo3GzQ6jmacQtQScAAAAAAACh2Yfc16IMCy3KcFyzdvynKsLyO7xPJavy225O+W5BjlnKp7mv8Ajq3AZldM+DsYbjfex3nWHOXmQtSTJRh2fUf3BOkTe2e02sNVbb+qc5yBq0eqKP6C2bR/Ft01VMurJXzLI8LqKhj4asr3neDshBr5OVPMs0pMLlAAAAAK/dRPU7qDpZxWlzLcd7OpKXIMjj4vVHW01jezJFm/DmWK1fBVjL76IcSDAccddMuCeCUlzLWhKgneDOh2cKHZV8lmZAsIsedBlx1k5HlQ5bKH40lhxPFLjL7LiVJUXYaTIwHKAAAAAAAAAAAAAAAAAAAAAAAAAAAAAAAAAAAAAAAAAAAAAAAAAAAAAAAAAAGS/wDLQA0O0F+hOlf2l1x+TqYBLQAArxsrqv6etTd+zmO0cbas46nG10NJIcye/Q+3zF8PIqMebspdeta0mklSksNkf4qL8RY3TPpL6idXeW/C8VuZ2ttJjLliMGKYnxjJmmlbx46Um06d0SiXM9ddJ8DrXkN7hjNH5FJ+ZfX2TXH5pr+15Y96K9A9bWKdR+07jAMCwrIoVJR4tY5NMy3JJUGE68UO0p6mNCi0MD5mRfHvWxuJcdmNrS0yfFrmMyRK/UH0O5b016Uw9Qc/vttffZ93TBXb4a2tEebHkyWtbLfyfiRj0mK45ibWj72kduD6V9Sdj1hzmTiuL22au2xYLZJy5JrEzpalYiKV834021iZvE6R+L7IP6ir1y82xkZGvmj0pQqKInjzd23BjIckoIy7C42Uh9XD+nN/iJz6cbCux6S20xGmTP5stvfNrTFZ/wCCKR9CN9XbqdzzuaNfuY9KR+zHb/mmye+kPFGUV+S5q+0SpMiWnHa9xSS5mY0ZqPYWJtn+JplPSGEmf+LBl/iIB6wcte2423CUn91Wnzrx7bWmaU1/ViLz+0lHQOxrGLNyNo+/Nvl190REWt9czX6k1by2S5rXDVza/kO/uHzq6QlpS4iO8ppbsmycaWRocRBZTxSkyMjeW2SiNJqEI6F6Zr1NzUYNxr/L8NfPl07NY10rSJjum098/mxbSddEj6m5ieH46cmL/wDVkny0906azb9mPtmNexn1h2v883Dc2UmuM50gnUv3OQXkx5MVp+Rx7v4qWbcmS++4SD4IbQ4sklx4EkhsNzPUPAdG7LFj3P7vHppjw4qx5piO/wAtda1iI9tpiNZ79VU8fxXKdQbi98P3r663yXmdImfbPbMz7oiZ09zm59pnPNXtxbS2biSK832kNXdDLkSIsWZ/zGW3VPRoM2I9zJ/sWppKDUXBKjMcHT/WnAdU2vtdpN67jyzriy1iLWr3TMaWtW0e2ItM6d8aOTleneU4WK588VnFrGl6TMxE+GusVmJ9k6aeyWNPVHBznSO+MW6lcLya8PIrjJU5J87tLKZbTYWZ1ZtOvRZUqa+5JmUd3WcW/hHFraOMl+PwKPyNlun6Vbjguuegd36Zc3tcH8uw7X5PysdK46222TWItWtYitcuK/b8ysRbzzjyduTzWa99a4uT6b6nwdY8dmy/xeTN8zz2tNpjNXSZiZmdZpevZ5ZmY8sWp+LpD0LbDvKXffTPr7eVNFSwuxxzGcyjsJcJ96ujZPGgsXtC69yIJ1dVYvpQ6oiL/MiGZdhnx86+ndhvegPU/kehN7bzRj3OfbTOmkXtgtacWWI7dIyUiZrHsyRr2tr+W3O26o6M2nUu3rpN8OPNEd81jJFYvSZ/RtOk++irGuL1zGs8xG7bXyJhX1d8QZHy80GQ+mJYN8x9ie9gvuI4n2FzC1updhXk+A3mxtGs3299P1ojzUn6LRE/Qg/D7qdnym33MTpFctdf1ZnS311mYXQ6neq+o6Xp2vnMnwy3yXHM4XkTEmzoLKE1aUkmg+SrJtFPYtx4tomwZuDUg/jY3dnHUR8eYjKlPS70l3nqng5GvF73DteS2MYZrTLS00yxl+bGs5KTNsfknHpP7u+vnjTTSdbF6066wdE5dpO922TNs9z8yJtS0Rak08n5FtIt5ov2ffrp5Z9rl6161umraPdMU2zKeitXTQn5HmyjxCx71w+Dcdh25OPVWUhZ/giJJkH/APEcXU3oh6m9K633vGZs+0jX97tv/sU0jvmYx65KR78lKPvhvUfo3m9K7fe48WefyM37q2vsib6VtPupay1CFodQhxtaXG3EpW24hRLQtCyJSVoUkzSpKknxIy7DIVRatq2mtomLROkxPfEpxExaItWdYl/Q/H6AAAAAMlfuY28zbOUdM/Q/jst5ud1AbLrMh2F8HxVJg6swiV8xsn3EEouLa3Y0mxa4cOLlGZGpJcTMOF0TrjdNvV/1U9Fxt/LcOurJjqC0hB4qbgxaDIWIDWSY/VpXxJbFW1KhRY6E8FEmokrUaz4qILfdXPVxjfSJR60yXLMdkXdHn2yKvArCwZtSrGsUhzocyfNyeW2VZaP2USrhwlrXHaShxwi/tVx7AFS5f3EeonIYcnY2ougjaWc6Gik9NhZxaZGjG8oyrH2SUtWRY9hKcctrF2A4yhTrHcHOKQ2RcVtmZkgLMYr1y6t2F0q531S6+h2N9V67xvIbbJ8DsJEamymmvMbrysJuL260FZxYUp+OtDjEhBPsOsOoWnj/AHJSFYqn7mOxty1NQ/0odI2c7rmNUNRY5/aysjYxjC8JyCyr49i/hMTJJ1IUbKL6raf5JPKcPlWXFpDyD5iCxvSt1w411FZNluqsswHJtHb8wJn4rKdS5q4T01UBK2WnrTHbNcKqduIEVcpk3e8iRnCRIacQlxlZOgLygMTOhbS2nNqb1+4tM2fqbWex5lR1dZ9FqZee4Hi2YSayNJzHOnZMeufyGqsXYTEh1tKlobNKVqSRmRmRANTsR6c+nvX9/DyvA9EaawnKK5MpFfkmI6vwjG7+AidFegzUQ7imo4VjFTLhSXGXSQ4knGnFIVxSoyMKRZb9y2JT7h3B0+4foLPNl7kwHJ6vGsIw/E7eO6nYSHq21tb/ACGys3KU2MEx3Fo0KMmU+6metTk5vlR3aHXEB/vqD7gWby934r0+9UXTjkXTnm+xGn1a5t3shayrF8nmtEfJU/HsVkJhiS+42ppDsd+Yj4hbTTqWTcQpQSr1VdcGP9O2TYjqnDtfZLvTfmetfF4zqTC3jjzm6vmfSi4yCzar7h6pgvnEfU0SIchZtx3XXCaZQboCtWQ/c52PpOmsn+qrpCzrTlpKqp8zAJsXJ42RYZmtzBYKYeJSMmh0q2MbvpMNK1MpUUznUn/MSyk+YgmLqY6htSK6TNG7z2roaj2zim1LXTV5U68ylVJaM4vcbIxZ6/rbL4u3obGFKmUEWS7FWtEZk5Dbq0/2oWpBh3zq363cH6O8j0xU53jNlZY9tVWfFKyCqmJQ5i0bAoeMSVk1Ror5T19LuXMmbYjModipS6kiWskqNSAq9l33I+oPXEONszYvQTszE+n6Q/GN3NJWXQX8vqaie+2zAu77E26Im6JyV3rafhJ0iK2TrqWylqUaecNFci6hNSYppBPUVe5ZFhamdxKozSNkimnlnMqMgYhu0TMOAhCpki2tnrBiOxESjv1SXSa5SVxIgpnG64upa8oD2XiP289s3OmHIqbeBk1js7B6TZVljzjLb7NtA0sdfY5LYHKZeQ4w3GkvpfZV3jbiklxAXL6f9/646lta1e09YWEyXQT5MusnV9tFRX5DjV/XG2VnjmSVjciUivuYBPNqUhLrrTjLrbzTjjLjbigmoAAAAAAAAAAAAAAAAAAAAAAAAAAAAAAAAAAAAAAAAAAAAAAAAAAAABkv/LQA0O0F+hOlf2l1x+TqYBLQCtfWHMmQOmLdUqBKkwpSMJnoRJiPuxn0IfejR30JeZUhxKHmHVIWRHwUhRpPsMyFmejeHDuPVHhMW4pW+Kd9SZi0RaNYiZjsnWOyYiY9kxE96HeoOTJi6L5K+K01vG2t2xMxPbMRPbHtiZifc8qI9YmjTWP7Sy4pbQ2o2sm/jVYFXrjmaOLpRUZDFTMJDvKfI2brjHMniXMfKfA+Xs1I/u6rl/pbibRr8iOQvE9vZ5pw28use3SLaT4dvtXv6DzT+d76J0+Z/C109unzI1+3TX6PYmzb6FI2jnqVpNJnk9qsiUXAzS5JW4hX+paFEZf4kYg/R0xbpXj5idY/hcf2V0n7Uk6giY5vdRP/AK9vwrx9K7zTuq0IbUSlx8huGXyL8UOqKJIJKv8ASbD6D/1GQor1WpevVc2tHZbb45j4fej8MSsvoe1Z4PSO+M14n49k/gmEd9Y0aQuHgExKFHEYk5JGecLjyJkS2qR2KhX9OZbcJ4y/0JMSP0Zy44zchhmY+dauG0R46VnLFp+ibV+uGJ9QqXnHtckf8uLZIn4zFJj8Eu29JtxUSMCsKWO4yi4rryXLsY3FKX3WJzMYoc7l/wBpxlSWDZ5v6Ka4Hw4lxxHq3s95j5/HvckTOzyYK1pbwiazbzV909vm09lvi7/Qm4wX4u+2pMfxFMszaPHS0RpPw7NPod76hLimq9V5LHtnGDdt47VdVRHDSbsqyVJYeYWw2fapUHuviFK/BKW/x48CPAenez3u66r2uTaRbyYbTfJaO6tPLMTrP6WvkiPGZ+LJ9Wbjb4ODzUzzHmyRFax4zbWJjT9XTzfQ85vXvOgtaoxqve5Fz5meQZMFBuGhxDUGivkTJSUkXB1DZTG2lJPsI3iP8SIekX9v+DPfq3dbimsbemwtFp07Jm2XF5a+6Z8s2if0ZjxajeqOTHXg8OK3/NtuqzHwil9Z9/fEfS1w6WY8mp+2drdu0QuK67ruwkNJeMjUqNc5rbS6dZGRq/smRJzCmy/4Vlx4fgNQfVbJi3f9zvJ22kxesclSJ0/Ox7bHXJH7NqWiffEr66JpfB6N7OM0eW07S0xr7L5rTT64tGnxV8gtvPTYbMdRpfdlR22FJI1KS8t1CW1JSRGZmSzLgRdosPPalMF75O3HFJmfhEdv2Inji1sla1/Gm0afHVIH3bVtFgGoGjW2T68wyBbbZqSTqmm6WMl5aEGfOptC3WyUZdhGpPH8SEf/ALQ63/qHmLRE/LjZ4omfDWck6a+GsxE6fCfeynr1Nf5Vx8dnm/iMnx08ka/hjX6GFw3wayPRl9sKfZTemNDU+XLlM1uwMpgVSJTrrrcOtKLSTPhIROGZNREz5khfIjgknHFn+JmPN3+6Pb7bB6oTbb0pW+Xj8F8k1iIm1/Nkr5rad9vJWkaz26RXw0bd+i2XNk6L8uW1rVpu8ta6zM6V0pOkeyPNNp0js1mWiA1zW2AAAAAPPTrXZPUJt/rn3n1f6Z6apHUng2DuXHT5raQe3sF1PVY5Fojrkybesk5e3Nl3bl5DdlTeRtkksovV86kmaG0hw+rfZPVLiG7+nXrY2X0iTdCU2kr2Phub5BB3hrzbC8pwrLbJUZVA9X4kzW2lSTMC1uWmnnG5EdciyQlRtqJJOhYT7wU7C7zVfStZZDLYma7uOorDZ15PZcUcaVhdhjlu/Zy2nm1tKNh+jeWtKkqSfKfEjL8QGyNa1Xs18BmobhM1LMKK1WNVqGG69qvbYQiE3ARGIoyISIxJJomyJBIIuXs4APO42UGPkP3tYWA/C+WTeGOvTG65RKrI+fuVeYfPG4SWz+Gae+d/OUyEtkXBTaEn2JSQDUH7Z0fCWOiLQ54MmCUN/GpcjIVxCa753Nl3FinMFWS0KW6uci8Q62XeHzJYQ0lJJbShJBW3qVKDG+6v0OPYT8KnYE3Dc+Zz5uKoikvYAinykq9y5baMudlMQro46neP+Yynh/sI4BsCAwA6U+j3pz6m9/fcGt94a7+t7HFerPYtbQSPq7Osb+AhWOaZxKmM91iOT0DErvn2EK5nkuLTw4JMiMyAar6K6KOmTppye0zLSes/orJLqhexmzsvrPYGR/E0ciwrrV2D8HluV30Bnnn1UdzvW2kPF3fKSySpRGFPOiiiq5HX19yvJnojS7uoynVVFXzzSRvRqvIouYWFxEbVw5iamy8XgrWRHwM46eP4EA533I4UVe4PtwWC47Sp0XrL15CjyjSRvMxZ+UYe/Mjtr/FLUl6uYUsv6m0n/AB8bpvTEkfdU643svJtebw8G1w1ghTeKpDGAuU2K/NVUpOoSTUJajqTf7rgXeuK4mpSlmYT79z5jEXuhzep5emAbDFJTP0C5hNd81lycmpkY2qtUsjdRPcsHEt8W+CjYW4lX+WawFGur7/2s+iH/wDj7/8AVwCcuvygqcm6y/th1F5DZsK1ezdtT3YchCXGHn6UtRXUEn2lkpt5lE+vaUpCiNK0kaTLgZgLs9ZUOLO6RuqBiYw1JZR0/bgmIbdSS0JlV2AX9hBfIj/B2LNituoP/dWgj/oAw/6kU3bv2vPt/wAdFsqgwqTnev2c2vl1jN3XUrKq/KyqbO8pJLjcK5qK9ZvvriyTKLIeaaQsyUpADTmP049e78dh6L9zBl6K8y07Gdj9HOknI7sdxCVsuMON3xtrZW2ZGk0maTSZcOwB2jof6VZfTV522Mve1dvCVtjYCsnvZlPhFRgtbQZnAk3bWWspqaDKskp482dYWKUPxWG4LcE4qWktEkiSgL5AAAAAAAAAAAAAAAAAAAAAAAAAAAAAAAAAAAAAAAAAAAAAAAAAAAAAMl/5aAGh2gv0J0r+0uuPydTAJaAcSfAg2kKXW2cKJY11hGfhz6+fHZlwpsOS2pmTElxZCHGJMaQys0rbWlSVpMyMjIxy4Nxn2uem52t749zjtFqXrM1tW1Z1i1bRMTW0T2xMTExPbDjy4sWfHbDmrW+G8TFq2iJiYnsmJieyYmOyYnslBB9KHTSZmZ6L1hxMzM+GIVCS7e3sSmMREX+guwT6PVr1NiNP59yn/UZP8UY/oXo3/tmy/wBqn+DuWEaU1HrWzk3Wv9c4hh1tMgLq5dhj1JCrJcmudkRpbkJ56K02pyOqTDaWaT7OZBH/AEGF5zrjq/qba12XUPJbze7SmSL1pmy2vWLxE1i0RaZ0ny2tGvsmWR43pvgeHzW3HFbPb7fPavlm2OlazNdYnSZiO7WInT3KQdT+NO0mzZVsTZphZRAhWbCyIu7+KisN1s9lJ/j3hORUOqI+P/PL/HgV5+lvJ033S9dpM/v9rktSY8fLaZvSfhpaax+rKtetdnbbc1bPp+7z0i0fGI8to+yJn4u6dJucsVlzb4NPeJtq/wCSzpjWokt/NYbJtzYqSP8AF6dASlafwL/w3D8VEQwnq3wV91ssPO7euttv9zJp3/LtOtbfCt9Yn9fXuiWR6E5OuHcZOMyzpXL96n60R2x8bV0n9n3vgfcl6msT6e9S0tfb4jZ5flGd3BtYhGbTJr6WseolxH7a3sciKJJixpMeBO7piIklyJJvn/alpLjich/bR6X8t6idXZ9xs95i2fFbDDruJny3yXjL5ox46YfNW1qzevmtknSlPLHbN5rWer6wdZ7HpTgceLcbe+43u6yaYojWtKzTSbXtk0mImK20isa2tr3RWJmKCar6ldeZgzFucPzxrHL5KE95WTLYsayavdWkjcZQhUmO5LQk+BG7FceZPiRc3HsGwPVfpl1Hw177LmePnc7CZ7L1x/OwXiO6Z+7MVn9HJFbe7TtVZwnWPE8hWu44/dRh3X5s2+XkrPs741+NZmPe7NsvqDw+lafutibNi2EyM053UWZf/Pb14i5l/C11WiTKnqSpfYSUIS0gzLmNJdoxnTHp3zO+vXY9OcXfHhtMa2ri+Vijw817zWtO7xmZtPhrLucz1Xx+3rO55be1vkrHZE389591a6zb6o0jx0Zz45j2xvuIdReOYRitfPqMJq3TOXONlUiNhGElKbXeZVduo5ohXlq20hthjmJD0nuIyVGRKdPZHkuR6b/tz9N9zznLZMebnMsfdrrpbc7nyz8rBij8b5WOZmb201rT5mSYjWKRUmz2nL+rPV2HjdjS2PjaT2201jDh1+/lvPd57aRFY7pt5aRPfZ6K+oq2oMB15hulMTbRCr66qoYDNa0s1prMRxaIzXUFeszVzf3uwWuTjxPlimZ/iRjzg9ONpyHUHUe9635eZvuMmXLebz+XuM9pvlvHwi1tfff3S226uz7Xi+J2/TmwiK4qUpWKx+TixRFaV+usafqq46YxlzK9l4nWk2a40ezZt7AzRzNpg06isXkvf0SiSphLHH/idIv6iyeteTrxPTG73MzpktinHT2+bJ9yNPfXWbfCsoh07sp33M4MOn3IvF7fq0+9Ovx08vxlpbnWrdcbOarWNh4TjWZs07kl2rayOqi2iK92YllEtyImU24TKpCI7ZLNPDmJBcfwGsvA9VdSdL3y5OnN9udlfNFYvOHJak3ius1i3lmNdNZ017tZXJyfCcRzVaV5bbYdzXHMzWMlYt5ZnTXTXu10jX4I5/7T+mn0M1j/APiNT/8ATiR//wBb9Tv+/cp/1GT/ABYj+hejf+2bL/ap/gmjHMax7EKWDjmKUdTjdBWNqar6ajr4tXWQ0OOLedKPChNMx2jefcU4syTxW4o1K4qMzOFclyfI8xvcnJctnzbnkMs63yZb2ve0xERGtrTMzpEREdvZEREdkQkWz2e04/bV2exxY8O1pGlaUrFax4zpERERrPbPtmdZ7X2x0XZAAAAdL2Pjl7mGAZrieMZOWFZBk+L3mP1GX/KlXi8YnXFdIr2L5ioTZ03x8qqVI75ls5TKTdQnmM08SMIm6UOnKi6VNHYnpmjtzyM6FdrYXWUuVaaZ/Jr26spNhOtXqtNhalBJLbrcZlr4l4248dtJrUZGow7fv3TtF1Aaa2LpvI5HwVZn2NS6UrMoiLBdLaJU1Oob9qC49GRMfoL2JGmttG613i2CTzo48xBjX9wLS8zWPS10L6HzjLy2kxjG/cLwGZkaqSTiZ3mKprsgrKqucq28hv5MA63F3WK83G5ylOEx3ie7NRISFhZHQt1k4nWP6t07175Pi2iFtFW09PkeFVl9sXEMdNPcopKXOmlRr/uqyOXdxFxJ1SlpskoQhskEZh2/ZPS/rvpQ+3Z1Ka7wH4+xdm6r2DfZZl14pp7IswyOXROtv21s+yhDSENMNIZjx2yJthpH+84p11wKr9JnR/v+H066g2h0l9Utto93ZuDVV3sLAslxisz/AAebkncHXSMox2Ffx7VigtLJiCg5RJiuLcXwNDzbaEMpC+nSr0QRNEZllW6tnbKv989Q+cwvl17svJ2DjM1NUtbS3aXFKt2XYOV0RxEZhlTinj4R47bLDcZjnZUF8gGNGR/az3GvaO4ti6w689maZh7g2ZmGyLbGMCxTKaSMzJyjIra9jQbGZj27Mdavn6Zq1VHRKcjNKWkjUTbZKNBBM/Tr0OdQmmNuY1sXPOvjcu8cXo2L1qw1plzGbooL5dtQWVRCemKudy5dXEqnmzm5rXPAePvY6eU0K4LSFhtIdMvk3u7qf3J9bfUf/chkGD3v059N/J/o36MiZRF+F+b/AD+0+ovmX1Jzc/wsHue54cq+fikHUh0y/wDcHlXTnk31t9I+QG6sY3B8F9N/P/qz6csa2w+nfifn9L8h+M+X8nxfdze75+Pcq4cDCqnVvp/TW5upfA6nXnUBN6eeuPHMOdvcTvaaqsnSyXCm5DrTVTfEs6mouHXCky247TM5cpcP4lL0aVHaJtsKi9bvTZtjHenPPtqdavVzN2/PxWtTWab15j+M02AYk/sO9U3T1drPrqNisTlF1ChSpLyEJhtuRo7Dzzj7jPetgL433SVZ9Q/Q30s6WussXrW5wTEOnrI7aW7jR5O6mzwPXsKtn4+5XHfY4bC3pUpaTf75XdG3/wAtXHsCdN39MvnJu7pg3J9bfTn/AG35BnF79OfTfzj6y+s4mLxfhfm/z+r+nflv03zc/wALO77vuHKjk4qCZdwYB5r6l2jq35t8h8ytdZtgHz34D5p8l+scas8d+bfLPjK75j8u+Y993HxDHfcnJ3iOPMQQ5iHShgsLpTxzpO2S4xs3DarDImIW1g9WuY6u3+BlnPhXMKExaWsiisq+ehqRGW3LdcYfZStK+JAK2VPQt1I4XQt601p9wjauK6WiqTDqsUttYYVlWwaXHidb4UlLuF+zrMip0xIbKWYiokZhiGkuDTBN8WzC3XTd01az6W9et6/1tDnOIlTnbrJ8ovZCJ+VZnkUlCUSr3IrJDMdD8lSEEhttptthlsuCEEZrUoLAgAAAAAAAAAAAAAAAAAAAAAAAAAAAAAAAAAAAAAAAAAAAAAAAAAAAAMl/5aAGh2gv0J0r+0uuPydTAJaAAAAAQxvLWnmThzkeChH1FSLcsqFauBG853ZJmVilqMiQ3ZMoSRGZkRPIbMz5SMTXoTqf+muZjJnmf5dniKZY9ka/dvp7aTM/szaI7ZhHepuG/nHHzTFEfxeOfNT3+2v7UfbEeDLhtc6onpcbVJr7KtlkpKi548uFNhvcSP8A3XGZEd9v/QaVENqLVwbzbzW3lybbLT3TW1bR9UxMT9MKTicu3y6xrTNS3wmLRP2TErnVWzNTb7waVqrqDoaGziWrDUWe3kEdKcdu3GjL4awZmNqZcxq8jrLvEPtuRzZdInGHm1GSEUruumOrugOdp1Z6d7jcYs2K02pOGf32KJ/GpNZ1jNimOyazF/NX7uSlo1tNiYOZ4LqnjLcH1XixXpeIi3zI/d307rRPZ8u8d8TE10ntraJ7Iobsv7JGvb6xfttP7ou8OqpbnxEfH8qx6Nm8Rht5RKNqvv4Fxjk1MNlKv8on2pbppIiW6o+Kxf3TH98XUWw21dp1jwmDe7ukaTlwZrba0zHjfFfHmr5p/K8tsdddZikR91WHMf238Tus05+A5HLt8Fp1imXHGaI18K3rfHOkeHmi0+20974GEfY5pI1q3J2Tv6ztqRtZG9VYVhcXH7KS2RkajTf3l3kcWEfAjLh8uf8Ax48S4cDyHOf3177LtJx9M9PYsO+mOzJudzbLSs/+1ixYbW/3q+zTxdXjf7attTPF+Y5W+TbR31w4Yx2n9u98kR/ty0NoHenno9wZ3XWjMcp0WSiS5Mar3l2cuxt0NKZK5zjJ1uOyrOahXN/kd8a2kn3TTcdk0knXPkKeovrJzsdSdd7nNO27qzeIpWmOZ1+XtcERFaVns+95dLT9+1sl9dbY2tuk/T/jJ4jpnDj+d4xWfNNr93nzZO2bT+jrrH4tYpXTSn99e22TW8+9vJjs+0snzflyneHFauVKEIQhJEhphlpCUNoSRIbQkkpIiIiFxbDYbTi9nj2GxpGPa4q6VrH1zM+MzM6zMz2zMzM9sq/3W6z73cW3W5tN8951mZ/8dkRHZEd0R2Q0I6atXP4bj7+U3cY2MgydhnuI7qeV+soiNL7DDqTSS2ZNi7wedQZmaUoaIyStKyGvHqb1Tj5nkK8Vsbebj9radZjuvl7pmPbWka1rPjM3mNYmJWv0dwluO2k73c103eaI0ie+tO+In2Tae2Y91e6YlZwVemgAAAAAAAAAAACvvUB01a76koWBQNhP5IwzrjO6zYmOqxyzi1rh5BUNPsxCsDl1tkmTA5ZCuZoiQaj4f3EAsEA6HtDXWP7c13mmsMrXYN43nmO2eL3i6mS3Dsk1ttGXFlHBlPR5TUeSTSz5FqbWRH/QwHF1Hq/G9K61w7VWHuWjuMYNTtUdK5dSmZtoqCw46638bLjxYTL7yTdMuZLSOJEXZx7QEjAAAAAAAAqp1N9G2mOq2HQL2JDvabK8SeU9iexcGs2cezrHiU535xYdu7CsY8iB8URPJZksPoaeI3Gu7WpSjCv2uPtdaRxbNKHPtl55uTqIvMUlNzMWg7ozJGSYxSSGFMOx5LdG1XxTnPNSGSUbcp96GvlRzRzNHMYaWAAAAAAAAAAAAAAAAAAAAAAAAAAAAAAAAAAAAAAAAAAAAAAAAAAAAAAAAAAAAAMl/wCWgBodoL9CdK/tLrj8nUwCWgAAAAABWndHT9Bz9buR40uNU5aSP/EodLu66+JtPBBS1NpUqNYkkiSl8iMlkRJcLhwWizeivULP0/EcbycWzcRr92Y7b4tfzdfxqeM08O+s98TDuo+lcXKzO82cxj3+nb+bf4+y3st490+2M+sjxbIsRsF1eSVE2omp5uVuWyaG30JPlN6JITzR5jHHsJxpS0Gf9RsNxvK8dzG3jdcZmpmwT41ntifZaO+s+60RPuVRvNju9hl+RvMdseT3x3++J7pj3xMw/KnK8ooUKboskv6VtfE1IqbixrkKMz4nzJhyGUnxMN3xPFchbzb/AG23z2jxyY6Xn/NEmDfb3axptc2XHH6N7V/BMORZZrmVywcW4y3JraMZGRx7K+tZzBkouCiNqVKdbMlEfA+ztHxtuE4bZZPm7PabXDl9tMWOs/XWsS+s3I8huK+TcZ82Snste1o+qZl8upp7a+nM1lLXTbWwkHwahwIzsqQsiMiUvu2kqUltHHipR8EpLtMyIdrd73abDBbdb7JTFt699rzFY+ufGfCO+fBwYNvn3WWMO2pbJlnuisTM/Z+HwXl0102Jo5ETKdgtsSbRhTcmtxxC0SItc+hSXGpNo82pTEyY0tPFLKDWwg+1SlnwJFE9aepk77HfiunptXa2iYvmmNLXieya0ie2tZ8bTpae6IrHbNmdPdHRtrV3vLRE547a4++Kz4TaY7Jn3RrWPGZ8Lhim1ggAAAAAAAAAAAAAAAAAAAAAAAAAAAAAAAAAAAAAAAAAAAAAAAAAAAAAAAAAAAAAAAAAAAAAAAAAAAAAAAAAAAAAAAAAAyX/AJaAGh2gv0J0r+0uuPydTAJaAAAAAAAB860qKq7iLgXNZAtoLnauJYxGJsZRkRkSjZkNuN8xEfYfDiQ7O13m72OaNxssuTDnjutS01n64mJcOfb4Nzj+VuKUyY58LREx9UohsunTUNk4t08XOA65zcyq20tojZGouBKRFKauG3yH2kSWyLj+JGQmG29R+sNtWKfxXzKR+fTHafpt5fNOvvlgM3SPAZpm3yPLafzbWj7NdPscaB016hhKStzHpVgpHEy+PurZaTM1EZGpqNLjNL5SLhwNJpMj7SM+0cuf1M6wzRNa7muOJ/Nx4/wzW0x9er4xdHcBjnWcVrz+le34ImIS7R41j2Mxvg8epaymjmRczddCYi96Zfgt9bSErfc/xUs1KP8AqYh++5PkeTy/O5HPlzZPbe020+Gs6RHujSGf22z2myp8vaY6Y6foxEa/HTv+MvtjouyAAAAAAAAAAAAAAAAAAAAAAAAAAAAAAAAAAAAAAAAAAAAAAAAAAAAAAAAAAAAAAAAAAAAAAAAAAAAAAAAAAAAAAAAAAAAyX/loAaHaC/QnSv7S64/J1MAloAAAAAAAAAAAAAAAAAAAAAAAAAAAAAAAAAAAAAAAAAAAAAAAAAAAAAAAAAAAAAAAAAAAAAAAAAAAAAAAAAAAAAAAAAAAAAAAAAAAAAAAAAAZL/y0ANDtBfoTpX9pdcfk6mAS0AAAAAAAAAAAAAAAAAAAAAAAAAAAAAAAAAAAAAAAAAAAAAAAAAAAAAAAAAAAAAAAAAAAAAAAAAAAAAAAAAAAAAAAAAAAAAAAAAAAAAAAAAAMl/5aAGh2gv0J0r+0uuPydTAJaAAAAAAAAAAAAAAAAAAAAAAAAAAAAAAAAAAAAAAAAAAAAAAAAAAAAAAAAAAAAAAAAAAAAAAAAAAAAAAAAAAAAAAAAAAAAAAAAAAAAAAAAAAGS/8ALQA0O0F+hOlf2l1x+TqYBLQAAAAAAAAAAAAAAAAAAAAAAAAAAAAAAAAAAAAAAAAAAAAAAAAAAAAAAAAAAAAAAAAAAAAAAAAAAAAAAAAAAAAAAAAAAAAAAAAAAAAAAAAAAyX/AJaAGS4AAAAAAAAAAAAAAAAAAAAAAAAAAAAAAAAAAAAAAAAAAAAAAAAAAAAAAAAAAAAAAAAAAAAAAAAAAAAAAAAAAAAAAAAAAAAAAAAAAAAAAAAAAAAD/9k=;" vertex="1" parent="1">
          <mxGeometry x="100" y="100" width="160" height="80" as="geometry" relative="0"/>
        </mxCell>
        <mxCell id="4" value="Platform Icon" style="shape=image;image=data:image/png;base64,iVBORw0KGgoAAAANSUhEUgAAAWIAAAByCAYAAABp/dtVAAAACXBIWXMAABYlAAAWJQFJUiTwAAAV5klEQVR42u2dT2jb2L7Hf246b5L7uCOmTAcSiOA5cDdRKMXdqYFsuvHCXSZeuMzOhmcudKPSGu5bPNxSr3PB2U3RAyfLeqFNNoFEuwYvIm8uxAsF0jIMnafe914yMzfxW8Q/3WNFkv/Etuz4+wHR4sjWOUfSV1/9zu+cE2s2mwQAACA67qAJAAAgWu522iEWi8WC/oTmAwCANnxDDM0OoQc4YgAAGFdHLDjhWIBowxEDAEC4I75s6WmoM+4Umoi1tjutLeb5HAAAgL8QX7Z0stnaLrt2xIITZuGd8QjxnQAhhjADAKbdATcFEeatSUQXLX299HPGdzs44a9aQvz1Tz/99Jfvvvvu32Ox2AzaHgAAQtS52bz4+eef//r999//JxH91hLi31u6euHd/47ohFtuOCY44Rkiuvvp06f/uH///p8hwgAA0JlYLDZz//79P3/69OkvLcPLehoT5NaNIsTYIXs652ZaX/4DEc1cXFyc3rlzByIMAAA9cHl5eTEzM/NvLRf8P0T0j5ZDbhLRJYco/NLX7ni2ryDCAADQOy3t/Irakx6u6W6nGPHd1o8AAADoj39t6ehvLV3lWHGb+w0U89YGNwwAAP3DmWexMLENc8TIFwYAgJvRUUfvhIgvhBgAAAYnxIHairkmAABguPza2i7oKmuCR9oRhBgAAMYECDEAAAyX31vbRWvryREjPgwAAIMhVE/hiAEAYLjwzGtNzwYhBgCAcQFCDAAAEGIAAJhu7t6GShwfH1Oj0aDT01P6/Pkzffz4MXT/+fl5unfvHi0sLFA8HqelpSVcCQCAyBCnwWR3zLMFfU1EfySir5vN5t/GqdBnZ2dUr9fdbRAsLy+729zcHK4MAMBgRDYW+xNdDej4e+tfTmWjZrN5OXFCfHp6Svv7+3R4eDjU4yQSCXr06BGcMgAAQiyGHnZ3d6nRaIz0uPF4nJ48eQJBBj2RyWTINE1SVZV0XUeDQIg7CvFYx4jPzs6oWq0O3QEH0Wg0aGtrixKJBKVSqchDFnyDdwuEAIDJYGyFuF6v087ODp2fn0delsPDQ6rX67S+vk7Ly8u4aoaIbdtkGAYRESWTSZJlGY0CIMRRsLOzE5kLDuL8/JzevXtHiUSC1tfXIy9PN05XkqSJuyBPTk6oVCoREdHKygqEGECIowhFlMvljulnUbvj09NTyuVykYYqVFXF1QvALWFsBnRMgggzHz9+pHK5TGdnZ7iCAAC3Q4jPzs7ozZs3EyHCohi/efOGfvnll4kob6VSoUwmQ5lMhhzHoUKhQPF4nOLxOJXL5Wv727ZNhUKBHj586O738OFDKhQKZNt24HH4GJZluccRf2Ntbc33ePy9t2/fup+9ffvW/TysXqlUyv39eDxO+Xw+sFOT24HDH4Zh+H4/rI5+x+W2cRwHqgImLzTBTngcOuV65fz8nH788cfIwxTd4DiOK04slGEiUygUfH+jUqmQYRikaRql0+lr+/AxDg4OaGtr65ow2bZNpVKJvnz5QpqmXfueSFgZHccJFFzDMMgwDCoWi9fKyO3gOI5bH7/vm6ZJ79+/941RFwqFa98T22YSY/Ngyh3xpIQjOoUpJgnLskhVVdI0jTRNo5WVlTZBZBFWFIU2Nzep0WhQo9Ggzc1NkmXZdbphqXTsOIvFIu3t7VGtVqPNzU1XpMrlcpvr1HWddF1vE2dN09zPvYgirGka1Wo1ajQaVK1WSVEUVzCDymhZFlUqFUomk6TruvtdFm7HcWhra8v3emURFttnb2/PLXsnNw3AWDninZ2diRZhUYx3dnbGIpuiG9LpNBWLRd+/sQjLsky6rre5u2QySaqq0tramivGe3t7vr8jSRLpuu6KIn+fRZRFnx2nX+fjysqK7+fsWFnoRderKArpuk5Pnz4l27apUqkEdmx620FRFCoWi3R0dESWZfmKOIuzt31kWaZcLkePHz+mVCoFZQGT4Yjr9frYpajdBM41HhViTNNvC3Orouv0Chy7uWw26/uKLUlSm/MLCh9ks9k2EfaKMbvOfuA8Y0VRfMMjkiTRxsZG275+BD2MuIxeZ2sYhlvmoPZRFAUZLWAyhPjs7Ix2dnZuXWPu7OxMRCZFUAxTFFU/gfMT04ODg5GXXxzwEYQ33DIIRGEOax8AJiI0Ua1WJ7JzrhPn5+dUrVZHEqLoNKDDz4124ujoqKvvSpJEsiyTbdtkmiblcrmRtbEoqtvb24EiO4zsBT4WBpmAiRfi4+PjnkISs7OztLq6Gsm8wTzP8f7+ftcPjsPDw5HM3DbM199uev0XFxcj75SybTuSMiwuLkI5wGQL8e7ubk8inMvlaGFhIZLGWVpaoqWlJVpeXu4pxW53d/fWz9g2Dvmy3oyPQb4djHvdAYT4xg6zW1ZXVyMTYZGFhQVaXV3t+iHCq4WMQ9l7QZZlMk2zq5gqx5NH3THldaOjPL6qqmSaZmh+MwD9MNLOug8fPvS0fzweH5uG6rUs+/v7E3cxiM4xLNtA/Nuo46WyLLvHHFQnXLeIIZtRHxtAiAfC2dlZz+lq4/R636u7PTw8nLi5KJLJpCs2fiPOGB7AIklSaObCsEIAnJpmmmboA8M7aGSQ7RM0iCcspQ+AyIV4lDm2w6CfIcyTVmdJkiibzboil8/n28TQtm3K5/Ou0ATlIw/blafTaVcQC4XCNVHkcpZKJXr27NnQ2sc7t4RpmvTs2TPEkEHPjCxGPOlC3G+dHz16NFFlzuVydHJy4s6bYBgGqapKjuNcyzMeRi6tJEluLNYwDDckpOu6Gw/mUXs8gVGpVKKtrS1SFKWtnJIk0ebm5sDbxzAMd4i035uDJEkQYwBHPE5CPIkUi0V3Xgl2eixuPL9C0Ki0QfDixYuOsWdFUWhvb69tbgixnMlkkt6/fz/wjAl+KPjlTvPwanbNAHTLSBYPPT4+9p1ApRM8cQwzjFfhYR8/m81OdCqbbdt0cnJCRFcZC6PsnOMOMUmSOgqq2HmmKMpIZkAT3feo2wZMkMiOy+Kho159eZxoNBoTLcRilsKo6SU1LYr5HTiMAsBEhCZOT0+ntoGnue4AgDES4s+fP09tA09z3QEAYyTEt2HOYdQdADDRQgwAAABCDAAAEGIAAAAQYgAAgBADAACAEAMAAIQYAABAOyMZ4jw/Pz+1+bTz8/O4yjoQ5XwWAEyNI753797UNvA41j2TyVA8HqdMJhNpOSzLokwmQ2tra5TJZCiTyVChUMBd2Xo4maYZ+QKtgwIrmoyBI15YWJjKaTC57oMU0LALWpZlWlxcJFVVKZlMjrWzdBzHnU9YLP80Y5qmOw+0l3Q6TclkciInGUqlUmRZFqmqSrquQ3WjEuJxWntu1Iyy7ry8vGmaVCqVSNM033lzh0mlUiHHcUiSpNCJ43k/IoqknONGqVQKXH6J26tSqUxkW/FUoVhCKmIhvu1Ly0dR9yBnwa6KV64gopHeuIZhkGmapKpqqBCzs5dleepFuFwuuyKsKArlcrm2tQANw6ByuUyWZUVyTm+KpmlkmuZQVnSBEPfI8vLy1IUnlpeXh/bbQa+oqqrSxsYGPXv2jGzbpq2trbY13saNxcXFqb8JedEEWZZJ1/Vr54pDEplMhizLGvtz6iWXy039w7YTI0tfG6YoTaMQhyHLsrtcj+M4oSsyg2gxTdMN0WxsbASKqyRJrpg5jhO6ejWAI4YQj0mdk8nkjTIQuNNI7ByUZZk2NjauuTGxg0mMB3JWRjKZpHQ6TZZl0du3bwP3W1lZ8V2Oip29YRiuaEmSRMlkkrLZbGAnn3h8SZKoVCq5WQjiqjG834sXL9xQgSh03nCBZVnX9uG2Gabzk2W5Y2edX1sFnbdu28kwDPdhXiwWA9u7XC6TaZrXFm0tlUp0dHQUeH75geTtqOxU7pvUWTQp29vbbdkpyWTS3W6dEM/NzVEikaDDw8Ouv3N8fNwWY/WuITdKjo+Pe9o/kUjQ3NxcZOXt97XVcRzK5/O+2Rm2bVOpVCLDMNpeoXnhTu/v8GcsHp32C3og+D1Q+CYyDIM0TfONP/LvelegDtovaFVmy7Ion8+TpmkkSZJvebhtvnz50tPahmJoxjTNUCHnxUnD2qpUKl1bQTrovHXbTqqqUj6fJ6KreHVQGbe2tshxnGt/Pzo6Cj3H5XLZ997mcm9vb9Pm5qbvuoX91tm2bTd854VXL0+n00NdJDeS0AQR0erqak/7j9Nad72W5dGjR5GWt98e6lKp5N40mqZRrVajRqNBtVrNFRix04gdhK7rpOu6e7OwaOi67joL8TO//diRigLBoserRzcaDWo0Gu4q047jUKFQCL3RLctyX+01TQsUykql0nacvb09KhaL7k1cKpWoUCiQJElULBapVqtRrVZrW/G6XC73lPsrulzTNCmfz/eVO8xt5TiO26Z+540FtZd24rcPFik/RDfai5NkIWXBr1arbeWWJIls26ZXr14NtM6FQoFs2247l41Gg6rVqns+gh7ME+2Iia5yauPxeNeitr+/T8vLywPNxe2H09NT2t/f73r/eDweeaaImAq1srLS1Xds23YvPG8HC9+gJycn7gXKbkFcYJRFy29hTfGzsP3Em4V/3+tquANrbW3NFeO9vb3AtwNR/Ds5Tj6OWC/RBXt/i1/p+RU/zDX6sbm56XbEiW5MVVVSVbWrtxsO+XjrIMaW+SFrWZZvW4S1k6qqZBgGWZZFtm1fC0+IWTCd2tn74OffF90+l3tlZcVtm0ql0vbm02+dOcWT6GqVdfE3+UH89OlTsm3bPRe3yhETET158qTrfc/Pz6lcLtPu7m7PoYGbcnZ2RsfHx7S7u0vlcpnOz8+HUsdhOOF8Pu86F76Zuw1nsDvlzj4/sfLefMPAMAzXGWazWV8xkiTJdT62bQe+BaTT6a7EgQXV73Px/0FCxXz58qXnMJKu6203fKVSoXw+Tw8fPmw7n0HnnOuey+V86yB+fnBw0HM7iW3jVxb+bGNjoyc3zC466MGlqqpbJvH83qTOPJw+KIQnSRJls1nSNG1kA2jujloolpaWeooVn5+f0+7uLk0KiURiJG64m4Ei/HTvRRA6XXijGv0m3nRhjkTslDw4OPAVkm+++eZGZRFv1m4E/ejoqK9jFItFymaztL293SZS7JIVRaHXr19fK4MoMmFhAUVRyDTNwFh0WDtxeILj8uL3xcyPXsISoiCGXXevX792BwkNos78lsH9DH6doKPOeb4bhVilUimq1+s9ucxJYHZ2llKpVOTl6La3uZNb4Ve6KOY7YDHrJHySJJEsy+7r5qTnq8qy7MZnxVAFO/5UKkWbm5tt4iO+mYTNH3LTkW2qqlKlUrkWnuDjK4rS04Oaz3Gnh7/fNXDTOmuaRoVCwc3akWWZkskkLS4uBr4Z3Tohnpubo/X1dXr37t2tEuL19fWRZUoE9Z7f9FXKsix69epV2wXMc1gQdc5AGDTd3BCLi4u3ZnIcrwApikKaprVlFhQKhcDY8TDDRTx/CcdO+aHHYYlRpnvdtM7pdJpkWXZT7mzbdvtVCoUCpdPp0NTIWyHERFc5tr2ms417SGKUecPDil2xCHP81fuKZppm5LO2efGmLt1GxM4nHtDhPTeKolzLPOn34RYmxpxDncvl2t6YohjCfJM6c/8Jv01ZluWKModguunknWghZgd5eno68XMVz8/P0/r6+sTf7NwrTnTVkx/lTF+yLLuxvW5c/DAfTsMkn8+T4zihgx1EF8eu2DtrnWmadHJyMvQ2YCFmARbdcK8Cz+Xu5w1rkHUWs2OI2nOTX716RdVqdejXQeQrdORyuYmePH1+fv7WjKMXX++jFjXRhYRlDHhHYk0aPKClm3zVIOfPbdVpcMwgwyXc9mJ2Tr/n2HGc0NBSqVSiTCbTlrt+kzpXKpW2iZb8Hnjs7kcVhotciOfm5uiHH36g2dnZibuJZmdnKZfLRTqCblgEXYBhUzUOMlwgOqwwkeLyiIMOJgkus+M4Hds26KEjthXn1gad027PXzdl3tracgdF9NP24neCRs1yZoNpmm1ZHTep88nJCZVKpbah3FEzFmvWffvtt/Ty5cuJcsbz8/P08uXLWyXCjx8/dv/v7bAzTZNSqVRH98GDR8Q8z37gXE4+Nr/Ci+49n8+7x+hlWPE4Iebu8sg9b7txRxKLlaIobSImthVnAXgFplKpuK7ypqPFxIdHv2EJLjefN57q03uOefEA7/zWN6mzmOvsN5JRfEO5tXnEYc44l8tRuVwe+5gxhyNumxNWFIXS6bSbouSXiqcoiisUfq5XVVXXgfD3+12ZQRzJx6/Bqqpey9wQXyUnEV3X3fk9Og2rlWWZXr9+HdpWpmnS2toaKYpCkiSRZVnuuRpEW3Gq103CEn7lZpfqPcc84MUr9v3WWZZlKhaL7kNvbW3NzQwSvydJUlcdgbfGEYti/Pz5c0okEmN70yQSCXr+/PmtDEcQXc2uxWP8vTefpmltA0T83LGqqgONmReLxba5HMTOHR6wMqqJWYYFC02xWAwUNW7/9+/fB/bie9uKswAcx3G/P6i24nKyKA/imvM7x8lkcih1TqfTpOu6Ww/OnBDFO+y4gybWbDav/hOLsSjPENFXRPQ1Ef2RiL5uNpt/G/XFWa/XaWdnZ2wGfczOztL6+vpUTefJQitJUs8XpLgyM7uUmzJNqz2LD7l+6iq2VT/nLypER9rrddNvnb1vWIMOR8RisT8R0a9E9PfWv78T0QURUbPZvBxrISa6mu+hWq1GnmucSCQolUrdWhcMABii2510IWZ48p1RT4sZj8fpyZMnU73mHgAAQnxNkD98+DB0h5xIJGh1dTXy6TcBABDisRNiMWRRr9fdbRAsLy+7G0IQAAAIcR9OudFo0OnpKX3+/Llj+tv8/Dzdu3fPnageoQcAAIQYAACmWIjvoJkAACBaIMQAAAAhBgAACDEAAAAIMQAAQIgBAABAiAEAAEIMAABgzIS42doAAADcjFA9hSMGAIAxdsQAAAAgxAAAMF1C3AzaLi4uLtBUAADQGy3tbIZsoY64bed6vf5faFIAAOiNlnb6im+QI/Zy2douHjx4sFmr1XQ4YwAA6M4J12o1/cGDB5t0NeUl66kv4nzEsdZnM63tLhH9gYj+hYgkupqjeE74O+8fQ7MDAKacpvDvRWs7o6u5hx0i+o2I/o+I/iH8nZotAb4b4IRjgoL/3voytcT4UtgHAABAuyBfeLTzd0E3fZ3x3Q5hiV9b+/x3S4T/t+WG70CIAQDAV4gvW2LMIvxb6/+B4QlXiNki/zNCQRf0zxjyjKD0dwKEGMIMAJjWkIRXiC8FZyyGI5otuW1244i5d+934QdZfPlfCDEAAELsr52XPqIcmDUR8wjzP/9wZY1jgviKLjgG4QUAgEAT63XHvk64kyP2qv2Fj5JDiAEAINwhXwZ83p0j9jhj3z+hzQEAIFSIrz7sILSYawIAACKmoyMGAAAwXOCIAQAgYv4feZXnTMf8KZwAAAAASUVORK5CYII=;" vertex="1" parent="1">
          <mxGeometry x="140" y="70" width="80" height="40" as="geometry" relative="0"/>
        </mxCell>
        <mxCell id="5" value="FastAPI" style="shape=image;image=data:image/jpeg;base64,/9j/4AAQSkZJRgABAgEASABIAAD/7QAsUGhvdG9zaG9wIDMuMAA4QklNA+0AAAAAABAASAAAAAEAAQBIAAAAAQAB/+E1ymh0dHA6Ly9ucy5hZG9iZS5jb20veGFwLzEuMC8APD94cGFja2V0IGJlZ2luPSLvu78iIGlkPSJXNU0wTXBDZWhpSHpyZVN6TlRjemtjOWQiPz4KPHg6eG1wbWV0YSB4bWxuczp4PSJhZG9iZTpuczptZXRhLyIgeDp4bXB0az0iQWRvYmUgWE1QIENvcmUgNS42LWMxNDUgNzkuMTYzNDk5LCAyMDE4LzA4LzEzLTE2OjQwOjIyICAgICAgICAiPgogICA8cmRmOlJERiB4bWxuczpyZGY9Imh0dHA6Ly93d3cudzMub3JnLzE5OTkvMDIvMjItcmRmLXN5bnRheC1ucyMiPgogICAgICA8cmRmOkRlc2NyaXB0aW9uIHJkZjphYm91dD0iIgogICAgICAgICAgICB4bWxuczpkYz0iaHR0cDovL3B1cmwub3JnL2RjL2VsZW1lbnRzLzEuMS8iCiAgICAgICAgICAgIHhtbG5zOnhtcD0iaHR0cDovL25zLmFkb2JlLmNvbS94YXAvMS4wLyIKICAgICAgICAgICAgeG1sbnM6eG1wR0ltZz0iaHR0cDovL25zLmFkb2JlLmNvbS94YXAvMS4wL2cvaW1nLyIKICAgICAgICAgICAgeG1sbnM6eG1wTU09Imh0dHA6Ly9ucy5hZG9iZS5jb20veGFwLzEuMC9tbS8iCiAgICAgICAgICAgIHhtbG5zOnN0UmVmPSJodHRwOi8vbnMuYWRvYmUuY29tL3hhcC8xLjAvc1R5cGUvUmVzb3VyY2VSZWYjIgogICAgICAgICAgICB4bWxuczpzdEV2dD0iaHR0cDovL25zLmFkb2JlLmNvbS94YXAvMS4wL3NUeXBlL1Jlc291cmNlRXZlbnQjIgogICAgICAgICAgICB4bWxuczppbGx1c3RyYXRvcj0iaHR0cDovL25zLmFkb2JlLmNvbS9pbGx1c3RyYXRvci8xLjAvIgogICAgICAgICAgICB4bWxuczpwZGY9Imh0dHA6Ly9ucy5hZG9iZS5jb20vcGRmLzEuMy8iPgogICAgICAgICA8ZGM6Zm9ybWF0PmltYWdlL2pwZWc8L2RjOmZvcm1hdD4KICAgICAgICAgPGRjOnRpdGxlPgogICAgICAgICAgICA8cmRmOkFsdD4KICAgICAgICAgICAgICAgPHJkZjpsaSB4bWw6bGFuZz0ieC1kZWZhdWx0Ij5Qcm9kdWN0SWNvbkNhcmRzPC9yZGY6bGk+CiAgICAgICAgICAgIDwvcmRmOkFsdD4KICAgICAgICAgPC9kYzp0aXRsZT4KICAgICAgICAgPHhtcDpDcmVhdG9yVG9vbD5BZG9iZSBJbGx1c3RyYXRvciBDQyAyMy4xIChNYWNpbnRvc2gpPC94bXA6Q3JlYXRvclRvb2w+CiAgICAgICAgIDx4bXA6Q3JlYXRlRGF0ZT4yMDE5LTEwLTIyVDExOjM0OjA4LTA1OjAwPC94bXA6Q3JlYXRlRGF0ZT4KICAgICAgICAgPHhtcDpNb2RpZnlEYXRlPjIwMTktMTAtMjJUMTY6MzQ6MDhaPC94bXA6TW9kaWZ5RGF0ZT4KICAgICAgICAgPHhtcDpNZXRhZGF0YURhdGU+MjAxOS0xMC0yMlQxMTozNDowOC0wNTowMDwveG1wOk1ldGFkYXRhRGF0ZT4KICAgICAgICAgPHhtcDpUaHVtYm5haWxzPgogICAgICAgICAgICA8cmRmOkFsdD4KICAgICAgICAgICAgICAgPHJkZjpsaSByZGY6cGFyc2VUeXBlPSJSZXNvdXJjZSI+CiAgICAgICAgICAgICAgICAgIDx4bXBHSW1nOndpZHRoPjEyPC94bXBHSW1nOndpZHRoPgogICAgICAgICAgICAgICAgICA8eG1wR0ltZzpoZWlnaHQ+MjU2PC94bXBHSW1nOmhlaWdodD4KICAgICAgICAgICAgICAgICAgPHhtcEdJbWc6Zm9ybWF0PkpQRUc8L3htcEdJbWc6Zm9ybWF0PgogICAgICAgICAgICAgICAgICA8eG1wR0ltZzppbWFnZT4vOWovNEFBUVNrWkpSZ0FCQWdFQVNBQklBQUQvN1FBc1VHaHZkRzl6YUc5d0lETXVNQUE0UWtsTkErMEFBQUFBQUJBQVNBQUFBQUVBJiN4QTtBUUJJQUFBQUFRQUIvK0lNV0VsRFExOVFVazlHU1V4RkFBRUJBQUFNU0V4cGJtOENFQUFBYlc1MGNsSkhRaUJZV1ZvZ0I4NEFBZ0FKJiN4QTtBQVlBTVFBQVlXTnpjRTFUUmxRQUFBQUFTVVZESUhOU1IwSUFBQUFBQUFBQUFBQUFBQUFBQVBiV0FBRUFBQUFBMHkxSVVDQWdBQUFBJiN4QTtBQUFBQUFBQUFBQUFBQUFBQUFBQUFBQUFBQUFBQUFBQUFBQUFBQUFBQUFBQUFBQUFBQUFBQUFBQUFBQVJZM0J5ZEFBQUFWQUFBQUF6JiN4QTtaR1Z6WXdBQUFZUUFBQUJzZDNSd2RBQUFBZkFBQUFBVVltdHdkQUFBQWdRQUFBQVVjbGhaV2dBQUFoZ0FBQUFVWjFoWldnQUFBaXdBJiN4QTtBQUFVWWxoWldnQUFBa0FBQUFBVVpHMXVaQUFBQWxRQUFBQndaRzFrWkFBQUFzUUFBQUNJZG5WbFpBQUFBMHdBQUFDR2RtbGxkd0FBJiN4QTtBOVFBQUFBa2JIVnRhUUFBQS9nQUFBQVViV1ZoY3dBQUJBd0FBQUFrZEdWamFBQUFCREFBQUFBTWNsUlNRd0FBQkR3QUFBZ01aMVJTJiN4QTtRd0FBQkR3QUFBZ01ZbFJTUXdBQUJEd0FBQWdNZEdWNGRBQUFBQUJEYjNCNWNtbG5hSFFnS0dNcElERTVPVGdnU0dWM2JHVjBkQzFRJiN4QTtZV05yWVhKa0lFTnZiWEJoYm5rQUFHUmxjMk1BQUFBQUFBQUFFbk5TUjBJZ1NVVkROakU1TmpZdE1pNHhBQUFBQUFBQUFBQUFBQUFTJiN4QTtjMUpIUWlCSlJVTTJNVGsyTmkweUxqRUFBQUFBQUFBQUFBQUFBQUFBQUFBQUFBQUFBQUFBQUFBQUFBQUFBQUFBQUFBQUFBQUFBQUFBJiN4QTtBQUFBQUFBQUFBQUFBRmhaV2lBQUFBQUFBQUR6VVFBQkFBQUFBUmJNV0ZsYUlBQUFBQUFBQUFBQUFBQUFBQUFBQUFCWVdWb2dBQUFBJiN4QTtBQUFBYjZJQUFEajFBQUFEa0ZoWldpQUFBQUFBQUFCaW1RQUF0NFVBQUJqYVdGbGFJQUFBQUFBQUFDU2dBQUFQaEFBQXRzOWtaWE5qJiN4QTtBQUFBQUFBQUFCWkpSVU1nYUhSMGNEb3ZMM2QzZHk1cFpXTXVZMmdBQUFBQUFBQUFBQUFBQUJaSlJVTWdhSFIwY0RvdkwzZDNkeTVwJiN4QTtaV011WTJnQUFBQUFBQUFBQUFBQUFBQUFBQUFBQUFBQUFBQUFBQUFBQUFBQUFBQUFBQUFBQUFBQUFBQUFBQUFBQUFBQVpHVnpZd0FBJiN4QTtBQUFBQUFBdVNVVkRJRFl4T1RZMkxUSXVNU0JFWldaaGRXeDBJRkpIUWlCamIyeHZkWElnYzNCaFkyVWdMU0J6VWtkQ0FBQUFBQUFBJiN4QTtBQUFBQUFBdVNVVkRJRFl4T1RZMkxUSXVNU0JFWldaaGRXeDBJRkpIUWlCamIyeHZkWElnYzNCaFkyVWdMU0J6VWtkQ0FBQUFBQUFBJiN4QTtBQUFBQUFBQUFBQUFBQUFBQUFBQUFHUmxjMk1BQUFBQUFBQUFMRkpsWm1WeVpXNWpaU0JXYVdWM2FXNW5JRU52Ym1ScGRHbHZiaUJwJiN4QTtiaUJKUlVNMk1UazJOaTB5TGpFQUFBQUFBQUFBQUFBQUFDeFNaV1psY21WdVkyVWdWbWxsZDJsdVp5QkRiMjVrYVhScGIyNGdhVzRnJiN4QTtTVVZETmpFNU5qWXRNaTR4QUFBQUFBQUFBQUFBQUFBQUFBQUFBQUFBQUFBQUFBQUFBQUIyYVdWM0FBQUFBQUFUcFA0QUZGOHVBQkRQJiN4QTtGQUFEN2N3QUJCTUxBQU5jbmdBQUFBRllXVm9nQUFBQUFBQk1DVllBVUFBQUFGY2Y1MjFsWVhNQUFBQUFBQUFBQVFBQUFBQUFBQUFBJiN4QTtBQUFBQUFBQUFBQUFBQUtQQUFBQUFuTnBaeUFBQUFBQVExSlVJR04xY25ZQUFBQUFBQUFFQUFBQUFBVUFDZ0FQQUJRQUdRQWVBQ01BJiN4QTtLQUF0QURJQU53QTdBRUFBUlFCS0FFOEFWQUJaQUY0QVl3Qm9BRzBBY2dCM0FId0FnUUNHQUlzQWtBQ1ZBSm9BbndDa0FLa0FyZ0N5JiN4QTtBTGNBdkFEQkFNWUF5d0RRQU5VQTJ3RGdBT1VBNndEd0FQWUErd0VCQVFjQkRRRVRBUmtCSHdFbEFTc0JNZ0U0QVQ0QlJRRk1BVklCJiN4QTtXUUZnQVdjQmJnRjFBWHdCZ3dHTEFaSUJtZ0doQWFrQnNRRzVBY0VCeVFIUkFka0I0UUhwQWZJQitnSURBZ3dDRkFJZEFpWUNMd0k0JiN4QTtBa0VDU3dKVUFsMENad0p4QW5vQ2hBS09BcGdDb2dLc0FyWUN3UUxMQXRVQzRBTHJBdlVEQUFNTEF4WURJUU10QXpnRFF3TlBBMW9EJiN4QTtaZ055QTM0RGlnT1dBNklEcmdPNkE4Y0Qwd1BnQSt3RCtRUUdCQk1FSUFRdEJEc0VTQVJWQkdNRWNRUitCSXdFbWdTb0JMWUV4QVRUJiN4QTtCT0VFOEFUK0JRMEZIQVVyQlRvRlNRVllCV2NGZHdXR0JaWUZwZ1cxQmNVRjFRWGxCZllHQmdZV0JpY0dOd1pJQmxrR2FnWjdCb3dHJiN4QTtuUWF2QnNBRzBRYmpCdlVIQndjWkJ5c0hQUWRQQjJFSGRBZUdCNWtIckFlL0I5SUg1UWY0Q0FzSUh3Z3lDRVlJV2dodUNJSUlsZ2lxJiN4QTtDTDRJMGdqbkNQc0pFQWtsQ1RvSlR3bGtDWGtKandta0Nib0p6d25sQ2ZzS0VRb25DajBLVkFwcUNvRUttQXF1Q3NVSzNBcnpDd3NMJiN4QTtJZ3M1QzFFTGFRdUFDNWdMc0F2SUMrRUwrUXdTRENvTVF3eGNESFVNamd5bkRNQU0yUXp6RFEwTkpnMUFEVm9OZEEyT0Rha053dzNlJiN4QTtEZmdPRXc0dURra09aQTUvRHBzT3RnN1NEdTRQQ1E4bEQwRVBYZzk2RDVZUHN3L1BEK3dRQ1JBbUVFTVFZUkIrRUpzUXVSRFhFUFVSJiN4QTtFeEV4RVU4UmJSR01FYW9SeVJIb0VnY1NKaEpGRW1RU2hCS2pFc01TNHhNREV5TVRReE5qRTRNVHBCUEZFK1VVQmhRbkZFa1VhaFNMJiN4QTtGSzBVemhUd0ZSSVZOQlZXRlhnVm14VzlGZUFXQXhZbUZra1diQmFQRnJJVzFoYjZGeDBYUVJkbEY0a1hyaGZTRi9jWUd4aEFHR1VZJiN4QTtpaGl2R05VWStoa2dHVVVaYXhtUkdiY1ozUm9FR2lvYVVScDNHcDRheFJyc0d4UWJPeHRqRzRvYnNodmFIQUljS2h4U0hIc2NveHpNJiN4QTtIUFVkSGgxSEhYQWRtUjNESGV3ZUZoNUFIbW9lbEI2K0h1a2ZFeDgrSDJrZmxCKy9IK29nRlNCQklHd2dtQ0RFSVBBaEhDRklJWFVoJiN4QTtvU0hPSWZzaUp5SlZJb0lpcnlMZEl3b2pPQ05tSTVRandpUHdKQjhrVFNSOEpLc2syaVVKSlRnbGFDV1hKY2NsOXlZbkpsY21oeWEzJiN4QTtKdWduR0NkSkozb25xeWZjS0Ewb1B5aHhLS0lvMUNrR0tUZ3BheW1kS2RBcUFpbzFLbWdxbXlyUEt3SXJOaXRwSzUwcjBTd0ZMRGtzJiN4QTtiaXlpTE5jdERDMUJMWFl0cXkzaExoWXVUQzZDTHJjdTdpOGtMMW92a1MvSEwvNHdOVEJzTUtRdzJ6RVNNVW94Z2pHNk1mSXlLakpqJiN4QTtNcHN5MURNTk0wWXpmek80TS9FMEt6UmxOSjQwMkRVVE5VMDFoelhDTmYwMk56WnlOcTQyNlRja04yQTNuRGZYT0JRNFVEaU1PTWc1JiN4QTtCVGxDT1g4NXZEbjVPalk2ZERxeU91ODdMVHRyTzZvNzZEd25QR1U4cER6alBTSTlZVDJoUGVBK0lENWdQcUErNEQ4aFAyRS9vai9pJiN4QTtRQ05BWkVDbVFPZEJLVUZxUWF4QjdrSXdRbkpDdFVMM1F6cERmVVBBUkFORVIwU0tSTTVGRWtWVlJacEYza1lpUm1kR3EwYndSelZIJiN4QTtlMGZBU0FWSVMwaVJTTmRKSFVsalNhbEo4RW8zU24xS3hFc01TMU5MbWt2aVRDcE1ja3k2VFFKTlNrMlRUZHhPSlU1dVRyZFBBRTlKJiN4QTtUNU5QM1ZBblVIRlF1MUVHVVZCUm0xSG1VakZTZkZMSFV4TlRYMU9xVS9aVVFsU1BWTnRWS0ZWMVZjSldEMVpjVnFsVzkxZEVWNUpYJiN4QTs0Rmd2V0gxWXkxa2FXV2xadUZvSFdsWmFwbHIxVzBWYmxWdmxYRFZjaGx6V1hTZGRlRjNKWGhwZWJGNjlYdzlmWVYrellBVmdWMkNxJiN4QTtZUHhoVDJHaVlmVmlTV0tjWXZCalEyT1hZK3RrUUdTVVpPbGxQV1dTWmVkbVBXYVNadWhuUFdlVForbG9QMmlXYU94cFEybWFhZkZxJiN4QTtTR3FmYXZkclQydW5hLzlzVjJ5dmJRaHRZRzI1YmhKdWEyN0VieDV2ZUcvUmNDdHdobkRnY1RweGxYSHdja3R5cG5NQmMxMXp1SFFVJiN4QTtkSEIwekhVb2RZVjE0WFkrZHB0MitIZFdkN040RVhodWVNeDVLbm1KZWVkNlJucWxld1I3WTN2Q2ZDRjhnWHpoZlVGOW9YNEJmbUorJiN4QTt3bjhqZjRSLzVZQkhnS2lCQ29GcmdjMkNNSUtTZ3ZTRFY0TzZoQjJFZ0lUamhVZUZxNFlPaG5LRzE0YzdoNStJQklocGlNNkpNNG1aJiN4QTtpZjZLWklyS2l6Q0xsb3Y4akdPTXlvMHhqWmlOLzQ1bWpzNlBObytla0FhUWJwRFdrVCtScUpJUmtucVM0NU5OazdhVUlKU0tsUFNWJiN4QTtYNVhKbGpTV241Y0tsM1dYNEpoTW1MaVpKSm1RbWZ5YWFKclZtMEticjV3Y25JbWM5NTFrbmRLZVFKNnVueDJmaTUvNm9HbWcyS0ZIJiN4QTtvYmFpSnFLV293YWpkcVBtcEZha3g2VTRwYW1tR3FhTHB2Mm5icWZncUZLb3hLazNxYW1xSEtxUHF3S3JkYXZwckZ5czBLMUVyYml1JiN4QTtMYTZocnhhdmk3QUFzSFd3NnJGZ3NkYXlTN0xDc3ppenJyUWx0SnkxRTdXS3RnRzJlYmJ3dDJpMzRMaFp1Tkc1U3JuQ3VqdTZ0YnN1JiN4QTt1NmU4SWJ5YnZSVzlqNzRLdm9TKy83OTZ2L1hBY01Ec3dXZkI0OEpmd3R2RFdNUFV4RkhFenNWTHhjakdSc2JEeDBISHY4Zzl5THpKJiN4QTtPc201eWpqS3Q4czJ5N2JNTmN5MXpUWE50YzQyenJiUE44KzQwRG5RdXRFODBiN1NQOUxCMDBUVHh0UkoxTXZWVHRYUjFsWFcyTmRjJiN4QTsxK0RZWk5qbzJXelo4ZHAyMnZ2YmdOd0YzSXJkRU4yVzNoemVvdDhwMzYvZ051Qzk0VVRoek9KVDR0dmpZK1ByNUhQay9PV0U1ZzNtJiN4QTtsdWNmNTZub011aTg2VWJwME9wYjZ1WHJjT3Y3N0lidEVlMmM3aWp1dE85QTc4endXUERsOFhMeC8vS004eG56cC9RMDlNTDFVUFhlJiN4QTs5bTMyKy9lSytCbjRxUGs0K2NmNlYvcm4rM2Y4Qi95WS9Tbjl1djVML3R6L2JmLy8vKzRBRGtGa2IySmxBR1RBQUFBQUFmL2JBSVFBJiN4QTtCZ1FFQkFVRUJnVUZCZ2tHQlFZSkN3Z0dCZ2dMREFvS0N3b0tEQkFNREF3TURBd1FEQTRQRUE4T0RCTVRGQlFURXh3Ykd4c2NIeDhmJiN4QTtIeDhmSHg4Zkh3RUhCd2NOREEwWUVCQVlHaFVSRlJvZkh4OGZIeDhmSHg4Zkh4OGZIeDhmSHg4Zkh4OGZIeDhmSHg4Zkh4OGZIeDhmJiN4QTtIeDhmSHg4Zkh4OGZIeDhmSHg4Zi84QUFFUWdCQUFBTUF3RVJBQUlSQVFNUkFmL0VBYUlBQUFBSEFRRUJBUUVBQUFBQUFBQUFBQVFGJiN4QTtBd0lHQVFBSENBa0tDd0VBQWdJREFRRUJBUUVBQUFBQUFBQUFBUUFDQXdRRkJnY0lDUW9MRUFBQ0FRTURBZ1FDQmdjREJBSUdBbk1CJiN4QTtBZ01SQkFBRklSSXhRVkVHRTJFaWNZRVVNcEdoQnhXeFFpUEJVdEhoTXhaaThDUnlndkVsUXpSVGtxS3lZM1BDTlVRbms2T3pOaGRVJiN4QTtaSFREMHVJSUpvTUpDaGdaaEpSRlJxUzBWdE5WS0JyeTQvUEUxT1QwWlhXRmxhVzF4ZFhsOVdaMmhwYW10c2JXNXZZM1IxZG5kNGVYJiN4QTtwN2ZIMStmM09FaFlhSGlJbUtpNHlOam8rQ2s1U1ZscGVZbVpxYm5KMmVuNUtqcEtXbXA2aXBxcXVzcmE2dm9SQUFJQ0FRSURCUVVFJiN4QTtCUVlFQ0FNRGJRRUFBaEVEQkNFU01VRUZVUk5oSWdaeGdaRXlvYkh3Rk1IUjRTTkNGVkppY3ZFekpEUkRnaGFTVXlXaVk3TENCM1BTJiN4QTtOZUpFZ3hkVWt3Z0pDaGdaSmpaRkdpZGtkRlUzOHFPend5Z3AwK1B6aEpTa3RNVFU1UFJsZFlXVnBiWEYxZVgxUmxabWRvYVdwcmJHJiN4QTsxdWIyUjFkbmQ0ZVhwN2ZIMStmM09FaFlhSGlJbUtpNHlOam8rRGxKV1dsNWlabXB1Y25aNmZrcU9rcGFhbnFLbXFxNnl0cnErdi9hJiN4QTtBQXdEQVFBQ0VRTVJBRDhBN2hwV20yTWtNSXVyV0dSU3BwSVZoQkI1TWQvWEJrMzhPUDRaYm5OeS9zN3ZMWnJ4aW8vajlMSXF4L1ZmJiN4QTt0THc5ZWxlVVZQN3J4NDhQd3lwc1kzb3NkM0pGYk5KNlhKV2RqUE9RcktSSXpkNUdZZXhvZkhMOVJYSHQzRDd2ZzFZYjRkMlQrcCs1JiN4QTs1ZXN2OS84QTNucmJmM1g4L0grR1VOckY3Q1lmdVRHczV1bVZncGdhTldLaG02RGkzWWR2MTF5M1A5WHk3Kzd6YThmSmtmS2I5RzE0JiN4QTtUZXR6K3p5ZjF1WG8rUEg3VmZiajlHVk5pUTZINjdDM2pqdkRFaExzWWs1RmpSMkpJV05kdzNjaGg5K1hhajYvbDM5M20xNHZwWkhRJiN4QTsralRtOWZYKzF3bTVmM1g4dkwxUHh5bHNTUFFodkhTM1dSSFZ3SkRGSkt1enQ3TEgyNjFybHVZZXI1ZmN3eDhrODRmdWVQb3IvZjhBJiN4QTsyUFIyL3V1dkRsL0hLbWFTYVJaek8xdVdSeXlxMVY5TXVoQUxEZDNkVUorWXJsbVg2bUdQa25mb042UHArbHY2OWZUNFJmNzYvbDVjJiN4QTtQeHl0bXhmUnJEVEZXT0l5WEFWdVRjT1RyVGMvdHpQdDhqOUdYWjVYTCt6OUd6WGpHMzl2NldTVXR2cXYvRlhyL3dETHYxOUwva1hsJiN4QTtMWXgvU1lyaFV0eW5vRkVkajZzZ2pEQW1ZazBNaExyU3Rlbnk3RExzNXVYd0gzTmVJVkg1c2w5Vi9SNSt1bkwxL3dDOTlST1A5MzA1JiN4QTtjT1AvQUF1VXRqRzlMa3RsdUxablFyUDhkQjZxcUtGbnAwOVNYb2YyVC9FWmJtK3I1ZmQ4R0dQa3lQbXZvOHUzci83OWwvMzEvUFRuJiN4QTsrR1ZNMk42UE5mUEZHSVpONHkxYlVPeUU4V05maGpqZnJUcUd5L1VDcGZBZC93Q2xyeEhaa05aL3FsZUo5YjFhOEt6OWZTNmNxZXBUJiN4QTs2TW9iR082WkpPeVc0Z2xoQk5UOVhHNWFqR3RlRVo2MDNvY3V6aXBmTDhidGVJN01oNHkvVS9zTDZ2cTE5UGhMeDVlbDBwOXVudlQ2JiN4QTtNcGJHTjZROXdZb0pmcWF6VmR3SkFaSFgrOGJhaW5nZVBUZkw5VEdwMTVEN21yQ2JqODJVK2svbzhQUVRsNi85MTZhY2Y3dnJ4NThmJiN4QTsrR3lodFl0bzBVRW5vTlBjVFZxMUVVQlJSWGJoeU1wQy9aVWNneTlmWWpMczljVzNsM2QzazE0cnI4ZnBaRnh0L3FsT1o5UDZ4MS8wJiN4QTthdGZTK1hwZnh5bHNZL3BDenlSUk9pd3hNcGNDV1ZJeXdLdXc2eUZaUHczNjk4dXovVjhCM2QzazE0dVRJK1NmVnE4bHA2LzJ1VVZQJiN4QTs3dng0OFB3eWxzWTFwY0pqaGhrYTBobVNqTUdXUlkzREZ5ZC9VWnVueXk3UEs1TmVJVkZrUDFxYjZoNjlCNm5yZlk5ZGEvM1hUMUtjJiN4QTthNVMyTWUwTVdVazlxZlJsV2I5NXhWWlFCOExQdVBTRHYyL1pQejc1ZHFCVXZsMzkzbTE0dnAvSDZHVDhmM0gySlA3L0FPejZseHkvJiN4QTt1djV1UHFmaGxMWXhmU3RSTnZheHNzOGFyUi85SExTb09YcU5VajBscFhiK2I1NzVkcVByK1hmM2ViWGkrbGtQcTNmNlA1OEQ5WTlmJiN4QTs3SCtrL3dDKy9HbnE5UGFtVXRqSHROQXViZUdSb1M4RGM2ekpIY09maGRoMGlLb2R4NDdaZG5qVXE5MzNOZUkzRmsvcHY5WDQrbkh5JiN4QTs5ZjdIb2ZEL0FIWCsrK2Y0OHNwYkdQNkdWSmlJWXVyODlqRVhVMVlzZmprWlZGR3FOeDB5N09QVjh2eHMxNCtTZjhVK3JVNHJUMS9zJiN4QTs4WXFmM2ZoeTRmamxMWXhYU29vcDdlTUkwc2JrTXdWaHhBUHFIcVpKVSs0L3F5N1A5WHk3dTd5MmE4WDAvajlMSktyK2p1ZzVldFN0JiN4QTtMZmp6OUxyeDVlblN2YmxYS1d4STdHQzdNVUtENnN3cVFKcEVqSEg0MlBTUnVkUGw5R1haemN2bDl6WGpGQmtQcVhuMUxsOWFoK3MrJiN4QTt0VDZ4eUhwMTlQOEExZncvSEtXeGpHa1hNTnVJSG82eWtzcXh4eVJSMVV5TWVOQVhhamV4KzQ1ZnFQcitBNys3emE4WDBzbzljZlUvJiN4QTtXNE4vZTh2VDlXVGwvZFZweXB5cjdkTW9iR1BhYkpESENpTGZpemlIS2lxNEI1QnlQc3BIeDdlTmZIZXVYWnllTGZ5Ny93QkxYaXF0JiN4QTt2eDhtUTFiNm5YMUdyNnY5Nys5NWYzWDJ2NXY0WlMySkRva3NjeXdmNldpeHNYcEVxYzJkaElhaWlvdlgyUDhBWExzOGFsWGtQdWE4JiN4QTtSc01nOU5mUTQ5dlgvd0I5Uy83Ni9rcnkvSEtXeGp1a1JNMXVodTdWdlVUa1ZlSlpKVlBGMjZsV2pYYW4wNWRxQU9MYnkrNzR0ZUsrJiN4QTtIZGtucFA2UEQwRTVldjhBM1hwcHgvdSt2SG54L3dDR3lsc1lycGRyYlhFY1FXZDQxQmQzU3V4QmxZbWtqdkdLNzlLZmhsMmY2dmdPJiN4QTs3dThtdkZ5WkY2ZHA5UTlLcmVoNnZDdktIbC9kVSsxWGpYM3JYS1d4alduMllsU0thNFIzQUwwRWJyRXdQcU1mOTJ5Y2h2djArV1hhJiN4QTtnK3I0RHU3dkpyeGZUODJVOHY4QVE2ZXMxUFY0ZXI2cWNxZWxUKzhwU3Z2MXlsc1k1cHI4NExlZUNPV01xSk9MYzdkWEJNakUvd0I1JiN4QTt5WWZhT1hhZ1ZMbmZMN212RWZTeWJuKzU1ZXN2OS84QWI5YmIrNjZjK1A4QURLV3hpdWwvVXlrS1RXcjNzcks0V05XUVZITmpzRXFkJiN4QTtnT3pmamwyZjZ2bDM5M20xNCtUS1BTaitxZWw2SjlMMWVIbzhwdnMrbFNuMmVkS2RxVXlsc1NQUXB4RkZGSDlaUVJNZUlVR1Q0V0xQJiN4QTtzcXhFQmlTUEg4YTVkbityNWQvZDV0ZUw2VS80bjBhYzNyNi8ydUUzTCs3L0FKZVhxZmpsTFl4dlJJWVpJWUZFYlR4T1NWdU9Nc2xXJiN4QTtWMkZLb1ZTbGZmTDlSZkZ1SzVkSzZOZUw2ZWRzajlQOXp4OUZmNy8rNzlIYis2L2s1Znh5aHNTaTFpU0NlS0ZUeUJRVkVrU3ZXcExuJiN4QTs5NFpPRmQvQ3ROc2xLVm0wQVVtbkZQcTFPSzA5ZjdQR0tuOTM0Y3VINDVGTC85az08L3htcEdJbWc6aW1hZ2U+CiAgICAgICAgICAgICAgIDwvcmRmOmxpPgogICAgICAgICAgICA8L3JkZjpBbHQ+CiAgICAgICAgIDwveG1wOlRodW1ibmFpbHM+CiAgICAgICAgIDx4bXBNTTpPcmlnaW5hbERvY3VtZW50SUQ+dXVpZDo5RTNFNUM5QThDODFEQjExODczNERCNThGRERFNEJBNzwveG1wTU06T3JpZ2luYWxEb2N1bWVudElEPgogICAgICAgICA8eG1wTU06RG9jdW1lbnRJRD54bXAuZGlkOjc2OTY1OTQzLWMyZTUtNGE4NS04Y2NiLWY2MmM2ZTJmZDhhMTwveG1wTU06RG9jdW1lbnRJRD4KICAgICAgICAgPHhtcE1NOkluc3RhbmNlSUQ+eG1wLmlpZDo3Njk2NTk0My1jMmU1LTRhODUtOGNjYi1mNjJjNmUyZmQ4YTE8L3htcE1NOkluc3RhbmNlSUQ+CiAgICAgICAgIDx4bXBNTTpSZW5kaXRpb25DbGFzcz5wcm9vZjpwZGY8L3htcE1NOlJlbmRpdGlvbkNsYXNzPgogICAgICAgICA8eG1wTU06RGVyaXZlZEZyb20gcmRmOnBhcnNlVHlwZT0iUmVzb3VyY2UiPgogICAgICAgICAgICA8c3RSZWY6aW5zdGFuY2VJRD54bXAuaWlkOjFiMWQ0YjJkLTlmNzEtNDg5My05MmQ4LWQzZTBiMGMwZjM1Zjwvc3RSZWY6aW5zdGFuY2VJRD4KICAgICAgICAgICAgPHN0UmVmOmRvY3VtZW50SUQ+eG1wLmRpZDoxYjFkNGIyZC05ZjcxLTQ4OTMtOTJkOC1kM2UwYjBjMGYzNWY8L3N0UmVmOmRvY3VtZW50SUQ+CiAgICAgICAgICAgIDxzdFJlZjpvcmlnaW5hbERvY3VtZW50SUQ+dXVpZDo5RTNFNUM5QThDODFEQjExODczNERCNThGRERFNEJBNzwvc3RSZWY6b3JpZ2luYWxEb2N1bWVudElEPgogICAgICAgICAgICA8c3RSZWY6cmVuZGl0aW9uQ2xhc3M+cHJvb2Y6cGRmPC9zdFJlZjpyZW5kaXRpb25DbGFzcz4KICAgICAgICAgPC94bXBNTTpEZXJpdmVkRnJvbT4KICAgICAgICAgPHhtcE1NOkhpc3Rvcnk+CiAgICAgICAgICAgIDxyZGY6U2VxPgogICAgICAgICAgICAgICA8cmRmOmxpIHJkZjpwYXJzZVR5cGU9IlJlc291cmNlIj4KICAgICAgICAgICAgICAgICAgPHN0RXZ0OmFjdGlvbj5zYXZlZDwvc3RFdnQ6YWN0aW9uPgogICAgICAgICAgICAgICAgICA8c3RFdnQ6aW5zdGFuY2VJRD54bXAuaWlkOjE5MmExNzA3LTBhZDMtNGY5OC1hNjcwLWU4M2JjODRkMzFkNjwvc3RFdnQ6aW5zdGFuY2VJRD4KICAgICAgICAgICAgICAgICAgPHN0RXZ0OndoZW4+MjAxOS0xMC0xNVQxMjo1NTo1MC0wNTowMDwvc3RFdnQ6d2hlbj4KICAgICAgICAgICAgICAgICAgPHN0RXZ0OnNvZnR3YXJlQWdlbnQ+QWRvYmUgSWxsdXN0cmF0b3IgQ0MgMjMuMSAoTWFjaW50b3NoKTwvc3RFdnQ6c29mdHdhcmVBZ2VudD4KICAgICAgICAgICAgICAgICAgPHN0RXZ0OmNoYW5nZWQ+Lzwvc3RFdnQ6Y2hhbmdlZD4KICAgICAgICAgICAgICAgPC9yZGY6bGk+CiAgICAgICAgICAgICAgIDxyZGY6bGkgcmRmOnBhcnNlVHlwZT0iUmVzb3VyY2UiPgogICAgICAgICAgICAgICAgICA8c3RFdnQ6YWN0aW9uPnNhdmVkPC9zdEV2dDphY3Rpb24+CiAgICAgICAgICAgICAgICAgIDxzdEV2dDppbnN0YW5jZUlEPnhtcC5paWQ6NzY5NjU5NDMtYzJlNS00YTg1LThjY2ItZjYyYzZlMmZkOGExPC9zdEV2dDppbnN0YW5jZUlEPgogICAgICAgICAgICAgICAgICA8c3RFdnQ6d2hlbj4yMDE5LTEwLTIyVDExOjM0OjA4LTA1OjAwPC9zdEV2dDp3aGVuPgogICAgICAgICAgICAgICAgICA8c3RFdnQ6c29mdHdhcmVBZ2VudD5BZG9iZSBJbGx1c3RyYXRvciBDQyAyMy4xIChNYWNpbnRvc2gpPC9zdEV2dDpzb2Z0d2FyZUFnZW50PgogICAgICAgICAgICAgICAgICA8c3RFdnQ6Y2hhbmdlZD4vPC9zdEV2dDpjaGFuZ2VkPgogICAgICAgICAgICAgICA8L3JkZjpsaT4KICAgICAgICAgICAgPC9yZGY6U2VxPgogICAgICAgICA8L3htcE1NOkhpc3Rvcnk+CiAgICAgICAgIDxpbGx1c3RyYXRvcjpTdGFydHVwUHJvZmlsZT5CYXNpYyBSR0I8L2lsbHVzdHJhdG9yOlN0YXJ0dXBQcm9maWxlPgogICAgICAgICA8cGRmOlByb2R1Y2VyPkFkb2JlIFBERiBsaWJyYXJ5IDE1LjAwPC9wZGY6UHJvZHVjZXI+CiAgICAgIDwvcmRmOkRlc2NyaXB0aW9uPgogICA8L3JkZjpSREY+CjwveDp4bXBtZXRhPgogICAgICAgICAgICAgICAgICAgICAgICAgICAgICAgICAgICAgICAgICAgICAgICAgICAgICAgICAgICAgICAgICAgICAgICAgICAgICAgICAgICAgICAgICAgICAgICAgICAgCiAgICAgICAgICAgICAgICAgICAgICAgICAgICAgICAgICAgICAgICAgICAgICAgICAgICAgICAgICAgICAgICAgICAgICAgICAgICAgICAgICAgICAgICAgICAgICAgICAgICAKICAgICAgICAgICAgICAgICAgICAgICAgICAgICAgICAgICAgICAgICAgICAgICAgICAgICAgICAgICAgICAgICAgICAgICAgICAgICAgICAgICAgICAgICAgICAgICAgICAgIAogICAgICAgICAgICAgICAgICAgICAgICAgICAgICAgICAgICAgICAgICAgICAgICAgICAgICAgICAgICAgICAgICAgICAgICAgICAgICAgICAgICAgICAgICAgICAgICAgICAgCiAgICAgICAgICAgICAgICAgICAgICAgICAgICAgICAgICAgICAgICAgICAgICAgICAgICAgICAgICAgICAgICAgICAgICAgICAgICAgICAgICAgICAgICAgICAgICAgICAgICAKICAgICAgICAgICAgICAgICAgICAgICAgICAgICAgICAgICAgICAgICAgICAgICAgICAgICAgICAgICAgICAgICAgICAgICAgICAgICAgICAgICAgICAgICAgICAgICAgICAgIAogICAgICAgICAgICAgICAgICAgICAgICAgICAgICAgICAgICAgICAgICAgICAgICAgICAgICAgICAgICAgICAgICAgICAgICAgICAgICAgICAgICAgICAgICAgICAgICAgICAgCiAgICAgICAgICAgICAgICAgICAgICAgICAgICAgICAgICAgICAgICAgICAgICAgICAgICAgICAgICAgICAgICAgICAgICAgICAgICAgICAgICAgICAgICAgICAgICAgICAgICAKICAgICAgICAgICAgICAgICAgICAgICAgICAgICAgICAgICAgICAgICAgICAgICAgICAgICAgICAgICAgICAgICAgICAgICAgICAgICAgICAgICAgICAgICAgICAgICAgICAgIAogICAgICAgICAgICAgICAgICAgICAgICAgICAgICAgICAgICAgICAgICAgICAgICAgICAgICAgICAgICAgICAgICAgICAgICAgICAgICAgICAgICAgICAgICAgICAgICAgICAgCiAgICAgICAgICAgICAgICAgICAgICAgICAgICAgICAgICAgICAgICAgICAgICAgICAgICAgICAgICAgICAgICAgICAgICAgICAgICAgICAgICAgICAgICAgICAgICAgICAgICAKICAgICAgICAgICAgICAgICAgICAgICAgICAgICAgICAgICAgICAgICAgICAgICAgICAgICAgICAgICAgICAgICAgICAgICAgICAgICAgICAgICAgICAgICAgICAgICAgICAgIAogICAgICAgICAgICAgICAgICAgICAgICAgICAgICAgICAgICAgICAgICAgICAgICAgICAgICAgICAgICAgICAgICAgICAgICAgICAgICAgICAgICAgICAgICAgICAgICAgICAgCiAgICAgICAgICAgICAgICAgICAgICAgICAgICAgICAgICAgICAgICAgICAgICAgICAgICAgICAgICAgICAgICAgICAgICAgICAgICAgICAgICAgICAgICAgICAgICAgICAgICAKICAgICAgICAgICAgICAgICAgICAgICAgICAgICAgICAgICAgICAgICAgICAgICAgICAgICAgICAgICAgICAgICAgICAgICAgICAgICAgICAgICAgICAgICAgICAgICAgICAgIAogICAgICAgICAgICAgICAgICAgICAgICAgICAgICAgICAgICAgICAgICAgICAgICAgICAgICAgICAgICAgICAgICAgICAgICAgICAgICAgICAgICAgICAgICAgICAgICAgICAgCiAgICAgICAgICAgICAgICAgICAgICAgICAgICAgICAgICAgICAgICAgICAgICAgICAgICAgICAgICAgICAgICAgICAgICAgICAgICAgICAgICAgICAgICAgICAgICAgICAgICAKICAgICAgICAgICAgICAgICAgICAgICAgICAgICAgICAgICAgICAgICAgICAgICAgICAgICAgICAgICAgICAgICAgICAgICAgICAgICAgICAgICAgICAgICAgICAgICAgICAgIAogICAgICAgICAgICAgICAgICAgICAgICAgICAgICAgICAgICAgICAgICAgICAgICAgICAgICAgICAgICAgICAgICAgICAgICAgICAgICAgICAgICAgICAgICAgICAgICAgICAgCiAgICAgICAgICAgICAgICAgICAgICAgICAgICAgICAgICAgICAgICAgICAgICAgICAgICAgICAgICAgICAgICAgICAgICAgICAgICAgICAgICAgICAgICAgICAgICAgICAgICAKICAgICAgICAgICAgICAgICAgICAgICAgICAgCjw/eHBhY2tldCBlbmQ9InciPz7/4gxYSUNDX1BST0ZJTEUAAQEAAAxITGlubwIQAABtbnRyUkdCIFhZWiAHzgACAAkABgAxAABhY3NwTVNGVAAAAABJRUMgc1JHQgAAAAAAAAAAAAAAAAAA9tYAAQAAAADTLUhQICAAAAAAAAAAAAAAAAAAAAAAAAAAAAAAAAAAAAAAAAAAAAAAAAAAAAAAAAAAAAAAABFjcHJ0AAABUAAAADNkZXNjAAABhAAAAGx3dHB0AAAB8AAAABRia3B0AAACBAAAABRyWFlaAAACGAAAABRnWFlaAAACLAAAABRiWFlaAAACQAAAABRkbW5kAAACVAAAAHBkbWRkAAACxAAAAIh2dWVkAAADTAAAAIZ2aWV3AAAD1AAAACRsdW1pAAAD+AAAABRtZWFzAAAEDAAAACR0ZWNoAAAEMAAAAAxyVFJDAAAEPAAACAxnVFJDAAAEPAAACAxiVFJDAAAEPAAACAx0ZXh0AAAAAENvcHlyaWdodCAoYykgMTk5OCBIZXdsZXR0LVBhY2thcmQgQ29tcGFueQAAZGVzYwAAAAAAAAASc1JHQiBJRUM2MTk2Ni0yLjEAAAAAAAAAAAAAABJzUkdCIElFQzYxOTY2LTIuMQAAAAAAAAAAAAAAAAAAAAAAAAAAAAAAAAAAAAAAAAAAAAAAAAAAAAAAAAAAAAAAAAAAWFlaIAAAAAAAAPNRAAEAAAABFsxYWVogAAAAAAAAAAAAAAAAAAAAAFhZWiAAAAAAAABvogAAOPUAAAOQWFlaIAAAAAAAAGKZAAC3hQAAGNpYWVogAAAAAAAAJKAAAA+EAAC2z2Rlc2MAAAAAAAAAFklFQyBodHRwOi8vd3d3LmllYy5jaAAAAAAAAAAAAAAAFklFQyBodHRwOi8vd3d3LmllYy5jaAAAAAAAAAAAAAAAAAAAAAAAAAAAAAAAAAAAAAAAAAAAAAAAAAAAAAAAAAAAAABkZXNjAAAAAAAAAC5JRUMgNjE5NjYtMi4xIERlZmF1bHQgUkdCIGNvbG91ciBzcGFjZSAtIHNSR0IAAAAAAAAAAAAAAC5JRUMgNjE5NjYtMi4xIERlZmF1bHQgUkdCIGNvbG91ciBzcGFjZSAtIHNSR0IAAAAAAAAAAAAAAAAAAAAAAAAAAAAAZGVzYwAAAAAAAAAsUmVmZXJlbmNlIFZpZXdpbmcgQ29uZGl0aW9uIGluIElFQzYxOTY2LTIuMQAAAAAAAAAAAAAALFJlZmVyZW5jZSBWaWV3aW5nIENvbmRpdGlvbiBpbiBJRUM2MTk2Ni0yLjEAAAAAAAAAAAAAAAAAAAAAAAAAAAAAAAAAAHZpZXcAAAAAABOk/gAUXy4AEM8UAAPtzAAEEwsAA1yeAAAAAVhZWiAAAAAAAEwJVgBQAAAAVx/nbWVhcwAAAAAAAAABAAAAAAAAAAAAAAAAAAAAAAAAAo8AAAACc2lnIAAAAABDUlQgY3VydgAAAAAAAAQAAAAABQAKAA8AFAAZAB4AIwAoAC0AMgA3ADsAQABFAEoATwBUAFkAXgBjAGgAbQByAHcAfACBAIYAiwCQAJUAmgCfAKQAqQCuALIAtwC8AMEAxgDLANAA1QDbAOAA5QDrAPAA9gD7AQEBBwENARMBGQEfASUBKwEyATgBPgFFAUwBUgFZAWABZwFuAXUBfAGDAYsBkgGaAaEBqQGxAbkBwQHJAdEB2QHhAekB8gH6AgMCDAIUAh0CJgIvAjgCQQJLAlQCXQJnAnECegKEAo4CmAKiAqwCtgLBAssC1QLgAusC9QMAAwsDFgMhAy0DOANDA08DWgNmA3IDfgOKA5YDogOuA7oDxwPTA+AD7AP5BAYEEwQgBC0EOwRIBFUEYwRxBH4EjASaBKgEtgTEBNME4QTwBP4FDQUcBSsFOgVJBVgFZwV3BYYFlgWmBbUFxQXVBeUF9gYGBhYGJwY3BkgGWQZqBnsGjAadBq8GwAbRBuMG9QcHBxkHKwc9B08HYQd0B4YHmQesB78H0gflB/gICwgfCDIIRghaCG4IggiWCKoIvgjSCOcI+wkQCSUJOglPCWQJeQmPCaQJugnPCeUJ+woRCicKPQpUCmoKgQqYCq4KxQrcCvMLCwsiCzkLUQtpC4ALmAuwC8gL4Qv5DBIMKgxDDFwMdQyODKcMwAzZDPMNDQ0mDUANWg10DY4NqQ3DDd4N+A4TDi4OSQ5kDn8Omw62DtIO7g8JDyUPQQ9eD3oPlg+zD88P7BAJECYQQxBhEH4QmxC5ENcQ9RETETERTxFtEYwRqhHJEegSBxImEkUSZBKEEqMSwxLjEwMTIxNDE2MTgxOkE8UT5RQGFCcUSRRqFIsUrRTOFPAVEhU0FVYVeBWbFb0V4BYDFiYWSRZsFo8WshbWFvoXHRdBF2UXiReuF9IX9xgbGEAYZRiKGK8Y1Rj6GSAZRRlrGZEZtxndGgQaKhpRGncanhrFGuwbFBs7G2MbihuyG9ocAhwqHFIcexyjHMwc9R0eHUcdcB2ZHcMd7B4WHkAeah6UHr4e6R8THz4faR+UH78f6iAVIEEgbCCYIMQg8CEcIUghdSGhIc4h+yInIlUigiKvIt0jCiM4I2YjlCPCI/AkHyRNJHwkqyTaJQklOCVoJZclxyX3JicmVyaHJrcm6CcYJ0kneierJ9woDSg/KHEooijUKQYpOClrKZ0p0CoCKjUqaCqbKs8rAis2K2krnSvRLAUsOSxuLKIs1y0MLUEtdi2rLeEuFi5MLoIuty7uLyQvWi+RL8cv/jA1MGwwpDDbMRIxSjGCMbox8jIqMmMymzLUMw0zRjN/M7gz8TQrNGU0njTYNRM1TTWHNcI1/TY3NnI2rjbpNyQ3YDecN9c4FDhQOIw4yDkFOUI5fzm8Ofk6Njp0OrI67zstO2s7qjvoPCc8ZTykPOM9Ij1hPaE94D4gPmA+oD7gPyE/YT+iP+JAI0BkQKZA50EpQWpBrEHuQjBCckK1QvdDOkN9Q8BEA0RHRIpEzkUSRVVFmkXeRiJGZ0arRvBHNUd7R8BIBUhLSJFI10kdSWNJqUnwSjdKfUrESwxLU0uaS+JMKkxyTLpNAk1KTZNN3E4lTm5Ot08AT0lPk0/dUCdQcVC7UQZRUFGbUeZSMVJ8UsdTE1NfU6pT9lRCVI9U21UoVXVVwlYPVlxWqVb3V0RXklfgWC9YfVjLWRpZaVm4WgdaVlqmWvVbRVuVW+VcNVyGXNZdJ114XcleGl5sXr1fD19hX7NgBWBXYKpg/GFPYaJh9WJJYpxi8GNDY5dj62RAZJRk6WU9ZZJl52Y9ZpJm6Gc9Z5Nn6Wg/aJZo7GlDaZpp8WpIap9q92tPa6dr/2xXbK9tCG1gbbluEm5rbsRvHm94b9FwK3CGcOBxOnGVcfByS3KmcwFzXXO4dBR0cHTMdSh1hXXhdj52m3b4d1Z3s3gReG54zHkqeYl553pGeqV7BHtje8J8IXyBfOF9QX2hfgF+Yn7CfyN/hH/lgEeAqIEKgWuBzYIwgpKC9INXg7qEHYSAhOOFR4Wrhg6GcobXhzuHn4gEiGmIzokziZmJ/opkisqLMIuWi/yMY4zKjTGNmI3/jmaOzo82j56QBpBukNaRP5GokhGSepLjk02TtpQglIqU9JVflcmWNJaflwqXdZfgmEyYuJkkmZCZ/JpomtWbQpuvnByciZz3nWSd0p5Anq6fHZ+Ln/qgaaDYoUehtqImopajBqN2o+akVqTHpTilqaYapoum/adup+CoUqjEqTepqaocqo+rAqt1q+msXKzQrUStuK4trqGvFq+LsACwdbDqsWCx1rJLssKzOLOutCW0nLUTtYq2AbZ5tvC3aLfguFm40blKucK6O7q1uy67p7whvJu9Fb2Pvgq+hL7/v3q/9cBwwOzBZ8Hjwl/C28NYw9TEUcTOxUvFyMZGxsPHQce/yD3IvMk6ybnKOMq3yzbLtsw1zLXNNc21zjbOts83z7jQOdC60TzRvtI/0sHTRNPG1EnUy9VO1dHWVdbY11zX4Nhk2OjZbNnx2nba+9uA3AXcit0Q3ZbeHN6i3ynfr+A24L3hROHM4lPi2+Nj4+vkc+T85YTmDeaW5x/nqegy6LzpRunQ6lvq5etw6/vshu0R7ZzuKO6070DvzPBY8OXxcvH/8ozzGfOn9DT0wvVQ9d72bfb794r4Gfio+Tj5x/pX+uf7d/wH/Jj9Kf26/kv+3P9t////7gAOQWRvYmUAZMAAAAAB/9sAhAABAQEBAQEBAQEBAQEBAQEBAQEBAQEBAQEBAQEBAQEBAQEBAQEBAQEBAQEBAgICAgICAgICAgIDAwMDAwMDAwMDAQEBAQEBAQIBAQICAgECAgMDAwMDAwMDAwMDAwMDAwMDAwMDAwMDAwMDAwMDAwMDAwMDAwMDAwMDAwMDAwMDAwP/wAARCACRAooDAREAAhEBAxEB/8QAyAABAAMBAQEBAQEAAAAAAAAAAAcICQoGBQQDAgEBAAIDAQEBAAAAAAAAAAAAAAcIBQYJBAMCEAAABgIBAAYFBQ0GBQQDAAAAAgMEBQYBBwgREhMUF1cV1RaXCSHUN3cZMSLSlFWVtXaWthg42UEyIyS0VlFhNDY5Y1S3eEIzZREBAAEDAgEFCA4JAwMFAAAAAAECAwQRBQYhMUESB9GyE5N0VTYXUWGRIlKS0lOzVHU3CBhxsTJCIxSUFRaBoTXhQ9PB8WJyY//aAAwDAQACEQMRAD8A7T9JaS0xLaY1FKSmotYSUnJawoMhIyMhQao8fyD95VIlw8evXjiJUcOnbpwoZRRRQxjnObJjZznOcgJP8AtE+SupfdxTvUwB4BaJ8ldS+7inepgDwC0T5K6l93FO9TAHgFonyV1L7uKd6mAPALRPkrqX3cU71MAeAWifJXUvu4p3qYA8AtE+SupfdxTvUwB4BaJ8ldS+7inepgDwC0T5K6l93FO9TAHgFonyV1L7uKd6mAPALRPkrqX3cU71MAeAWifJXUvu4p3qYA8AtE+SupfdxTvUwB4BaJ8ldS+7inepgDwC0T5K6l93FO9TAHgFonyV1L7uKd6mAPALRPkrqX3cU71MAeAWifJXUvu4p3qYA8AtE+SupfdxTvUwB4BaJ8ldS+7inepgDwC0T5K6l93FO9TAHgFonyV1L7uKd6mAPALRPkrqX3cU71MAeAWifJXUvu4p3qYA8AtE+SupfdxTvUwB4BaJ8ldS+7inepgDwC0T5K6l93FO9TAHgFonyV1L7uKd6mAPALRPkrqX3cU71MAeAWifJXUvu4p3qYA8AtE+SupfdxTvUwB4BaJ8ldS+7inepgDwC0T5K6l93FO9TAHgFonyV1L7uKd6mAPALRPkrqX3cU71MAeAWifJXUvu4p3qYA8AtE+SupfdxTvUwB4BaJ8ldS+7inepgDwC0T5K6l93FO9TAHgFonyV1L7uKd6mAPALRPkrqX3cU71MAeAWifJXUvu4p3qYA8AtE+SupfdxTvUwB4BaJ8ldS+7inepgDwC0T5K6l93FO9TAHgFonyV1L7uKd6mAPALRPkrqX3cU71MAeAWifJXUvu4p3qYA8AtE+SupfdxTvUwB4BaJ8ldS+7inepgDwC0T5K6l93FO9TAHgFonyV1L7uKd6mAPALRPkrqX3cU71MAeAWifJXUvu4p3qYA8AtE+SupfdxTvUwB4BaJ8ldS+7inepgDwC0T5K6l93FO9TAHgFonyV1L7uKd6mAPALRPkrqX3cU71MAeAWifJXUvu4p3qYA8AtE+SupfdxTvUwB4BaJ8ldS+7inepgDwC0T5K6l93FO9TAHgFonyV1L7uKd6mAPALRPkrqX3cU71MAeAWifJXUvu4p3qYA8AtE+SupfdxTvUwB4BaJ8ldS+7inepgDwC0T5K6l93FO9TAHgFonyV1L7uKd6mAPALRPkrqX3cU71MAeAWifJXUvu4p3qYA8AtE+SupfdxTvUwB4BaJ8ldS+7inepgDwC0T5K6l93FO9TAHgFonyV1L7uKd6mAPALRPkrqX3cU71MAeAWifJXUvu4p3qYA8AtE+SupfdxTvUwB4BaJ8ldS+7inepgGYnsDRP9lVL/yd+wP/AG5D/wDYn+yv+j/7S/8A5v8A0f8A6YDTvQX0E6V+qXXH7nQwCWgAAAAAAAAAAAAAAAAAAAAAAAAAAAAAAAAAAAAAAAAAAAAAAAAAAAAAAAAAAAAAAAAAAAAAAAAAAAAAAAAAAAAAAAAAAAAAAAAAAAAAAAAABkv/AFaAGh2gvoJ0r9UuuP3OhgEtAAAAAAAAAAAAAAAAAAAAAAAAAAAAAAAAAAAAAAAAAAAAAAAAAAAAAAAAAAAAAAAAAAAAAAAAAAAAAAAAAAAAAAAAAAAAAAAAAAAAAAAAAADJf+rQA0O0F9BOlfql1x+50MAloB+GTk4+FjZCYl3raNioli7k5OReLEbs2EewbqOnr12upkqaDZq2SMdQ5s4KUpc5z8mB98XFyM3Jt4WHRVdy71ymiiimJmquuuYppppiOWaqqpiIiOWZnR8r161jWa8jIqiixbpmqqqZ0immmNZmZ6IiI1mfYZc2H4r2pI2bko+C17dbHEs3arZlO96iolOVSRNknfm8e6Mq7btHGS5MlhbqLZTzjJ00zZyQtqNu/CVxfk4NrIz9xwcbLroiarXVuXJtzPL1Zrp0pmqOarq60669WqqNKphPL7ddhs5NdrFxMm9YpqmIr1pp60R+9FM6zETzxrpOnPETyR8b7WzXflHdPz5B/gD2/lE4j88YPirrzevnafqGT8eg+1s135R3T8+Qf4AflE4j88YPirp6+dp+oZPx6D7WzXflHdPz5B/gB+UTiPzxg+Kunr52n6hk/HoPtbNd+Ud0/PkH+AH5ROI/PGD4q6evnafqGT8eg+1s135R3T8+Qf4AflE4j88YPirp6+dp+oZPx6D7WzXflHdPz5B/gB+UTiPzxg+Kunr52n6hk/HoPtbNd+Ud0/PkH+AH5ROI/PGD4q6evnafqGT8eg+1s135R3T8+Qf4AflE4j88YPirp6+dp+oZPx6D7WzXflHdPz5B/gB+UTiPzxg+Kunr52n6hk/HoPtbNd+Ud0/PkH+AH5ROI/PGD4q6evnafqGT8eh/Vv8AFq1oddAjrVF4QbGWSK4XRloFwqigY5cKqpNzHblXUTTznJSZUJg2cdHWL09OPxc/CLxPFuqbW7YFV2InSJt3YiZ05ImdJ0iZ550nTn0nmfqjt52aaoivAyYo15ZiqiZiOmYjk1/RrGvsw04oF8q2zqdAXylyacvWrIxK+jHpCmTNkuFDoOGzlA/Qo1fMXaKiC6J8YOksmYmflwKv8QbBuvC+85Gwb3amzueNc6tdM8vRExVTMclVNVMxVRVHJVTMTHJKaNq3TB3rb7W6bdXFzDvU9amf9piY6KqZiYqieWJiYl7AYZkAAAAAAAAAAAAAAAAAAAAAAAAAAAAAAAAAAAAAAAAAAAAAAAAAAAAAAAAAAAAAAAAAAAAAAAAAAAAAAAAAAAAABkv/AFaAGh2gvoJ0r9UuuP3OhgEtAKyczDGJxb3bkpjFzmkvC5yXOcZyU7poQ5enHR96chs4zj+3GegSh2LRE9qmxxPLH89T3tTS+0SZjgjctPq0/rhysDq8o6sbF8ReSs3GR0zFadt76Ll2DOTjXqDZrlF4wft03TN0jnLsucpOG6pTl6cYz0ZEbZfbB2ZYOVcwsvecO3lWblVFdMzVrTXRM01Uz73niYmJbfY4B4yybNGRY2/IqsXKYqpmIjSaao1iY5eaYnV+/wDgx5SeSd0/FWnzwef11dlXnzC+NV8l9fV3xv5tyfcjun8GPKTyTun4q0+eB66uyrz5hfGq+Servjfzbk+5HdP4MeUnkndPxVp88D11dlXnzC+NV8k9XfG/m3J9yO6fwY8pPJO6firT54Hrq7KvPmF8ar5J6u+N/NuT7kd0/gx5SeSd0/FWnzwPXV2VefML41XyT1d8b+bcn3I7p/Bjyk8k7p+KtPngeursq8+YXxqvknq743825PuR3T+DHlJ5J3T8VafPA9dXZV58wvjVfJPV3xv5tyfcjun8GPKTyTun4q0+eB66uyrz5hfGq+Servjfzbk+5HdP4MeUnkndPxVp88D11dlXnzC+NV8k9XfG/m3J9yO6rY9ZOo167jnyB2z1g6cMnjZXGMKN3TVU6DhBTGM5xg6SyeS5/wCeBJli/aybFGTYqiqxcoiqmqOaaao1iY9qYnVp1y3XZuVWbsTTcoqmJj2JidJj/SXQ98LlZVTjO5IoqooRvsu1IoEOcxyoJGja6vlJEps5wmnldc58lL0Y65zZ+7nI50fiooop7T6aqYiJq2yxM6Rzz170az7M6REaz0REdC2vYnVVPBkxMzMRmXYj2o6tudI/1mZ/TMtGxW1LwAAAAAAAAAAAAAAAAAAAAAAAAAAAAAAAAAAAAAAAAAAAAAAAAAAAAAAAAAAAAAAAAAAAAAAAAAAAAAAAAAAAAAyX/q0ANDtBfQTpX6pdcfudDAJaAVi5nfytbs/Utz/rGYlHsV+9XY/Lqe9qaX2i+hG5eTT+uHK0Orqjrrz0l9DGo/qwoP7qRI488cemu8famX9PcX84b9HcDyKx9FSk8auzQAAAAA8VbtjUmhqRSVusTGDPNOsNY/DrDg+DZ66aart0ZuisWNimplS9u9c5SZt8GxlVUmM9Izez8N75v9N6vZ8a5fpsU9avq6R0TMU06zHXuVaT1bdHWuV6T1aZY3P3fbdrm3Tn3qbU3KtKddf9ZnSJ6tMax1q6tKKf3qoe1GEZIAAHHjsj6RL7+ulp/Tj4dk+GfRzb/IbH0VLn1vH/AC2V5Tc7+pvf8Lb+Wl/9Z9p/RFYFAPxVfebb+y7H0l9absS9DavLbve22j4rWl8AAAAAAAAAAAAAAAAAAAAAAAAAAAAAAAAAAAAAAAAAAAAAAAAAAAAAAAAAAAAAAAAAAAAAAAAAAAAAAAAAAAAAZL/1aAGh2gvoJ0r9UuuP3OhgEtAKxczv5Wt2fqW5/wBYzEo9iv3q7H5dT3tTS+0X0I3Lyaf1w5Wh1dUddeekvoY1H9WFB/dSJHHnjj013j7Uy/p7i/nDfo7geRWPoqUnjV2aAHz4+Wipbv3ouTj5L0ZIOImS9HvWzz0fKs8J5dxj7u6indJBrhUvaIqdVQnWx1sY6cD0ZGJl4ng/5u1cteFtxco69M09e3Vr1a6dYjrUVaTpVGsTpOkvlav2L/W8BXRX1K5pq6sxPVqjnpnTmqjXlieWOl9Aed9Ue7I2RA60gVJiYU7Z0t2iUREJKFK8lXhS4z2SXTg3ZNkutjKy2cZKkXOPkMcxCG2LhrhrcOJ9wjDw46tqnSblyY97bp9mfZqn92nnqn2IiZjE7xvGLs2LORkTrcnkoojnqn/0iOmej25mInJq83d3OSE5eLnMJkz2azx/IP1yN2EVFNMKqptUcnyRBjFRqGTdQuOjHymOfJlDnOa2+xbHawcexsWy2ZmNYpoooiZruV1aRNU6ctVyudNZ/RTGlNNMRBO57lcybt3ctxuRrpM1VVTpTTTGs6R0U00xzR+mZ1mZmf28MfiLUqw2V3qa1ruIukEmCwGsrxMuMJoJHSbtMEhJYqyaSkTXna6/RFnWOfLMnVRU7JDKSTX49tX4cN827bKOLtpppu75Nnwubi241mdZq1u29JmLl6mI/jxTEeEnWunr3OvVd+nZ52ubblZtWw58zRtvhOpj3q55I0iPeVa/s25mf4UzM9SPez1aOrFGzQpYsQAOPHZH0iX39dLT+nHw7J8M+jm3+Q2PoqXPreP+WyvKbnf1N7/hbfy0v/rPtP6IrAoB+Kr7zbf2XY+kvrTdiXobV5bd7220fFa0vgAAAAAAAAAAAAAAAAAAAAAAAAAAAAAAAAAAAAAAAAAAAAAAAAAAAAAAAAAAAAAAAAAAAAAAAAAAAAAAAAAAAADJf+rQA0O0F9BOlfql1x+50MAloBWLmd/K1uz9S3P+sZiUexX71dj8up72ppfaL6Ebl5NP64crQ6uqOuvPSX0Maj+rCg/upEjjzxx6a7x9qZf09xfzhv0dwPIrH0VKTxq7NKicht5mr6Dij0qS7Kwr9ZGfmWZs9tBtTENhRhHOUz47vOOOnGDrF6Ts0+t1Oq4yRRGYOzrgSNwrp33e7Wu3U8tq3VzXauiuumee1HRTPJcnTra24mmvQeLeJpxKZ2zba9MueSuuOeiPg0z0Vz0zz0RrppXpNOfKfJmL4uyUPapGRWy2npKOgXFQZlSXdW9mZ2mmqi3YquGqSTiGSdnWRfGOTDM5+rnJyLqN3Fh6uzDK7VMa9tWNbjwuParuxkVaxTj1dWZiZqiKpmLk0xTVaiJ8JEa6RVbpuW4pp4zs8E3reddrnqXa6aJtRpM3Y15YinWIiaImZivWOpM6csVTRXqSpyM1i61jFbSrs42sUNYmx811mzUKnIv5FMuMOIt02Pgy0Y5jFjdR7hUvS2z8mcGMYhT1Wp7N+KLXFF3hXcrFWNm41X8aqqNaKKJ5q6ao5K6a45bfVn3/AD6xEVTE2Txfstey297w7sXse9H8OI/aqq6aZjnpmmeSvWPe+3MxE57WazWzalsw+fYXlJiUXTZRcWyTUOk2SOpnDWMjGuMnymink/8AzMY2cnPnJsmNmxG2bZtHCm0eAsdW1hWqZqrrqmImqYj31ddXTM+5EaU0xEREInzMzP3zP8Ld1ryK50ppjmiOimmPY/8AeeXWVxajxMob+h2Ct7er8Xc1LpErRU5Eu8GWYRcevkqhUItykZNdvMt1kyLFkEDJrtl0yZbnJknaHhreO1zf8ff8fc+D8i7hU4V6Llq5TyV11xya10zrE25iZpm1VE010zMXKZ16tMhbfwJtl3a7uHv9qjInJtzTXTPLTTTPRTMaTFcTpPXiYqpmI6kxprODXI7hDbeIsxId0XdWnU1hsLpamW8yWMvGaS7RqZGt28qCKTZnYWhW6hSLEKRvIpJ9skVM3at0L9dm3bntHbBh2/DU0YnF2NjUxk4+vvapiqrW9j6zNVVmrWJmmZmuzVPUrmqOpcuVd4w7Ns/gLIq6k1X9iu3Zmzd05Y1iNLd3SNIuRpOkxpTciOtTET1qKb58Eed3cvQ2kt2zP+S/wIug36UX/wCi/uos6vaHixv+i+4myeqZ/wAD5EVs9n1DpwF29dgvh/DcccD2f4/LXl4lEftdNV+xTH73PN21Ee+5a6I63WpqlDsw7T/BeD4b4kufwuSmxfqn9noi3cmf3eiiuf2f2ave6TTtcKQrIOPHZH0iX39dLT+nHw7J8M+jm3+Q2PoqXPreP+WyvKbnf1N7/hbfy0v/AKz7T+iKwKAfiq+8239l2PpL603Yl6G1eW3e9ttHxWtL4AAAAAgne3JjR/GqAQsW5r/E1Bu+wviHjDldSdjn1W+CYVSg65FIPZiRwmoqQqipEe7oZULlZRMuesAphD/F+4dyEoxZyrzZ9QiZNxhBhbrTrqSb1h0Ux8FScpuYp1LyXdFSZwp18tcdRPPSfq9GegL22PeGr61qCS3w4tbCW1VGV3NqVttayayMXUFg5U8vY7EPh2pIYKobq5IlgxymxkucYyXOMB7Gk3CC2FTKjf6s5Ve1m8ViAuFceLNl2SzuCs0U0mohyqzdESctFV496mYyShSqJ5z1TYxnGcAPTgAAAAACFNwcg9X6Jda8Z7ImXsQvtK5MaFTStIaUlsP7LIqIJNWbg0a2cYj0Tnck6VluokXp+XPyAJrAU75B87+NnF+5xlA3FbpeAs0vWGVwYs2FSsk8ipBSErNQrVyZ5DxztsmqeQr7ouUjGwpjBMGzjoMXOQ8HQ/iicHtgzLeAjt2MIGTeLJotMXau2qnRixlDppFyewz0KzrjPHaK4x/mHaOfu56OrjOcBfpu4bu26Dpqui5auUUnDZy3VIs3cN1iFURXQWTMZNVFVM2DFMXOSmLnGcZ6AH9gAAAAEP2Te2t6luDXGipuWdttkbWjbHLUqJTiZFw0kWNUi5GZm1HEsg3PHR5m7CKWMUq6hDKZLgpenOcYATAAAAAAAAAAAAAAAAAAAKycjOX2ieKeaZjddmka5i/ZsGK0ZhWp6w4dYq+YL0yZf0GwfGaYbe0bTq9pjGVOvnq9PVN0BZFi+ZybJnJR7lF4wkGrd8xdtz4UbumbtEi7ZygoXpKoiuioUxTY+TJc4yAizeG9NacddfvtnbYnVK/UY9/GRajtCPfyzxeQl3RWjJozjYxu5eu1jZyZQ2CEz1EUznz0FLnID7Op9p0zdmvKztLXsg4lKbb2rl7BP3ce8i3Dlu0kHkWudRhIIoPG2SvGKhcYUIXOcY6fuZwAkQAAAAAAAAAAAAAAAAAAAAAAAAAAAAAAZL/1aAGh2gvoJ0r9UuuP3OhgEtAKxczv5Wt2fqW5/wBYzEo9iv3q7H5dT3tTS+0X0I3Lyaf1w5Wh1dUddeekvoY1H9WFB/dSJHHnjj013j7Uy/p7i/nDfo7geRWPoqUPb630SqkdU2muiKWZQhkZaWRNg5K+Q+OgzZsbHSU0yYuflz9xtj/1OjBNy4A4Aq3Wqjet6omNsidbduee7Psz/wDn3/8A9f2tf4p4pjBirb9vq1zZ5Kqo/wC37Uf/AD739PNUDW2tLFtOfOxjsmRaJGw4nJ50RRZuwSVMY3XUzkxTOn7o2Ddklg2DKG6c5yUhTHLMfEvE23cKbfF/I0qvTGlq1TpE1zHsfBpp5OtVppEaRETMxEx/s+zZe+ZXgrXJbjlrrnlimJ/XVPRGus+1ETMQ3z/+HLLyylc3fpJaesUlUkIRnd6C8duZR4/h4t0mdW0U5A2Tdg+QwY6r+MRKVJcvWWblKtg6a+6fh7/Ejh4dOTwNxxGPjY2ZVdqxsummmimi5XTMRYyJ6aZ5KbV6qZqpnSi5M0TTVRr/AGqdkV+/4LiThubt69YiiL1iZmqaqKZ5blqOiqOWa7cclXLVRHW1irPXS12t9btsZB1yNkrKSySTWNNUY9JV08lHztRNs3NEtSYMbEx1slKTox0K4xgh/k6DFsTxvsez7ntF3P3K7axasa1VX/MVzFNNFNMTVPhKp/7fPM/B56eXWJiXhzctww8+jGw6K70Xq4p8FTEzNVU8kdSPh+x7PNPtdLOjtJstdRyU3NIpOrrINi95UNlJZOBRWJjKkWxUTMokZxjGeq4XIbOFM4yUmez+U/Mnjrji9xHkzg4MzTslur3scsTdmJ5K6onSdOmiiY5OeqOtyU3I4a4bt7RZjJyYirca6eXmnqRP7tPRr8KqOfmjk57CCO22PNXCn1m/1mZp1xhmc/W59moxlYp8nk6DhA+cGKYpi5Kq3ct1SlURWTMRVBUhVEzFOUpsZPZt53Ph/c7O87Nerx9zx64qt3KZ0mJj/aaZjWmqmqJpqpmaaommZh49w2/C3XCubfuFum7h3aerVTVzTH64mJ5YmNJiYiYmJiJc1/L3iFZuNdm9IR/fJ/VU+8UJWLOdPB145c+DrFrVlMiQqTeYbpFzlFbGCJPkiZUTwU5VkUumPY72xbZ2m7Z/L5HUx+LMeiPD2NdIriNI8NZ1nWbczp1qdZqtVTFNUzE0V1054/4AzeDs3wtrrXdju1fw7nTTPP4O5pyRXEc08kVxGsaTFVNOofwydy3nZms7bVbnJZmktZPq9FVyVd5UUl8w0szkzpRcg7Oc2XqMVmLwRsc2O1KkfszGMUhMFqz+KDgvYuGOJ8PdtkteAr3S3euXrdOkW/CW6qImuinT3s3OvrXEe9mqOtERNVWs2djHEW57zsuRg7jX4SnCqt026p/b6lUVaU1T0xT1dKZnl0nSZmIjTCPZH0iX39dLT+nHwvrwz6Obf5DY+ipVg3j/AJbK8pud/U3v+Ft/LS/+s+0/oisCgH4qvvNt/Zdj6S+tN2JehtXlt3vbbR8VrS+AAAA+bMyzOBh5adkTmTj4WNfSz45C9c5Gcc1VeOjkJ0465ioImzjHTjpyAxu4Baoj+Ws9defHIaJY3izXK4TcFpio2NEk5V9Y0irSKzVt6FjJDCzDMg2k+1bN1DI9dudoo6KbLh2qcobB2ap1i6V+Sqlur0NZqzMM1WEpATsa0lIh+yWTMio2dMHiSrZVIyZs46Ml+T+zoAZ7cmdE6046fDr5E611RCLQNTbUu1zRGbmSfyzk8hNyjV27VWfSS7h0rgheoinjJvvEUiF+XOM5yEi6v3brzjzwB4+7V2fMGiKrXuOGjsKd3R73KSsi61vWUY2EhGGDp5fy8m4zgiSfWIQvyqKHTSIooUK1p/EM5VyENjZ0L8O7ZrzS3dzSSU04uaTa7va+UmV8WJtTy1NWRM1OyNhchE0l26iWMmK6yQ3aFC2EFzZ1beOK935Ua6byFngKHWrFMTtOeqIwVmjJussCv5GpzOMlkm8bJ4RUTMRUveEFElSKpmOQ2MgJp0DtpvvfTWvNwNYNatttgV1vYUIJw/JJrxiThVdMjZV+m1ZJuVMYR6cmwkTHTno6Pk6chFur+VDDZnJbfHHFvTHkQ80Yxrzx5a1ptF22sXtA1j3SSbaIJGoKx/divug2TuFetknyY+X5Arns34h1hd7XtOlOJXHyzcnbhQVjNdgWCNnUKvQ6tIouFGzmJ9PLx0g3kH6DpBRubKijJLK6amETuOyUxgKCctuVL7el24i0DYuo7doTdWvuU2t5Ox64tp1JJF9XZyRYIR1pqtlTjY1pOQxnbMyKpuyTymqchSZWL1jlDo4AZP7Aj2En8YTU7WSYs5BtnhbIHy2fNkXaGTk2FszJD5RXIonkxc5+TPR04AXz2fxu0TuStPqpsbVVJsUW9bqIEWWr8c2l4wymM4w7g51m3bzEG/SybPVXarJKY6c46clMbGQoF8PqctelNyck+CdxsctaIDRi0NddPz06cqr1rrCzt2T0sK7elN3UrWLbzkaokQnVIm4WdkKVMhCpJhIxOeWwdpTlgbcQOKNw5KUyqyruCltovtj1DTVAlZZjlHDpCjzVwZyBbeg2MuXChyYbnxjoUKQyJ01ThNPGvl/VuQU5c9dStLt+nt3a3TQcXnUWwG6CM4xjnSiabafgX7fJULHW1TOUC5dETRMQy6Wcp4SXbqrBU/7VBvYZ29a01bx1v2zt41jZlwoUPreuSxV2z+DpzpJg+2HY7MSvqNapX3D1QySSZkXRu0TNhRRIuSqZD1us/iH2Jnteq6U5ace7Pxjt9/Xw0oFhkZ1tZ6FZ5BZYjdtFmnkWEcgwfLu1kmxOxUfJYcKp4WM37QnSHyeQP/lT4C/V/v3/AOOL4AlDkVzyZ6s2ajoHTGpLdyO36ePRlJOj1Bf0bEVCPdIJuGzq22P0dL4jlct3CK+UsN+zIgqTKy6HaJ9cI/o3xErVXdkVPVvMDjhbOMUnfnhIykXZ3OoW7Xk1LrqpJt4t5OtIxi1il8qOEkjnTXelQUUIZz3dI/XKFkMcrI6P5e54l2mlva3JTdA9vtc3paaQdRN+QbpYUk4ZpFejmq8dKR/cZPOcdu4KZONObPV7QmAH3+WfJis8TdNym2rJEObKdKZgq3XqoxfoRshZ7BOvOzSjGLtwg6Imq2i27t6p0JKG7Bop1S5z0AII3x8QKA4223SlT2prCyM3W2ddy9ykUa9Koz0xVrFGwy7ptr9lDeimObTOzNkwhENVSrsksuXBTnwQmM5AQxKfEq2zquzVZ/yZ4a3vSGmLxOtYOH2Q5tbSwO4BR6U52SlthEINkiwcKNymcLtFHLd43QRW7JJ0ZI2Mh/awfEd3TPspfYvH/hTsTbGga+tJmV2nI2EtUcW6NhV1UZaZp1ULX5iVdQjfuS2UnJe8nUxjoVRbqEOmAvFpbk/q/dPH+O5HRspitUPMFMzNoUsaqTVWlqVfvRbUznFSZMkXEKoyVN2xfvF2/UWJjqqFAVYiOdu8dos3V0458G9j7Y04io6ww2NZNmUvUr20M49w5Rdy1LpNkYSMxZ41bDRTLXKKpVllMYSOkit0plCznGblJQOUFZn5SrR9jqdso8z7MbJ1rdo/ERdaFZClWxlhMx2FVcGaOlGq+GrkucYW7BQhyJLpLIpBRCh/FQtO96y2S44cT71tPZqffXdpqydsYxlVocMR2u0h3lgvTyDbsFpefM0VUbR5EU+siTJu3yfGU8BYbirzkX3zd71pTZOn7Hovf+vob0/Ja7sMjh83mobCrVuaShJVeMiFeoVWRaHMQ6Bk8oO01UVnCeDnIGazTcXKovxNJO7E4b9pt8/HVOHW0h/ENrknYVXEtHqYuXiVmM9mFelchU/R2Eu8/f8AW63RjIDoBpUrZJyn1iZuNV9hbZKwMVIWSl+nGFn9lJx2yRXk697RRaaMbO+iHhzod7bkKi46nXJjBc4AY8/FV1Ww3fvjgbqSScZZt7+/5FVxN9gxy5jn72u6z9FSX3hVMmxGyhEV8l6psHwn1clzjOcZCynwwNsy9741M9cXPJm+zOOVil9HXeMcKZM8aYp652taOqQyip+yRgipx+VMmzhRzHL5x0Yx0YCo3xL3jvkZvGrcXYV04UqekdRbK5N7iy0woZFF7BU+VUo0S/yXo7M5lewQNnHVxhCxFMU/XL1cBPvEfd9a47fDC0ztW1w1tsMTA1uTQxDUqBc2CcfvZLYdlZMW6aKWUmUe3O4Vxg7p4s3ap/IXJ8qHTTOH2JnnZyOo9fV2ds/4fW06lpNmYzyWt0ZtCk2i/wAHXu2Ux6bm9PoxkXYYYrVqkZZ2V26QQZlx0qL4JnCmQsLtzmBQ9fcTJDl3UGKuzKIlEVCah2Me+9AupdpbLjAU7CSjh8weHi30Q9mzd6QWb5VTVbKImwU+M5KFUHfxFd3XyIPd+M3CjYO5dXRiWPSd9eWYlYbzj9kTqzzCiQma9IzVmZRjxNRuV8iic6qqZsZaEzjq5C4nGDlfQuUWnHO3axHTkEWCfTELdag+ZuJWyVewQTRGQkIrDKHbOHk2ZZg6SXad1QMs6KqUmEir4OiUK0wvO3kBs9m+t+guBOztiasZKvU0rnctm0rUczM4i3r9nIq1ukz0dLSNhSRPHqEJhq4UVM5xlAxCK46MhZ7jRys1zycplgs1aaT9OnKLLLV3ZdCvjEsFa9f2Bokoo6ZzjU6p0isjd3Wyi56xcGwioRQiK6SyKQU0efEi2Xs612mM4d8TbfyJo9JllYia2gtaG9Kq0s+aF6zlpVzvIV6g/wAKJGKqic7kroyJyKZaYIomYwev0/8AEurW199aw45uNOXmg7Kt+bywvsDc3WI2U1hP0qpzFvwwcx6sOmaxR0/HRWO6OiKND9CmTHQLgpcHCaN9cxo/Vuw4bRusNZWzkFyAnYg8+lrOlvI+HZ1yB+9I1m7/AHKVIvFU2KeuFUykVWSV6hFCnUwQqqHbBH9b51WasbBp2tuWPG+3cX5PY8viDoVsc3irbT1lLy6qSHcYWTvdWQjmUHOSDpTKSbcyKxSdJDqqJkMYxA+9ym550vihs7XdAu1NnJqPv9RuNlQn4J+io9av60wkFImssq6djk8tK22abto5pnvSBCLuymP96XPSH3OLnIzfG7rFame2eK9t4+1trCsJ6lzNml3ci4n0XbwzdSLkWi1bhixUwg2OmudFQxFiYyYvZ56uT4C6oAAAAAAAAAAAAAAyX/q0ANDtBfQTpX6pdcfudDAJaAVi5nfytbs/Utz/AKxmJR7FfvV2Py6nvaml9ovoRuXk0/rhytDq6o66jn1smqbxQ1tKwDjDOSX11rSMTeYL1lmiT6sRaa67XPTjCboqZc4IfOM9TOetj77GM45XWNpwt57WtzxNwp6+NTuWbXNPRVNN+uYir2adeeOnmnk1hdq7n5O3cC4d/Fnq3pxMenXpiKrdOsx7fsT0c/OqLrTWlg2nYMsWOVEWKKhXE9POCnVRYIqnMYxjGMbGXUg6zg3ZJdbrKG6c5yUhTnLL/E3E23cKbd4e/pN+Y0tWo5JrmO9op5OtVppEckazMROhbNs2XveX4K1rFuJ1rrnlimJ/XVPRHT7URMxqPT6fBUaCaV6vNMNWLXHWOc3QZ09dGwXCz58tgpcru18lx1jdGMYxjBS4KQpS4qvvO85++59e47jX1r9XNH7tNPRTTHRTHRH6ZmZmZmZs2/b8XbMWnExKerbp92Z6aqp6Zn/pGkREPTjFvaguq8bdOUvadl3JXaexYXm0I9m6elxgzKNXX7bEvIQUdkuG0RJWHCuMPlksYMtguejqds47bfN27S+M974UxeC9yzK7mxYtWtNP71cRp4Oi7Xz3KLOn8Kmrkp1jXXqW+prGDwdw9t2+XuIcTHpp3O/HLPRTM69eqinmoqua+/mOWejTrV9adBobZwAAeauFPrN/rMzTrjDM5+tz7NRjKxT5PJ0HCB84MUxTFyVVu5bqlKoismYiqCpCqJmKcpTYyezbzufD+52d52a9Xj7nj1xVbuUzpMTH+00zGtNVNUTTVTM01RNMzDx7ht+FuuFc2/cLdN3Du09WqmrmmP1xMTyxMaTExExMTESqpxO4wPOMlg3NFNZPE1SrbKVSVpUguon6WSZMkLCk9iJtAhUy+kIo7tIvbplwi6TOVQuCHyoknLHa32pWe1Db9ly7trwG+Ydq/byaIifBzVVNmablqZ195cimqepM9aiYmmZqjq11aNwJwVc4MytxsUV+E22/Xaqs1T+1ERFyJorj4VOse+jkqiYmNJ1pjnB2R9Il9/XS0/px8OlHDPo5t/kNj6KlT/eP+WyvKbnf1N7/AIW38tL/AOs+0/oisCgH4qvvNt/Zdj6S+tN2JehtXlt3vbbR8VrS+AAAA8/bIP2mqtmrfb929oa/Mwfeer1u7+lo5yw7fq/L1uy7x1uj+3oAZefCTvxI7Sdl4t23OITbfGy93WvWOpPOyRflhZq1ys6lNMCZwmrIReLBKPWx1sYN1MlSybOE12/WDWMBRXnRbKvb+D/KB5VLHB2VpFU60VyUcwUoylUY6fhJFo0mIV8oxXXI0lYxzjqLoKZKqnnOOsXHTjpDOzkAWMcaP+DIwvmW/g47e6D8QU5M+CwCjsmutbpQBZzrlyhhgaNcSxVjKGKQrYy3W+9ybOA39Ac7UU3ZEV+NtH66QP4XoVt2uk3jEkTwKF1Sg72rcfRndimQSy3kkn2ViIZwRJAifaYxgqXQGrHw8FUluE3G86Siapca4YJZMmcpy4VQev0Vk85LnOMKIrJmIbH3SmLnGflwAphxqfuH3xGPiSOqs4ReSaNVq7OLOgcqhMT8XEMI7LU2eqoXCzSaaGRULnGeqoQ2M4+ToAe7+DUnXM8QDOo8yKtwd7Svh9lrKnypMmtRXbTDMs4dbpd97xWMsDlwpnp6FMm/vGN0h4j4q6FLxszgU6XIyxsM3JCtIRihewLIqUstgq6k6RbGM4cqskpw8dlLrYymQ51Or0ZObpDZgBlXcv8AzF6m/wDpXJf/ACFssBqa6dNmTZw8eOEGjNogq6du3SqaDZq2QTMqu4cLqmIkigikTJjnNnBSlxnOc9ADnrQlLDvzYHxUuWepSOHlOZ6Cm9Fa4tEXh0VSy+iqtArW99WXCZUVHRyRlMK+IYuMLlJJNMJdY2QEq8GtI8rLbxW1BO6a59sNeUJ3BPe4URhxY1Hay1GTJNyeLDCu7FKTSUrMP0J7vBlnLkhF1zH65sffYAWP1Pwx2XWuXMDyK2xzAjtz7ErWv39YlKs00tTdYyspTJdvOMIZaUJT7ioj3JlNujrJOl4xZRwdoVDtcFSJhMIY+FQ3pPipz2dIlYm2PjkVY28ic+EsySdJNY7SpDFbZMbKybFadK/yv2ZSlOoml2mTZKn1Q938ZhOsY4e5dyhm6VsabPoqmuFsH7OWLZzOXeHxYY6fQ67x7LYfnNhPP91PBvulL0B+DbBpk/xLPhxHsRSksB9Q7mNOlJjqkLMm1Rc8yZSFx04wXD3J8Yx/wAfx+GWVgttzn89s+W59zZ5M2Vvae9nIeaRqScrOezaaGDlKqnAZk8Pyt+ywVvkiSeC4wUieMBJfxcW9LW4NbOVtpW3pBtL0VWjKH7Hv5Lia4RCKWIrtunpXUr6kgVzgv33cMuM46M4xnARDzWoN9Z8ZOMPLeDau1d6cUI3Wd/sPeSmTlZusv4WuI7KhJcySRzHKnJJJOneVSnIgyI/xgvSqbpD5tmuFc59c2eOlVqi6c7o3j5r6E5JXZUpk1mcjeLsxiZWg1mSwkvlPD2IQWjljoKY6/VPIIKpfeZzgPZ8moSMsHxR/h/sJZqm8at6rt+bSSUxjJSSdZqlqskK6xjOM/wCIxmYlBYuf7DJ4Aeu+MCkmpwW2Ic6ZDmRtGt1UTHIUxkVM3WIRyolnOM5TPlFY5OnHRnqmzj7mcgL2aTiY2G0xqeFimLZhEx2s6OwYx7ZIqbVsyb1iMRRbJJYx1cJESLjHR/b/AGgOdSBSsDL4O3JBrUUnCDNDklKtZxKMwdM7eop23XSTtIpUMlUKwKoVuRwUuMl7rk+D47LrgNHNM8f+ZkxqLV8prr4kLCPoT6gVFzTo2L4f6VdMIytqQLHMPGNnGZ3rKkjWPUQ6TdB+lPPWxg3TgBJXFbiHa9Ncgtz7uu3JuO3pd9hwEVW7/FRmr61rYzGdaYgX0JMzEbVLdLRTSRxAseqVL0c1O4K7M5McxjmMoEUfBbgImL4aJS7FmijJWbZt1fzTzBC9u9Xj8xkKywor0dplFqwjyFITOclKbJzYxjJzdIfvtbNq1+MhrNdugkitI8NH7x8omXBTunRLtsGPIutnH99UrJiiljOf/wAEy4/sAfMY/wDmamf/AKjpfp2KAa4AMq+b387nwwvrA3h+idXgPG2GfiOF3xIZy02B8nW9H8xdZSc/NyTjLhCEh9q6sYryMk+XzjCqaiqscQ6hs4x1subFn+6Uv3weJ4pwUzsXjnzv5p3RgZtZuTsDuBWrJuk+lxE6upVTs0JXo1uoY6hk0CO01GZsYybCqUW3Pkx/vc4D4+uOUdr4z/DS4iJa0rkXZ9s7fmnOs9ds5/K2K6xl5a8WvtJaXwi6YncJtzGSRRR7dEplnBTnNlNNQpgsRc9R/EEq+uLrd7fzg1bOJsKhaZaza5sXHiqxOsUIskY/cykbnYEK6YXokSyjSmKm6O07fq46VCnzjJshQKFVVU+AnbiKKKHKhYmySJTnMYqKWeU9YWymljOc4TTyssc/Rjox1jZz93OQG+OhoCJq2kNP12CZox8RDayozBg0QIUhEkEK1Glxk3VwXrrKm6TqHz98ooYxjZybOcgMpuIWyILj/EfFT2Y5iTuoPWHJ7b0y3gY7qtzOyQ0pY04qFaqZIoRom6cFRb4UyUxUSm62cZwXOAEkaVj/AIiXJzX1Z3urysofHuDv0ajYqjq6paCqOyGSVecunisWvO2C4yZJtq8k2OET5Ig6cYwgcuc9itg5AFJdbPdqoznxkEpey1qzbKaalbNLFO6zQkYyvSkpC1u6xcvIRUcuZZ4xmm0aRyVymXJst5Htyon6vVMA1n+HChVEOEfHj2PKyLHrUci8kZlgmCqWtSUkc3EznJMYyZ6W0YdlVybpNgxej7mMAKsbtQqKfxh+GS0UVgS3uNU7RNbu6YSK6UZJ6626lWFpPssYyd1lErohDKdKnd008f3CpgK/aToPIDYXPDn8117yfJx32CxvcQs7Zv8AS1J23K3DXBHky3p7mPcXSSarwMTX4M0WVQjXHUcEfNe0+RJLBQsLvjgdyV3hT4yh71+InGT1Vd2uGewsdI8W9WVVZa4N03qMLiHlYG7wMx6YOi5cESRbuOusQ5y9U2OnAD/fIqqsJj4mHw7q/aOzsZYyj7Rk1nL1An+enadT7LYoiZUQUM4Km4RsMKg8LjrGyRQmOg3TjpAa+AAAAAAAAAAAAAAAAyX/AKtADQ7QX0E6V+qXXH7nQwCWgFYuZ38rW7P1Lc/6xmJR7FfvV2Py6nvaml9ovoRuXk0/rhytDq6o66t61Q2mx+OWp6y9fuY1BXXutnmXTVJJVXBmlXizlJgi2cE6p+t8o5Mbnv8Ae4a7SN23Sxbpu3I3HNp6tUzEe+v18vJyr0Ye12944QwcK5XNFM4mPOsREzyW6fZTJT6fBUaCaV6vNMNWLXHWOc3QZ09dGwXCz58tgpcru18lx1jdGMYxjBS4KQpS40zed5z99z69x3GvrX6uaP3aaeimmOimOiP0zMzMzM7Dt+34u2YtOJiU9W3T7sz01VT0zP8A0jSIiHpxi3tAAAAAAAAAHHjsj6RL7+ulp/Tj4dk+GfRzb/IbH0VLn1vH/LZXlNzv6m9/wtv5aX/1n2n9EVgUA/FV95tv7LsfSX1puxL0Nq8tu97baPitaXwAAAABQ/kxwQqO9LnFbloN8tfH/kFBNyNWG2Ne56jiWbIpdi1a2+HQeRRrAi3QxhHByu2yyjX/AC6x1UCkSIEDPuHnxCru0xTtifELXRoKySrORWo2rICu3J/G5JlHLXM5CpVuWTVfN85KqopIOOpk2c5Kt8uMhYBhwI1XTeKOxOLerHz2oNdkwjplYthTTTFssktOuytU1bLOtSPa83kXBUWpUyNm6jFskT5Eyl++yYPez/EXXV+4q0zirs9Re2Vyoa6oVJQtLBsnATSMzQa1H1+Mu8AkqtNJwMv12JliInUeJYTWO3WyuidQqgU0S4Qc74uDzquD+IbMo6fykaLRXfa3jneyWFeMj3cka3tR3x7L2rVoQqCZ0ptsTGMZMQieP8MBdzRPErUGgdJyGjKxELTFZszKZQv8lYDpuprYDyyR5oqff2Nygm3TUy9jTd2IkmUiSDYpSFx09YxgojSvh5cr9LpSutdC85pqh6ClZN87bV+R1/EWG41llKLrOHzSvyj1QxY18dVTJzOo1xEYVXUOvlEqmTdcLG8VeBVb4o7b2lsap7AmLJD7Jq9Qg/Z6wxizieZS8EzZHslqmbovYHh7HKXOxpu5JchY9km2UeZTT6SEL0hGl++H/sipbYtm5eF3IeR45zWxXqslsGjP63H2/XU1LuFVV15phBSKTqLYuDOF1lcJOGL3sVXCvdlGyRuxAeId/C4s94s2vtt7k5O2XYm9apsymXaVuMrUcLV01Tp75aUR1rUKo0tENH1WPkJNXC6z4pVi4VJgyTNLrq4UDX4BnTyY4PbG3VyErPIjVvJuV0Da63qxrq5LEPrhC3vHDBOx2ufevMSji8V1JBJ+WzFRM3y1Pkvd+v2uev1SBGT34be3dkdlDcjOee7dt6/ydM0jRa/Bt9axs4kRTChmk4ZG1WxlJNVcl6M4UaZUIXOezOQ3QbAaR6z1Xr/T1EhNaa3q8bVqVX2h2cdCMUzHRyVYx1Hjl8s4Ms5k5CRXUOq5cuDqruFTmOoYxs5yAomlwAueqbLZpfh1yluXGWtXN+tL2HWjrX1V3JrxpKrnwZZ3Tq5b3sc2qeVSpplNkneFuzJhIqhW5UkUwlzjlwwrWj7nZdw3K+23eu/bkwbRc/tq/YbpvmsWig2RVh6lCNjuG1Zh18tE8dlhZyqRFMiJVcJFyTIZIcSOMFr3Df8Al9s/Tu5rLofd9C5O7Fg4S3xLYk5Xp6tS809kHtXuVWdrEYy0Zh8yKsgY2DlSWNk6iK/VSwmF96F8P/ZNu2xUty80OREhyLmddPkpKgUVjWmFR11DSzc5F0Jl9BRxGkW8dFdIIrGSQYtMLKNku8qOUi4SwFntgcZfbrlToLkz7bei/A6v3+C9ifZvv3tR7c1yer/evaT0+z9Cei/TfbdTuDvt+y6nWT63WKENchOC0pdtq55FcctxznHHfLiPSjbLNxEYjN1LYLRqkmi1Tt1dVXbt13hEm6JDrKEeN1CN08qNTqkKrgI9rHw+tobH2LU9jc3OSMjyKSoEilMU7WcTVYula5QmW3ZdhKzsTFJs42VxnsSZUbpR7Qy+U8FcLroGUQOF8OQVzo+vdHbZuOymiEnRISg2ZWzwzg6ZCWGNdRbhgesp5VxlIzmzKuix6JTY6DrOSl/tAUX+Ejx5T0txdj7nJxpmFw3q+S2DJYcJmw9aVDCKrbXsOoqdFBRZsSFWUk08mL04UllOjPR0dAWf2Bxl9uuVOguTPtt6L8Dq/f4L2J9m+/e1HtzXJ6v969pPT7P0J6L9N9t1O4O+37LqdZPrdYofu5f8cf4rdFWTSvtl7Be0MnW5H2l9nvanufs9OsprsfQ3pyud4753Psut3snZ9brdBujq5CfKnBey9VrNZ71372dr8NBd97Du3fPREc2j+9d27Zx3fvHd+v1O0P1Ono6xujpyFW+MnEKC0FpK86PtFhZbZrewLferFPYkaqWvMHcRe2TGPkay8iTT9iw7bkatDEOt25O1wr/+snR05CB4XgNujUbSWqHF/m9sTTWppNw7dNddWnWlQ3L7MGkMqndtKbZrLKREnV47KrlU6ZGxCrdobCqqyrjBljBZTjLxK1/xla22RiJay37ZOxZU81sbbF9epyt1tz4y6zlNJy7Immm0jW67lRQqJMZMdQ+TqqKnwXJQ/wA8NeMv8JGkY3Tftt4gej7BYZ32j9m/ZTtvTzsrruvoj0/ZOz7r1er1+9G6/wB3ql+4ATPGX0vzGqfLP227v7L6Vc6f9gPZvte/d4sNmnvaL2q9Ppd26ntF2XdPRqnT2PW7bHX6pQ8DyG4ZSm09wU/kRp/dc5x93hU64tTlLfHU6Dv8NPVZVV6sWPmqjOvYxg9coGkVilVVVUTyTJMGSMZJIxAt1QYKw1ilVavW23Ob9aIeDj2FguzyLaQjm1TDduQkjOqQzBRZlE+kXWDKYbJHOmgU2CFMbBenIQHu/jL4ybu4wbk9tvZz+G+wXid9nPZv0x7Ze2bSrte6+l/T8X7O+jfZvrdfur7tu26OqTqdJg89ze4dQXNHVkTr6QtOKJNV21srTXrkSuFtC0adNm8jpSNNFenK6Zwyl2LzoPjDsmCrIpKZwbKeCgJhS0lARXHtbjzVnXoGvJ6lfaoiZLLIr1Rg0dVVesEmXDEjlliQd4yvl0sTtksuFcm6VC5Nk2ArV9n7QpviBr/ijebbLzams1Dy9Q2nXI8tSscFbkZidlY2yREaeTsCTQzZKdVarNzuViro5MYpklezUSDw8pwN3hsqISonITnJsbbWo0MJ9fX8TrWpa1cWErI5F4tnfLjBS0hP3SMSdNkFHKTjKarg6eTlVRVNhQgfRYfD07lwKmuEPi92vpeTSkfE72A6nd+y2jE7K7H2L9tT9r1vRfcut6WL0dftuj73sshoNU4L2XqtZrPeu/eztfhoLvvYd2756Ijm0f3ru3bOO7947v1+p2h+p09HWN0dOQqnp7hxXtc45Xx1tsaGyKvys2fe77Ya45rilfRg4e+Ky+ZCpHeI2KWWmexay5k8PkysFM5Lg5UkzdHVCCK1wH35reCPrLUXPbZ9E0aRZ2nGUVxrKlWS5wEQ8drOVIuubXdyLKcr+Eu1/wAI7NogVI/WMVPGT5wA97xe4IUbh/cN5XGFuz6z0XZdcrDFarWaBy8kYZjVI6Q9PP5+x5l35bk8tDl+4dOiki2CRTqmIRLJOqXAU+0xxotEq1tF/wDhmc4/YjSFws85iR13YKOnbompT6DxRpJFhGVyZOXcYRZNBPuh14xq9UYkQPl25TymfAeE17oWO1T8UzjtBobQsm9NvRtE2rsnkXsOwKF74m9sWvbRU6w2NFoO36FbYNEnrMjaPMusqg3eoZyfKSiBChpXyE4WQO4b9Dbt15sa36B5AV6MPDMdpUQjZ4WYicJnK1irtV3irVja4tqbOMdmZdudZEuEVTnTKkVMIuQ4A2zZNyqdq5g8nLbygi6HJlnKtrzOv6rqbXHplEqZWshZapVXkkysizYuVcdJuwMqRTslMnQysksE/bA4y+3XKnQXJn229F+B1fv8F7E+zffvaj25rk9X+9e0np9n6E9F+m+26ncHfb9l1Osn1usULVAAAAAAAAAAAAAAAAyX/q0ANDtBfQTpX6pdcfudDAJaAVi5nfytbs/Utz/rGYlHsV+9XY/Lqe9qaX2i+hG5eTT+uHK0OrqjroH1p8RfjVV9ca/rMrJ28kpXaTVYKSIhU3SyJX8RBMI94VFbDjGFUiuG5sFNjHQbHyjnnxP+G/tN3XiTcNzxLWHOLk51+7RrkUxPUuXa66dY05J0mNY6Frdm7XeDcLaMXCv15Hh7ONaoq0tTMdaiimmdJ15Y1h7b7TTi3+Vbp+x7v5wMH+WDtV+Zwv6inuMl65+CPh5Pip7p9ppxb/Kt0/Y9384D8sHar8zhf1FPcPXPwR8PJ8VPdPtNOLf5Vun7Hu/nAflg7VfmcL+op7h65+CPh5Pip7p9ppxb/Kt0/Y9384D8sHar8zhf1FPcPXPwR8PJ8VPdPtNOLf5Vun7Hu/nAflg7VfmcL+op7h65+CPh5Pip7p9ppxb/ACrdP2Pd/OA/LB2q/M4X9RT3D1z8EfDyfFT3T7TTi3+Vbp+x7v5wH5YO1X5nC/qKe4eufgj4eT4qe6faacW/yrdP2Pd/OA/LB2q/M4X9RT3D1z8EfDyfFT3T7TTi3+Vbp+x7v5wH5YO1X5nC/qKe4eufgj4eT4qe655bjJtZu32qZY5OZlL2Sck2ZlSZTUM1fybp03yonnOcpnyirjpx/Zn5B0W2XFu4Oz4mFf08PZxrVFWk6x1qKKaZ0npjWOdUzcL1GTn38i1r4O5erqj9FVUzH+0ugD4W38tL/wCs+0/oisDnv+Kr7zbf2XY+kvrV9iXobV5bd7220fFa0vgAAAAAAAAAAAAAAAAAAAAAAAAAAr7ovjVrvjy92i/oS9kVW27e3+xLWWwSbWRTTsEkq6WdYicNo1gZmwyZ2bqpHytnGMY+++70hYIAAAABBXIfj1R+TdAT1lsZ9Z29QPYIewybCsSjaIUnFINRVdlFyzleOkFVIjLs5Fzpo9iplVFPOFMdXoyE2MmbSOZtI9g2QZMWDZBmyZtUiINmjRqkRBs2bop4KmiggiQpSFLjGClxjGPkAfpAAAAAAAAAAAAAAAAAAAAAAAAAAGZ2xfhb6Vs94sOwNa7C3Nx6mbc6O8tEZpm4IVuryzlbtFHDjEKaMXOxOu4VMplJBcjQuTn6iBet04CxXGnhzpTiq0nTa3jZqUtVrOU9s2LeJUtjvllwRYzgqMjMFaMGrdrlwbtTotGzZJZbGFFCnULg2AtOAAAAAAAAAAAAAAAAAAADJf8Aq0ANDtBfQTpX6pdcfudDAJaARDv3X8jtPTGytew7hBtL2mqScbEqujZI19J9nhxHpOlMYNlFs4doETUUxg2UyGybGM9HRncOz/iHG4U412ziLNpqqw8TLoruRTy1dTXSuaY6aopmZiOTWY01jXVgOKtqvb5w7mbTjzFORfsVU0zPN1uemJ9iJmIiZ6InVyyz2mdtVmXfwM7rW7x8rGODtXjU9Zl1sEUJno6yThu1Waum6pegyayRzpKkzg5DGLnGc9WMDjXhDdMO3n4G54NzEu0xVTVF+3GsT7MTVFVMxzTTVEVUzrFURMTCkOVw7v2FkV4uVh5NF+idJjwdU+5MRMTE9ExMxMcsTMPk+G+xP9hXT9lpz5iPX/k3DnnDB8fa+U8/9n3b6rk+Lr+SeG+xP9hXT9lpz5iH+TcOecMHx9r5R/Z92+q5Pi6/knhvsT/YV0/Zac+Yh/k3DnnDB8fa+Uf2fdvquT4uv5L8UhSLpEsnElK1C0RkczTys7fyEBLMmTVLGcYyq4dOWiaCCeM5xjrGNjHyj7Y++7Jl36cbEzMW7k1zpTRRdt1VVT7EUxVMzPtRD53dt3Gxbm9fx79FqmNZqqoqiIj2ZmY0h4v0jH/+/ZfjSH4Yzn8tk/N1/FnuMd4W18Kn3YPSMf8A+/ZfjSH4Yfy2T83X8We4eFtfCp92HqoarWexs8yFerk9PMCrHbmfQ0RISjPDhMpDKIZcsW66OFkyqFyYvW62MGx04+XAxObu217be/l9xycfHyOrE9W5cooq0nXSerVMTpOk6TppyS92Pg5uZb8LiWbt21rprRRVVGvsaxExr7T6/hvsT/YV0/Zac+Yjx/5Nw55wwfH2vlPv/Z92+q5Pi6/knhvsT/YV0/Zac+Yh/k3DnnDB8fa+Uf2fdvquT4uv5J4b7E/2FdP2WnPmIf5Nw55wwfH2vlH9n3b6rk+Lr+S/ohrDZTpZFs215eXDhwqmg3boVKfVWXWVPhNJFFJOPMdVVU5sFKUuM5NnPRgfmvinhi1RN27uOBTbpiZmZyLURERyzMzNekREcszPM/VOy7zXVFFGJkzXM6REWq5mZnmiI6vLMukrg3pm0aP0DDVi6JlaWeamZW3ysSU5FTQZ5hNk3aRK6yWTJqvEI+OSO4wXOSprqHTxk2CYMbmj27cabVx12g3902SZr2uxYt49u5pMeF8HNU1XIieWKZrrqijXlmmIqmImdIuH2Z8O5vDXCtvC3GOrm3LlV2qnn6nX0iKZn2YppiavYqmY5dNZuAIcSAAAAAAAAAAAAAAAAAAAAAAAAAAAAAAAAAAAAAAAAAAAAAAAAAAAAAAAAAAAAAAAAAAAAAAAAAAAAAAAAAAAAAAMl/6tADQ7QX0E6V+qXXH7nQwCWgAAAAAAAU9+IB/JnyG+r95/r2AmT8Pf308OfaNPe1o/7VPu83bySe+pcWw7ZOdYA6p/gz/yiyf1w3P9B08cofxp/fBa+xsb6XIXf/Dz6BV/aF7vLTWQVHTqAAAAAAAAAAAAAAAAAAAAAAAAAAAAAAAAAAAAAAAAAAAAAAAAAAAAAAAAAAAAAAAAAAAAAAAAAAAAAAAAAAAAAAAAAAAAyX/q0ANDtBfQTpX6pdcfudDAJaAAAAAAHnLZb6tRIF9aLnYImsV6NKUz2YmnqDBihlQ+E0U8rLnIU67hU2CJJl6yip84KQuTZxgZLaNn3Xf8+3tey497K3G7Pvbdqma6p05ZnSOaIjlqqnSKY1mZiI1ePP3DB2vFqzdxu27OJRz11zFNMa8kcs9MzyRHPM8kcrO7mRyX0Jsji/umi0jatRn7ZZqa5jYKGbv8t1pB8d4zUK3TWfJNWiZskTNnpUUIX5PuixvYx2Y8f8NdqWyb9vm05mPtGLm013bk0axRTFNUazFM1VTyzHNEyiXtC4z4W3jgvcds23Ox7udex5pooirSap1idNaoiOjpmHLb4UXn8nRn7VVP14Oqf+XbD85d8Rkf+JSf+x7l8Cjxtr5Z4UXn8nRn7VVP14H+XbD85d8Rkf8AiP7HuXwKPG2vluhP4YG6dT6L42v6VtfYNWp1oV2ZaJxOIeyqD1Y0U+iay3aPMLRJpBrgiyzFUuC5U6+OpnpxjGcdPO38UvBPFvHnaXb3vhLbsvN2qNrsWpuU25pjwlNy/NVOlzqVaxFVM66acvOtd2LcSbDwzwfVtu+5djHzZzLlfVmqJnq1U24idaetHLMT068jXmg7N19tOKWm9d3CBuEW1c5Zu3MG/Redyd4JhTDZ8gXOHDJcyRsHKRUhDGJnBsYyXOMinvEHC/EXCuXTg8R4eRh5VdPWppu0TT1qebrUzzVRryTNMzETyTyp92retp3yxOTtGRayLFM6TNFUTpPsVRzxOnLpMRycvM90MCyYAAAAAAAAAAAAAAAAAAAAAAAAAAAAAAAAAAAAAAAAAAAAAAAAAAAAAAAAAAAAAAAAAAAAAAAAAAAAAAAAAAAAAAAAAAMl/wCrQA0O0F9BOlfql1x+50MAloAAAAAAVn5O8a4vk3V69VJq3zlUjoCdPP5xDtmjssg87g4j2/ekXhip/wCUSdq9Q2Plx2hv+Ik7su7TMvsv3TJ3bBw7GXk5GPFr+JVVT1KevFc9WaeX30006x7UNM404OscaYVnByci7YtWrvX95ET1p6s0xrE+xEzp+mVKvsk9d+bl0/McH+GJu/N3xH5nwfG3Uceobafr+T8Sg+yT135uXT8xwf4Yfm74j8z4Pjbp6htp+v5PxKD7JPXfm5dPzHB/hh+bviPzPg+NunqG2n6/k/EoPsk9d+bl0/McH+GH5u+I/M+D426eobafr+T8ShZ/jBw2g+L89aJmv3+yWVva4hnGSERKsI5mywtHvMumMjjLM2TqOmhFl0idPyYI4P8A8RFval2z53algYuFuO342NcxL1VdFy3VXVVpXT1a6PfckU1TFFU+3RDdeCuzzG4Kyr+RiZd69RftxTVRVTTEa0zrTVydMa1RHtVSucIVSKAAAAAAAAAAAAAAAAAAAAAAAAAAAAAAAAAAAAAAAAAAAAAAAAAAAAAAAAAAAAAAAAAAAAAAAAAAAAAAAAAAAAAAAAAADJf+rQA0O0F9BOlfql1x+50MAloAAAAAAAAAAAAAAAAAAAAAAAAAAAAAAAAAAAAAAAAAAAAAAAAAAAAAAAAAAAAAAAAAAAAAAAAAAAAAAAAAAAAAAAAAAAAAAAAAAAAAAAAAAZL/ANWgBodoL6CdK/VLrj9zoYBLQAAAAAAAAAAAAAAAAAAAAAAAAAAAAAAAAAAAAAAAAAAAAAAAAAAAAAAAAAAAAAAAAAAAAAAAAAAAAAAAAAAAAAAAAAAAAAAAAAAAAAAAAAAyX/q0AMlwAAAAAAAAAAAAAAAAAAAAAAAAAAAAAAAAAAAAAAAAAAAAAAAAAAAAAAAAAAAAAAAAAAAAAAAAAAAAAAAAAAAAAAAAAAAAAAAAAAAAAAAAAAAAH//Z;" vertex="1" parent="1">
          <mxGeometry x="300" y="100" width="120" height="80" as="geometry" relative="0"/>
        </mxCell>
        <mxCell id="6" value="JSON Data" style="shape=image;image=data:image/png;base64,iVBORw0KGgoAAAANSUhEUgAAAMIAAADCCAYAAAAb4R0xAAAACXBIWXMAABYlAAAWJQFJUiTwAAAE0UlEQVR42u3dvW7bVhiA4e+Ico2mCLrY3rtk1YUVyOgxHbp5Tq8gvR9PXnIBgWF4aJH+wFbI00GHCcNSPwZim5SeByBkWLLgMOfNRyqElHLOAYduZhdAxHzbA1JKad1ddh8jNHiIk7cc+pgIsGkidCZBWhONicAUJkJT1vPGybDt0CiVbVa21Ps+jDmEpqzTXLZm54nQmQTtwq96IczWhCAMxjABcieCdssRUZf13QxNhvmWSXBUQji+ubl5c3Jy8nNKqbLvGX0dOde3t7e/nZ2d/RoR9yWEZVnX9dqT5VR0IqjKNr++vv7l9PT0tQiYipRSdXp6+vr6+vpN+Qe/Xc+ps9w/H8WkdkL0To6r8sMvIqKq6/rDbDYTAZPTNE1dVdVPZQr8FRGfyoTIEdG0h0hDL5/OetuRCJiqsnaP4usXfWZbT5Z75wjz8iQwZT+UdXxf1nV7rvD/c4QNk8E0YOraVz7TpsW+aSL4/wL24tx52zqebVj8QmDfQli7tl1rxCG4K1sdq1eN2v9pDiGAEDgwy7LVZXvQRHB+wMGcMJsIHIL2ytPc24QAQgAhgBBACCAEEAIIAYQAQgAhgBBACCAEEAIIAYQAQgAhgBBACPCtzMf4S52fnx/UX8LFxYWVaCKAEEAIIAQQAggBhABCACGAEEAIMHbzffhDPPRanYdey/TYz4+JAEIAIYAQQAggBBACCAGEAEIAIcAEpJzz6ouU2iiqiDiKiOOIeBkRxznn90/5S7lWZ7899fs4pZReRcRdRHwst8uIqCMics6NiQAOjUAIIAQQAggBhABCACGAEEAIsBPvazTB5x+bfbg2zEQAIYAQQAggBBACCAGEAEIAIYAQYKu9uNbosa91Gdvzu/bJRAAhgBBACCAEEAIIAYQAQgAhgBDgGXhfowk+/2PvHxMBhABCACGAEAAhgBBACCAEEAIIAQZ4X6MJPr/3NTIRQAggBBACCAGEAEIAIYAQQAggBHgG3tdogs//2PvHRAAhgBBACCAEQAggBBACCAGEAEKAASnnvPoipTaKKiKOIuI4Il5GxHHO+f1T/lKP/T5CPK+nvvYppfQqIu4i4mO5XUZEHRGRc25MBHBoBEIAIYAQQAggBBACCAGEAEKAnYzyWiP4povctUbg0AiEAEIAIYAQQAggBBACCAGEAEIAIYAQQAggBBACCAGEAEIAIYAQQAggBBACCAFGFUIuG+yDjevZRAAhgBBgMIS8bqvrurarmKKydvOGbeNE+OrBV1dXv9ulTFFZu4OLf9dDo6Zs9WKxeHt5efnOZGBKk+Dy8vLdYrF4G6sPBWnX86DuJ+ak8r2qbPOIeBER30XEj7H6FJ3vO/e3j092OyOQO7d12f6N1afj/BkR9xHxT0R86twfuQQwXzMJUqegZfnhKDE0ncfAGIOoe2t32Vm3g5NhvuWw6K485o8Swd9lGsyEwIhDaEoMbQT35eu1h0efQ2hHxJcjpKg75xBVp7TZmhCEwXMeEvVDaDqToXs4lMtyz7tMhPbsetl5wnbxt7dCYKwhtDH0o1j7qlHqhfHljtVoSJ3FP+udIFv4jDWMPDAdBifBtonQr60eKEkITGFCNGu+v9tE6E2GwbvscyYQwlfnwOu41gh2mQhwCEwEiIj/AJq4gZC4R9oxAAAAAElFTkSuQmCC;" vertex="1" parent="1">
          <mxGeometry x="150" y="220" width="80" height="40" as="geometry" relative="0"/>
        </mxCell>
        <mxCell id="7" value="PDF Data" style="shape=image;image=data:image/png;base64,iVBORw0KGgoAAAANSUhEUgAAAMIAAADCCAYAAAAb4R0xAAAACXBIWXMAABYlAAAWJQFJUiTwAAAEgElEQVR42u3dvW7bVhiA4e+Qco2mKLpY3rt01YUVyOgxHbp5Tq8gvR9NXnoBhWB4aNE/2Ap5OvgwoWn9GUhTUnoegLBhyUbCnDffoSyAKecccOoqpwAiZvuekFJK2x5y+hihjVucvGfrYyLAronQmwRpSzQmAlOYCG1Zzzsnw76tUSpHVY40+DqMOYS2rNNcjvbgidCbBN3CrwchVFtCEAZjmAC5F0F35IhoyvpuN02G2Z5JcFZCOL+9vX1zcXHxfUqpdu4ZfR05N3d3dz9dXl7+GBEPJYR1WdfN1ovlVPQiqMsxW61WP8zn89ciYCpSSvV8Pn+9Wq3elP/wu/Wcesv9wy4mdRNicHFcl29+FRF10zS/VlUlAianbdumrutvyxT4MyLelwmRI6LttkibXj6tBseZCJiqsnbP4umLPtXei+XBNcKs/BCYsq/KOn4o67q7Vnh+jbBjMpgGTF33ymfatdh3TQS/L+Aorp33reNqx+IXAscWwta17b1GnIL7cjTx+KpR95vmEAIIgROzLkdTjhdNBNcHnMwFs4nAKejeeZoHhxBACCAEEAIIAYQAQgAhgBBACCAEEAIIAYQAQgAhgBBACCAEEAIIAYQAQgAhgBBACCAE+O/MxviHurq68i9zxK6vr00EsDUCIYAQQAgwdrNj+Eu89FUIr0phIoAQQAggBBACCAGEAEIAIYAQQAjwYkfxXiPvHcJEACGAEEAIIAT4xFLO+fGTlLoo6og4i4jziPg6Is5zzr84VUx2kaf0XUTcR8Qf5eM6IpqIiJxzayKArREIAYQAQgAhgBBACCAEEAIIAQ7iHmp8du6hBrZGIAQQAggBJsA91MBEACGAEEAIIAQQAggBhABCACGAEOAQ7qEGJgIIAYQAQgAhwHPuocbxL3L3UANbIxACCAGEAEIAIYAQQAggBBACfAruocZn5x5qYGsEQgAhgBBgAtxDDUwEEAIIAYQAQgAhgBBACCAEEAIIAQ7hHmpgIoAQQAggBBACPOceahz/IncPNbA1AiGAEEAIIAQQAggBhABCACGAEEAIIAQQAggBhABCACGAEEAIIAQQAggBhABCACGAEEAIIAQQAggBRh5CLgccg53r2UQAIYAQYGMIedvRNE3jVDFFZe3mHcfOifDkyTc3Nz87pUxRWbsbF/+hW6O2HM1isXi7XC7fmQxMaRIsl8t3i8XibTzeSrZbzxv177Ocytfqcswi4lVEfBER38TjvZe/7D3ePT857YxA7n1syvFPPN5T+feIeIiIvyPife/xyCWA2ZZJkHoFrcs3R4mh7T0HxhhEM1i769663TgZZnu2RfflOb+VCP4q06ASAiMOoS0xdBE8lM+3bo8+hNCNiI87pGh61xB1r7RqSwjC4P/cEg1DaHuTob8dymW550MmQnd1ve79wG7xdx+FwFhD6GIYRrH1VaM0COPjA4+jIfUWfzW4QLbwGWsYecN02DgJ9k2EYW3NhpKEwBQmRLvl64dNhMFk2PiQc84EQnhyDbyN9xrBIRMBToGJABHxL/v1W7oTWXRrAAAAAElFTkSuQmCC;" vertex="1" parent="1">
          <mxGeometry x="450" y="220" width="80" height="40" as="geometry" relative="0"/>
        </mxCell>
        <mxCell id="8" value="Data Icon" style="shape=image;image=data:image/png;base64,iVBORw0KGgoAAAANSUhEUgAAAOIAAAByCAYAAABOdg2UAAAACXBIWXMAABYlAAAWJQFJUiTwAAAMp0lEQVR42u2dTWgiaRrH/5rMjpllRzpMDyi0sAb2Yg3NYN+cwFy8eEgfbQ/OzC3ChjkKaWH2sEiD5wxU32ZwwXhsD15yGch465BDysuCHmywm2FIttgPM92j7iH1VlfUKj+q1DL+f1B0Wst6q4r35/O8X5an3++DELJcvLwFhCyfzXE7eDwej9lbvH2EDDEyxeyPST0ZEQlxc0Q0REKPibSMiISMj4g9zSfLyDguNfVom1fbPAOvE0LMRexpnvS1rTdxRDREQiHexoCIXhMRKSZhBHz//55h6wPoan71RkXGzTGR8ANNxA9/+eWX7z755JO/ejyeDd57QsbY2e93f/311+8//fTTvwN4q4n4TvOqO7i/1xgJtWjoMUTCDQCbb968+dv9+/e/pYSETIbH49m4f//+t2/evPlOC3jCJ49BNz2L9IgIOdA5s6F9+CMAG91ut+31eikhIVPS6/W6Gxsbf9ai4H8A/K5FyD6AnkhRRw1feAe2DyghIbOhufMBbnd6Dnk3ro24qR2EEDI7f9Q8eqt5JdqKw21Ei8jIaEiIPcTIg8dKNquIyPFCQuwz1iOvhXwUkRBnRTR1i3NNCZk/v2lbFze9pmKmDSgiIS6CIhIyf95pW1fbpoqIbB8S4nw7kRGRkCUhVl70BzaKSAjbiIQQikiI29i8CxfRaDTQbDbRbrdxeXmJ169fW+4fCASwvb2NYDCIcDiMnZ0d1gSyVIzLoER0FLPFPwTwJwAf9vv9f7rppDudDur1ur45QSQS0betrS3WDOKcZB7PX3AzoP9v7V8xlIF+v99bORHb7TZOT09xdnY213Ki0SgePXrESEko4mDqeXJygmazudByw+Ew4vE4hSTrLWKn00GlUpl7BJwkQu7t7TFlJesnYr1eR7lcxvX1tStups/nQzKZRCQSYc0i6yFiuVxeehS0io7JZJK1izgqoquGLzqdDmRZHjv8sEzOzs7QbreRyWSYqhLH8FLC6Xn9+jVkWUan02ENIndHxE6ng2fPnq2EhEYZnz17hqurK9Yisvoiikjolk6Zabi+vsYPP/zAyEhWX8RVSUfHpamErKyI5XJ5pSU0ylgul1mbyOqJWK/XXTtEMQtnZ2eOzXsl68dShi86nY7tCOLz+bC7u+vI6gmxeuP09NRWW7VcLuPw8JDDGmQ1ImKlUrFV4X0+HzKZjGPzQHd2dhCPx5HJZODz+WY+zvX1NSqVCmsVcb+IjUbDdkq6u7uLYDDo+LkFg0Hs7u7aTlEbjQZrFnG3iCcnJ7aPEQ6H53Z+ThzbiWskbCPONRo6sZRpMB09OTmZufLH43HE4/FbUdEu4tcC5hG1CSOibV6+fOn4MTudjq0INPhZpzpaTk9PWbsGkGUZ4XB4rhkNI+IEwtyl4YpJ2opOr2FMp9Oo1Woj3/P7/ZAkCaFQCIlEArFYjLWbEXGYeY2xuXmoYJHjiqqqolaroVQqIZ1O4+DgAKqqsoYDKJVKkGUZpVKJEXEdB7vr9ToePXo0l2MXi8Wh1y4uLnB8fIxWq4VqtYpQKIRsNrv2IlarVdRqNcRiMaRSKYq4jiLOi1GpZywWQyaTwd7eHhRFgSzL2N/fh9/vZ1hkGxEzj6sVCgVH97Nb7izRpdFoLPzHp1KpFHK5HABAURS2FyniDYv+9TU30Ww2Fy5iKBSy/JK5uLgwTW9Fm6parVruo6oqSqWSngoLEokEUqnUTPIbyxXHGbVPqVSCoiiWZRqPJfZVFAXpdNry+HdaxHa7vbYiLuPajT2rg2npxcWFac+rUTKrfRRFwdOnT2/JYGyPVatVZDKZqTKIUqmkR3FJkpBIJIbO6eDgYOR5iTLz+bwu16hrML7mtixhIb2ml5eXayvioq9dURS9dzAWi0GSJEePr6qqLqHf70c2m8X5+TmazSYqlYpewWVZ1iPSJF8cRgmLxeLQF4hRwsEyxTXmcjl9n0QigWKxiGKxqL8vjl0sFodEX4uIeBfWHLrt2kctRn716pUuoSRJODo6crxcY1p4dHR0K7KIii7GOwuFwtgKrygKDg4OLCUUvZ4AbkU942ceP36MVquFUqmEWCyGUCikp+jieH6/37XtZVc/hKbT6bhmnNBtP4dh1UEVCoVwdHQ0l97S4+NjPdqaVepUKoVarYZWq4VWq2XaZhVtNlVV4ff7R0ooRBTSjWrX+f1+PHnyBIVCYeIoTBGn7Ohwyw/6uq3DyUwCIcDjx4+Rz+cdTcFUVdU7ZqwiSywW0zt5zL4MWq3WRBIaRbS6ls8+++zWPVi1nmJXi6goimtEHNUxsUzMejNbrRYODg6gKApyuZw+7c3pe2Cs+KMi1DgRjDN/9vf3Tduyxg6X4+Nj006kVZ9F5PqIyHOZDpGWfvnll1BVFcfHx66cXWOU+vnz50gkEmO/MESqexdxtYhXV1e4urrCvXv3XHEeq0IoFIIkSVAURR8zdBuixzWXy+lDE+N+3SCbzVpGYmMHDkV0mEajMbf5mtOcw6oxj46aBw8e6H9fXFzYaoeJHldVVVEoFKAoCgqFwlD0NpY5rm26ynhXQUSeg3Nt2kkiilWkFenjq1evLMtOp9NIp9Om5yGEymQyeifMqLFHY5njJiJQxDEEAoGVbpvZOQc71z4rsizrnReDEeTjjz++1eYahdUQgJBmcJqZkZ9//hm1Wg2KokyUJubzeV22XC43dF5PnjzRRbQ6N1mWLduQbu7QWYiI29vbK9s+s1u+nWu3olarDW3VahW5XE4fY/T7/UPjbl988YX+9+CaRTGkYNVDbFzN8fTp06EoJcuyXv7+/v7EabSYfCDai0ZSqZReZi6XG5rMIHqKC4UCvvrqK9MsQFEU1/V+L7SNGAwGbS0JWmY70W5aOq/frRGTl63SyFGD+mIeZ7VahaIo+Pzzz0eKYRY9xJifEDadTiMUCuHBgwdQFEX/XCqVQiaTmfh6JElCNpsd2V40linalM+fP4ckSVBVVZfLKPRgGizk3dvb018zGwK6sxHR7m+ULLONZrfsRf8+SywWQzabxYsXL0zTwnw+P1IS0ZM5LpJJkoQXL17oaWqr1UKtVoOqqvpi5Hw+P/W5W7UXJUnCTz/9NDSpW0iYSCRMr1ms03QzC3tisJ2xrHv37uHw8HApN8juo9ecXivpJIPRZJZufyeOMWtqbpR0kl7iVquldzJN+hlHJHPTE4MjkcjM6emyxhPttg/dMivIqm1mdzhgWROpZynT2AO7lp01TlTKZaSndst0u4iEIlJEQpYh4tbWFqLR6MyfX8Z4op0yo9EonwpF3CciAFsPeFn0eKLd8pY9LY9QRFOCwaCt7vxFDsbaKcuJZzYSijhXjA98cXN6aqcsO9dIKOJC2NnZmbmtuMgOm1nLikajjIbE/SICN9OMZnky7/X19UJ+nrDdbs/0RGOfz6dPoSJkGhY2s2aQer2OH3/88U7dzK+//ppDFmRYsglm1ixtPWIkErE1nOE2otEoJSSrlZoKksnkUtbrOU0gEEAymWRtIqspInAz436VZQwEAq6f2U8o4li2trbwzTffzNR5s2x8Ph8ymQxn0JDVFxF4v8xplSJjIBDA4eEhJSR3R0QRGVclTRXpKCUkTrG04QsryuUyzs7OXHnDotEoO2bIdJJNMHzhShGBm3HGcrk808D6vNqDyWSSQxRkvUQEbp7AVKlUlh4do9Eo9vb2mIqS9RRR0Gg0cHJysvA1ieFwGPF4nHNHCUUcFPLly5dzj5DRaBS7u7tz+ylEQhFXWkRjylqv1/XNCSKRiL4xBSUUccZI2Ww20W63cXl5OfZx2YFAANvb2/pCZaaehCISQhHd/zQoQtYBikgIRSSEUERCKCIhhCISQhEJIRSRkBUSsa9thBD7WPrEiEgIU1NCCEUkxIUi9s22brfb5a0iZHo0d/oWm2VEvLVzvV7/B28pIdOjuTNSvklT0562dR8+fHh0fn5eZGQkZPJIeH5+Xnz48OERbpY8CZ9GYlyP6NFe29C2TQAfAfgDAD9u1ihuGd4X+3t42wnRI11fE68LoIObtYcqgLcA/gfgd8P76GsCbppEQo/B4Hfah6HJ2DPsQwgZFrI74M47gzcjI+PmmLT0N22ff2kS/leLhl6KSIipiD1NRiHhW+1v0/RUF1GEyPcZKrqGNuSGwXSviYgUk6xzSjooYs8QGY3paF/TrT9JRBS9O+8MBxTyiX8pIiGjRRQyDkpp2mvqGRDz/Rs3odFjkM8YBT0UjxDLIDYYHUdGwnERcdD27giTKSIh4yNkz+T1ySLiQGQc+RbvOSFjRbx5cYxonGtKiAsYGxEJIfOHEZEQF/B/ZnLpOtzO5EIAAAAASUVORK5CYII=;" vertex="1" parent="1">
          <mxGeometry x="530" y="240" width="40" height="40" as="geometry" relative="0"/>
        </mxCell>
        <mxCell id="9" value="Data Icon" style="shape=image;image=data:image/png;base64,iVBORw0KGgoAAAANSUhEUgAAAOIAAAByCAYAAABOdg2UAAAACXBIWXMAABYlAAAWJQFJUiTwAAAMp0lEQVR42u2dTWgiaRrH/5rMjpllRzpMDyi0sAb2Yg3NYN+cwFy8eEgfbQ/OzC3ChjkKaWH2sEiD5wxU32ZwwXhsD15yGch465BDysuCHmywm2FIttgPM92j7iH1VlfUKj+q1DL+f1B0Wst6q4r35/O8X5an3++DELJcvLwFhCyfzXE7eDwej9lbvH2EDDEyxeyPST0ZEQlxc0Q0REKPibSMiISMj4g9zSfLyDguNfVom1fbPAOvE0LMRexpnvS1rTdxRDREQiHexoCIXhMRKSZhBHz//55h6wPoan71RkXGzTGR8ANNxA9/+eWX7z755JO/ejyeDd57QsbY2e93f/311+8//fTTvwN4q4n4TvOqO7i/1xgJtWjoMUTCDQCbb968+dv9+/e/pYSETIbH49m4f//+t2/evPlOC3jCJ49BNz2L9IgIOdA5s6F9+CMAG91ut+31eikhIVPS6/W6Gxsbf9ai4H8A/K5FyD6AnkhRRw1feAe2DyghIbOhufMBbnd6Dnk3ro24qR2EEDI7f9Q8eqt5JdqKw21Ei8jIaEiIPcTIg8dKNquIyPFCQuwz1iOvhXwUkRBnRTR1i3NNCZk/v2lbFze9pmKmDSgiIS6CIhIyf95pW1fbpoqIbB8S4nw7kRGRkCUhVl70BzaKSAjbiIQQikiI29i8CxfRaDTQbDbRbrdxeXmJ169fW+4fCASwvb2NYDCIcDiMnZ0d1gSyVIzLoER0FLPFPwTwJwAf9vv9f7rppDudDur1ur45QSQS0betrS3WDOKcZB7PX3AzoP9v7V8xlIF+v99bORHb7TZOT09xdnY213Ki0SgePXrESEko4mDqeXJygmazudByw+Ew4vE4hSTrLWKn00GlUpl7BJwkQu7t7TFlJesnYr1eR7lcxvX1tStups/nQzKZRCQSYc0i6yFiuVxeehS0io7JZJK1izgqoquGLzqdDmRZHjv8sEzOzs7QbreRyWSYqhLH8FLC6Xn9+jVkWUan02ENIndHxE6ng2fPnq2EhEYZnz17hqurK9Yisvoiikjolk6Zabi+vsYPP/zAyEhWX8RVSUfHpamErKyI5XJ5pSU0ylgul1mbyOqJWK/XXTtEMQtnZ2eOzXsl68dShi86nY7tCOLz+bC7u+vI6gmxeuP09NRWW7VcLuPw8JDDGmQ1ImKlUrFV4X0+HzKZjGPzQHd2dhCPx5HJZODz+WY+zvX1NSqVCmsVcb+IjUbDdkq6u7uLYDDo+LkFg0Hs7u7aTlEbjQZrFnG3iCcnJ7aPEQ6H53Z+ThzbiWskbCPONRo6sZRpMB09OTmZufLH43HE4/FbUdEu4tcC5hG1CSOibV6+fOn4MTudjq0INPhZpzpaTk9PWbsGkGUZ4XB4rhkNI+IEwtyl4YpJ2opOr2FMp9Oo1Woj3/P7/ZAkCaFQCIlEArFYjLWbEXGYeY2xuXmoYJHjiqqqolaroVQqIZ1O4+DgAKqqsoYDKJVKkGUZpVKJEXEdB7vr9ToePXo0l2MXi8Wh1y4uLnB8fIxWq4VqtYpQKIRsNrv2IlarVdRqNcRiMaRSKYq4jiLOi1GpZywWQyaTwd7eHhRFgSzL2N/fh9/vZ1hkGxEzj6sVCgVH97Nb7izRpdFoLPzHp1KpFHK5HABAURS2FyniDYv+9TU30Ww2Fy5iKBSy/JK5uLgwTW9Fm6parVruo6oqSqWSngoLEokEUqnUTPIbyxXHGbVPqVSCoiiWZRqPJfZVFAXpdNry+HdaxHa7vbYiLuPajT2rg2npxcWFac+rUTKrfRRFwdOnT2/JYGyPVatVZDKZqTKIUqmkR3FJkpBIJIbO6eDgYOR5iTLz+bwu16hrML7mtixhIb2ml5eXayvioq9dURS9dzAWi0GSJEePr6qqLqHf70c2m8X5+TmazSYqlYpewWVZ1iPSJF8cRgmLxeLQF4hRwsEyxTXmcjl9n0QigWKxiGKxqL8vjl0sFodEX4uIeBfWHLrt2kctRn716pUuoSRJODo6crxcY1p4dHR0K7KIii7GOwuFwtgKrygKDg4OLCUUvZ4AbkU942ceP36MVquFUqmEWCyGUCikp+jieH6/37XtZVc/hKbT6bhmnNBtP4dh1UEVCoVwdHQ0l97S4+NjPdqaVepUKoVarYZWq4VWq2XaZhVtNlVV4ff7R0ooRBTSjWrX+f1+PHnyBIVCYeIoTBGn7Ohwyw/6uq3DyUwCIcDjx4+Rz+cdTcFUVdU7ZqwiSywW0zt5zL4MWq3WRBIaRbS6ls8+++zWPVi1nmJXi6goimtEHNUxsUzMejNbrRYODg6gKApyuZw+7c3pe2Cs+KMi1DgRjDN/9vf3Tduyxg6X4+Nj006kVZ9F5PqIyHOZDpGWfvnll1BVFcfHx66cXWOU+vnz50gkEmO/MESqexdxtYhXV1e4urrCvXv3XHEeq0IoFIIkSVAURR8zdBuixzWXy+lDE+N+3SCbzVpGYmMHDkV0mEajMbf5mtOcw6oxj46aBw8e6H9fXFzYaoeJHldVVVEoFKAoCgqFwlD0NpY5rm26ynhXQUSeg3Nt2kkiilWkFenjq1evLMtOp9NIp9Om5yGEymQyeifMqLFHY5njJiJQxDEEAoGVbpvZOQc71z4rsizrnReDEeTjjz++1eYahdUQgJBmcJqZkZ9//hm1Wg2KokyUJubzeV22XC43dF5PnjzRRbQ6N1mWLduQbu7QWYiI29vbK9s+s1u+nWu3olarDW3VahW5XE4fY/T7/UPjbl988YX+9+CaRTGkYNVDbFzN8fTp06EoJcuyXv7+/v7EabSYfCDai0ZSqZReZi6XG5rMIHqKC4UCvvrqK9MsQFEU1/V+L7SNGAwGbS0JWmY70W5aOq/frRGTl63SyFGD+mIeZ7VahaIo+Pzzz0eKYRY9xJifEDadTiMUCuHBgwdQFEX/XCqVQiaTmfh6JElCNpsd2V40linalM+fP4ckSVBVVZfLKPRgGizk3dvb018zGwK6sxHR7m+ULLONZrfsRf8+SywWQzabxYsXL0zTwnw+P1IS0ZM5LpJJkoQXL17oaWqr1UKtVoOqqvpi5Hw+P/W5W7UXJUnCTz/9NDSpW0iYSCRMr1ms03QzC3tisJ2xrHv37uHw8HApN8juo9ecXivpJIPRZJZufyeOMWtqbpR0kl7iVquldzJN+hlHJHPTE4MjkcjM6emyxhPttg/dMivIqm1mdzhgWROpZynT2AO7lp01TlTKZaSndst0u4iEIlJEQpYh4tbWFqLR6MyfX8Z4op0yo9EonwpF3CciAFsPeFn0eKLd8pY9LY9QRFOCwaCt7vxFDsbaKcuJZzYSijhXjA98cXN6aqcsO9dIKOJC2NnZmbmtuMgOm1nLikajjIbE/SICN9OMZnky7/X19UJ+nrDdbs/0RGOfz6dPoSJkGhY2s2aQer2OH3/88U7dzK+//ppDFmRYsglm1ixtPWIkErE1nOE2otEoJSSrlZoKksnkUtbrOU0gEEAymWRtIqspInAz436VZQwEAq6f2U8o4li2trbwzTffzNR5s2x8Ph8ymQxn0JDVFxF4v8xplSJjIBDA4eEhJSR3R0QRGVclTRXpKCUkTrG04QsryuUyzs7OXHnDotEoO2bIdJJNMHzhShGBm3HGcrk808D6vNqDyWSSQxRkvUQEbp7AVKlUlh4do9Eo9vb2mIqS9RRR0Gg0cHJysvA1ieFwGPF4nHNHCUUcFPLly5dzj5DRaBS7u7tz+ylEQhFXWkRjylqv1/XNCSKRiL4xBSUUccZI2Ww20W63cXl5OfZx2YFAANvb2/pCZaaehCISQhHd/zQoQtYBikgIRSSEUERCKCIhhCISQhEJIRSRkBUSsa9thBD7WPrEiEgIU1NCCEUkxIUi9s22brfb5a0iZHo0d/oWm2VEvLVzvV7/B28pIdOjuTNSvklT0562dR8+fHh0fn5eZGQkZPJIeH5+Xnz48OERbpY8CZ9GYlyP6NFe29C2TQAfAfgDAD9u1ihuGd4X+3t42wnRI11fE68LoIObtYcqgLcA/gfgd8P76GsCbppEQo/B4Hfah6HJ2DPsQwgZFrI74M47gzcjI+PmmLT0N22ff2kS/leLhl6KSIipiD1NRiHhW+1v0/RUF1GEyPcZKrqGNuSGwXSviYgUk6xzSjooYs8QGY3paF/TrT9JRBS9O+8MBxTyiX8pIiGjRRQyDkpp2mvqGRDz/Rs3odFjkM8YBT0UjxDLIDYYHUdGwnERcdD27giTKSIh4yNkz+T1ySLiQGQc+RbvOSFjRbx5cYxonGtKiAsYGxEJIfOHEZEQF/B/ZnLpOtzO5EIAAAAASUVORK5CYII=;" vertex="1" parent="1">
          <mxGeometry x="540" y="220" width="40" height="40" as="geometry" relative="0"/>
        </mxCell>
        <mxCell id="10" value="Stores JSON and PDF data" style="textColor=#000000;align=center;" vertex="1" parent="1">
          <mxGeometry x="530" y="240" width="200" height="40" as="geometry" relative="0"/>
        </mxCell>
        <mxCell id="11" value="Stores PDF data" style="textColor=#000000;align=center;" vertex="1" parent="1">
          <mxGeometry x="540" y="220" width="200" height="40" as="geometry" relative="0"/>
        </mxCell>
      </root>
    </mxGraphModel>
  </diagram>
</mxfile>
